solid OpenSCAD_Model
  facet normal 0.707107 0 0.707107
    outer loop
      vertex 10 10 5
      vertex 5 5 10
      vertex 10 0 5
    endloop
  endfacet
  facet normal 0 -0.707107 0.707107
    outer loop
      vertex 5 5 10
      vertex 0 0 5
      vertex 10 0 5
    endloop
  endfacet
  facet normal 0 0.707107 0.707107
    outer loop
      vertex 10 10 5
      vertex 0 10 5
      vertex 5 5 10
    endloop
  endfacet
  facet normal -0.707107 0 0.707107
    outer loop
      vertex 0 10 5
      vertex 0 0 5
      vertex 5 5 10
    endloop
  endfacet
  facet normal 0.707107 0 0.707107
    outer loop
      vertex 10 20 5
      vertex 5 15 10
      vertex 10 10 5
    endloop
  endfacet
  facet normal 0 -0.707107 0.707107
    outer loop
      vertex 5 15 10
      vertex 0 10 5
      vertex 10 10 5
    endloop
  endfacet
  facet normal 0 0.707107 0.707107
    outer loop
      vertex 10 20 5
      vertex 0 20 5
      vertex 5 15 10
    endloop
  endfacet
  facet normal -0.707107 0 0.707107
    outer loop
      vertex 0 20 5
      vertex 0 10 5
      vertex 5 15 10
    endloop
  endfacet
  facet normal 0.707107 0 0.707107
    outer loop
      vertex 10 30 5
      vertex 5 25 10
      vertex 10 20 5
    endloop
  endfacet
  facet normal 0 -0.707107 0.707107
    outer loop
      vertex 5 25 10
      vertex 0 20 5
      vertex 10 20 5
    endloop
  endfacet
  facet normal 0 0.707107 0.707107
    outer loop
      vertex 10 30 5
      vertex 0 30 5
      vertex 5 25 10
    endloop
  endfacet
  facet normal -0.707107 0 0.707107
    outer loop
      vertex 0 30 5
      vertex 0 20 5
      vertex 5 25 10
    endloop
  endfacet
  facet normal 0.707107 0 0.707107
    outer loop
      vertex 10 40 5
      vertex 5 35 10
      vertex 10 30 5
    endloop
  endfacet
  facet normal 0 -0.707107 0.707107
    outer loop
      vertex 5 35 10
      vertex 0 30 5
      vertex 10 30 5
    endloop
  endfacet
  facet normal 0 0.707107 0.707107
    outer loop
      vertex 10 40 5
      vertex 0 40 5
      vertex 5 35 10
    endloop
  endfacet
  facet normal -0.707107 0 0.707107
    outer loop
      vertex 0 40 5
      vertex 0 30 5
      vertex 5 35 10
    endloop
  endfacet
  facet normal 0.707107 0 0.707107
    outer loop
      vertex 10 50 5
      vertex 5 45 10
      vertex 10 40 5
    endloop
  endfacet
  facet normal 0 -0.707107 0.707107
    outer loop
      vertex 5 45 10
      vertex 0 40 5
      vertex 10 40 5
    endloop
  endfacet
  facet normal 0 0.707107 0.707107
    outer loop
      vertex 10 50 5
      vertex 0 50 5
      vertex 5 45 10
    endloop
  endfacet
  facet normal -0.707107 0 0.707107
    outer loop
      vertex 0 50 5
      vertex 0 40 5
      vertex 5 45 10
    endloop
  endfacet
  facet normal 0.707107 0 0.707107
    outer loop
      vertex 10 60 5
      vertex 5 55 10
      vertex 10 50 5
    endloop
  endfacet
  facet normal 0 -0.707107 0.707107
    outer loop
      vertex 5 55 10
      vertex 0 50 5
      vertex 10 50 5
    endloop
  endfacet
  facet normal 0 0.707107 0.707107
    outer loop
      vertex 10 60 5
      vertex 0 60 5
      vertex 5 55 10
    endloop
  endfacet
  facet normal -0.707107 0 0.707107
    outer loop
      vertex 0 60 5
      vertex 0 50 5
      vertex 5 55 10
    endloop
  endfacet
  facet normal 0.707107 0 0.707107
    outer loop
      vertex 10 70 5
      vertex 5 65 10
      vertex 10 60 5
    endloop
  endfacet
  facet normal 0 -0.707107 0.707107
    outer loop
      vertex 5 65 10
      vertex 0 60 5
      vertex 10 60 5
    endloop
  endfacet
  facet normal 0 0.707107 0.707107
    outer loop
      vertex 10 70 5
      vertex 0 70 5
      vertex 5 65 10
    endloop
  endfacet
  facet normal -0.707107 0 0.707107
    outer loop
      vertex 0 70 5
      vertex 0 60 5
      vertex 5 65 10
    endloop
  endfacet
  facet normal 0.707107 0 0.707107
    outer loop
      vertex 10 80 5
      vertex 5 75 10
      vertex 10 70 5
    endloop
  endfacet
  facet normal 0 -0.707107 0.707107
    outer loop
      vertex 5 75 10
      vertex 0 70 5
      vertex 10 70 5
    endloop
  endfacet
  facet normal 0 0.707107 0.707107
    outer loop
      vertex 10 80 5
      vertex 0 80 5
      vertex 5 75 10
    endloop
  endfacet
  facet normal -0.707107 0 0.707107
    outer loop
      vertex 0 80 5
      vertex 0 70 5
      vertex 5 75 10
    endloop
  endfacet
  facet normal 0.707107 0 0.707107
    outer loop
      vertex 10 90 5
      vertex 5 85 10
      vertex 10 80 5
    endloop
  endfacet
  facet normal 0 -0.707107 0.707107
    outer loop
      vertex 5 85 10
      vertex 0 80 5
      vertex 10 80 5
    endloop
  endfacet
  facet normal 0 0.707107 0.707107
    outer loop
      vertex 10 90 5
      vertex 0 90 5
      vertex 5 85 10
    endloop
  endfacet
  facet normal -0.707107 0 0.707107
    outer loop
      vertex 0 90 5
      vertex 0 80 5
      vertex 5 85 10
    endloop
  endfacet
  facet normal 0.707107 0 0.707107
    outer loop
      vertex 10 100 5
      vertex 5 95 10
      vertex 10 90 5
    endloop
  endfacet
  facet normal 0 -0.707107 0.707107
    outer loop
      vertex 5 95 10
      vertex 0 90 5
      vertex 10 90 5
    endloop
  endfacet
  facet normal 0 0.707107 0.707107
    outer loop
      vertex 10 100 5
      vertex 0 100 5
      vertex 5 95 10
    endloop
  endfacet
  facet normal -0.707107 0 0.707107
    outer loop
      vertex 0 100 5
      vertex 0 90 5
      vertex 5 95 10
    endloop
  endfacet
  facet normal 0.707107 0 0.707107
    outer loop
      vertex 20 10 5
      vertex 15 5 10
      vertex 20 0 5
    endloop
  endfacet
  facet normal 0 -0.707107 0.707107
    outer loop
      vertex 15 5 10
      vertex 10 0 5
      vertex 20 0 5
    endloop
  endfacet
  facet normal 0 0.707107 0.707107
    outer loop
      vertex 20 10 5
      vertex 10 10 5
      vertex 15 5 10
    endloop
  endfacet
  facet normal -0.707107 0 0.707107
    outer loop
      vertex 10 10 5
      vertex 10 0 5
      vertex 15 5 10
    endloop
  endfacet
  facet normal 0.707107 0 0.707107
    outer loop
      vertex 20 20 5
      vertex 15 15 10
      vertex 20 10 5
    endloop
  endfacet
  facet normal 0 -0.707107 0.707107
    outer loop
      vertex 15 15 10
      vertex 10 10 5
      vertex 20 10 5
    endloop
  endfacet
  facet normal 0 0.707107 0.707107
    outer loop
      vertex 20 20 5
      vertex 10 20 5
      vertex 15 15 10
    endloop
  endfacet
  facet normal -0.707107 0 0.707107
    outer loop
      vertex 10 20 5
      vertex 10 10 5
      vertex 15 15 10
    endloop
  endfacet
  facet normal 0.707107 0 0.707107
    outer loop
      vertex 20 30 5
      vertex 15 25 10
      vertex 20 20 5
    endloop
  endfacet
  facet normal 0 -0.707107 0.707107
    outer loop
      vertex 15 25 10
      vertex 10 20 5
      vertex 20 20 5
    endloop
  endfacet
  facet normal 0 0.707107 0.707107
    outer loop
      vertex 20 30 5
      vertex 10 30 5
      vertex 15 25 10
    endloop
  endfacet
  facet normal -0.707107 0 0.707107
    outer loop
      vertex 10 30 5
      vertex 10 20 5
      vertex 15 25 10
    endloop
  endfacet
  facet normal 0.707107 0 0.707107
    outer loop
      vertex 20 40 5
      vertex 15 35 10
      vertex 20 30 5
    endloop
  endfacet
  facet normal 0 -0.707107 0.707107
    outer loop
      vertex 15 35 10
      vertex 10 30 5
      vertex 20 30 5
    endloop
  endfacet
  facet normal 0 0.707107 0.707107
    outer loop
      vertex 20 40 5
      vertex 10 40 5
      vertex 15 35 10
    endloop
  endfacet
  facet normal -0.707107 0 0.707107
    outer loop
      vertex 10 40 5
      vertex 10 30 5
      vertex 15 35 10
    endloop
  endfacet
  facet normal 0.707107 0 0.707107
    outer loop
      vertex 20 50 5
      vertex 15 45 10
      vertex 20 40 5
    endloop
  endfacet
  facet normal 0 -0.707107 0.707107
    outer loop
      vertex 15 45 10
      vertex 10 40 5
      vertex 20 40 5
    endloop
  endfacet
  facet normal 0 0.707107 0.707107
    outer loop
      vertex 20 50 5
      vertex 10 50 5
      vertex 15 45 10
    endloop
  endfacet
  facet normal -0.707107 0 0.707107
    outer loop
      vertex 10 50 5
      vertex 10 40 5
      vertex 15 45 10
    endloop
  endfacet
  facet normal 0.707107 0 0.707107
    outer loop
      vertex 20 60 5
      vertex 15 55 10
      vertex 20 50 5
    endloop
  endfacet
  facet normal 0 -0.707107 0.707107
    outer loop
      vertex 15 55 10
      vertex 10 50 5
      vertex 20 50 5
    endloop
  endfacet
  facet normal 0 0.707107 0.707107
    outer loop
      vertex 20 60 5
      vertex 10 60 5
      vertex 15 55 10
    endloop
  endfacet
  facet normal -0.707107 0 0.707107
    outer loop
      vertex 10 60 5
      vertex 10 50 5
      vertex 15 55 10
    endloop
  endfacet
  facet normal 0.707107 0 0.707107
    outer loop
      vertex 20 70 5
      vertex 15 65 10
      vertex 20 60 5
    endloop
  endfacet
  facet normal 0 -0.707107 0.707107
    outer loop
      vertex 15 65 10
      vertex 10 60 5
      vertex 20 60 5
    endloop
  endfacet
  facet normal 0 0.707107 0.707107
    outer loop
      vertex 20 70 5
      vertex 10 70 5
      vertex 15 65 10
    endloop
  endfacet
  facet normal -0.707107 0 0.707107
    outer loop
      vertex 10 70 5
      vertex 10 60 5
      vertex 15 65 10
    endloop
  endfacet
  facet normal 0.707107 0 0.707107
    outer loop
      vertex 20 80 5
      vertex 15 75 10
      vertex 20 70 5
    endloop
  endfacet
  facet normal 0 -0.707107 0.707107
    outer loop
      vertex 15 75 10
      vertex 10 70 5
      vertex 20 70 5
    endloop
  endfacet
  facet normal 0 0.707107 0.707107
    outer loop
      vertex 20 80 5
      vertex 10 80 5
      vertex 15 75 10
    endloop
  endfacet
  facet normal -0.707107 0 0.707107
    outer loop
      vertex 10 80 5
      vertex 10 70 5
      vertex 15 75 10
    endloop
  endfacet
  facet normal 0.707107 0 0.707107
    outer loop
      vertex 20 90 5
      vertex 15 85 10
      vertex 20 80 5
    endloop
  endfacet
  facet normal 0 -0.707107 0.707107
    outer loop
      vertex 15 85 10
      vertex 10 80 5
      vertex 20 80 5
    endloop
  endfacet
  facet normal 0 0.707107 0.707107
    outer loop
      vertex 20 90 5
      vertex 10 90 5
      vertex 15 85 10
    endloop
  endfacet
  facet normal -0.707107 0 0.707107
    outer loop
      vertex 10 90 5
      vertex 10 80 5
      vertex 15 85 10
    endloop
  endfacet
  facet normal 0.707107 0 0.707107
    outer loop
      vertex 20 100 5
      vertex 15 95 10
      vertex 20 90 5
    endloop
  endfacet
  facet normal 0 -0.707107 0.707107
    outer loop
      vertex 15 95 10
      vertex 10 90 5
      vertex 20 90 5
    endloop
  endfacet
  facet normal 0 0.707107 0.707107
    outer loop
      vertex 20 100 5
      vertex 10 100 5
      vertex 15 95 10
    endloop
  endfacet
  facet normal -0.707107 0 0.707107
    outer loop
      vertex 10 100 5
      vertex 10 90 5
      vertex 15 95 10
    endloop
  endfacet
  facet normal 0.707107 0 0.707107
    outer loop
      vertex 30 10 5
      vertex 25 5 10
      vertex 30 0 5
    endloop
  endfacet
  facet normal 0 -0.707107 0.707107
    outer loop
      vertex 25 5 10
      vertex 20 0 5
      vertex 30 0 5
    endloop
  endfacet
  facet normal 0 0.707107 0.707107
    outer loop
      vertex 30 10 5
      vertex 20 10 5
      vertex 25 5 10
    endloop
  endfacet
  facet normal -0.707107 0 0.707107
    outer loop
      vertex 20 10 5
      vertex 20 0 5
      vertex 25 5 10
    endloop
  endfacet
  facet normal 0.707107 0 0.707107
    outer loop
      vertex 30 20 5
      vertex 25 15 10
      vertex 30 10 5
    endloop
  endfacet
  facet normal 0 -0.707107 0.707107
    outer loop
      vertex 25 15 10
      vertex 20 10 5
      vertex 30 10 5
    endloop
  endfacet
  facet normal 0 0.707107 0.707107
    outer loop
      vertex 30 20 5
      vertex 20 20 5
      vertex 25 15 10
    endloop
  endfacet
  facet normal -0.707107 0 0.707107
    outer loop
      vertex 20 20 5
      vertex 20 10 5
      vertex 25 15 10
    endloop
  endfacet
  facet normal 0.707107 0 0.707107
    outer loop
      vertex 30 30 5
      vertex 25 25 10
      vertex 30 20 5
    endloop
  endfacet
  facet normal 0 -0.707107 0.707107
    outer loop
      vertex 25 25 10
      vertex 20 20 5
      vertex 30 20 5
    endloop
  endfacet
  facet normal 0 0.707107 0.707107
    outer loop
      vertex 30 30 5
      vertex 20 30 5
      vertex 25 25 10
    endloop
  endfacet
  facet normal -0.707107 0 0.707107
    outer loop
      vertex 20 30 5
      vertex 20 20 5
      vertex 25 25 10
    endloop
  endfacet
  facet normal 0.707107 0 0.707107
    outer loop
      vertex 30 40 5
      vertex 25 35 10
      vertex 30 30 5
    endloop
  endfacet
  facet normal 0 -0.707107 0.707107
    outer loop
      vertex 25 35 10
      vertex 20 30 5
      vertex 30 30 5
    endloop
  endfacet
  facet normal 0 0.707107 0.707107
    outer loop
      vertex 30 40 5
      vertex 20 40 5
      vertex 25 35 10
    endloop
  endfacet
  facet normal -0.707107 0 0.707107
    outer loop
      vertex 20 40 5
      vertex 20 30 5
      vertex 25 35 10
    endloop
  endfacet
  facet normal 0.707107 0 0.707107
    outer loop
      vertex 30 50 5
      vertex 25 45 10
      vertex 30 40 5
    endloop
  endfacet
  facet normal 0 -0.707107 0.707107
    outer loop
      vertex 25 45 10
      vertex 20 40 5
      vertex 30 40 5
    endloop
  endfacet
  facet normal 0 0.707107 0.707107
    outer loop
      vertex 30 50 5
      vertex 20 50 5
      vertex 25 45 10
    endloop
  endfacet
  facet normal -0.707107 0 0.707107
    outer loop
      vertex 20 50 5
      vertex 20 40 5
      vertex 25 45 10
    endloop
  endfacet
  facet normal 0.707107 0 0.707107
    outer loop
      vertex 30 60 5
      vertex 25 55 10
      vertex 30 50 5
    endloop
  endfacet
  facet normal 0 -0.707107 0.707107
    outer loop
      vertex 25 55 10
      vertex 20 50 5
      vertex 30 50 5
    endloop
  endfacet
  facet normal 0 0.707107 0.707107
    outer loop
      vertex 30 60 5
      vertex 20 60 5
      vertex 25 55 10
    endloop
  endfacet
  facet normal -0.707107 0 0.707107
    outer loop
      vertex 20 60 5
      vertex 20 50 5
      vertex 25 55 10
    endloop
  endfacet
  facet normal 0.707107 0 0.707107
    outer loop
      vertex 30 70 5
      vertex 25 65 10
      vertex 30 60 5
    endloop
  endfacet
  facet normal 0 -0.707107 0.707107
    outer loop
      vertex 25 65 10
      vertex 20 60 5
      vertex 30 60 5
    endloop
  endfacet
  facet normal 0 0.707107 0.707107
    outer loop
      vertex 30 70 5
      vertex 20 70 5
      vertex 25 65 10
    endloop
  endfacet
  facet normal -0.707107 0 0.707107
    outer loop
      vertex 20 70 5
      vertex 20 60 5
      vertex 25 65 10
    endloop
  endfacet
  facet normal 0.707107 0 0.707107
    outer loop
      vertex 30 80 5
      vertex 25 75 10
      vertex 30 70 5
    endloop
  endfacet
  facet normal 0 -0.707107 0.707107
    outer loop
      vertex 25 75 10
      vertex 20 70 5
      vertex 30 70 5
    endloop
  endfacet
  facet normal 0 0.707107 0.707107
    outer loop
      vertex 30 80 5
      vertex 20 80 5
      vertex 25 75 10
    endloop
  endfacet
  facet normal -0.707107 0 0.707107
    outer loop
      vertex 20 80 5
      vertex 20 70 5
      vertex 25 75 10
    endloop
  endfacet
  facet normal 0.707107 0 0.707107
    outer loop
      vertex 30 90 5
      vertex 25 85 10
      vertex 30 80 5
    endloop
  endfacet
  facet normal 0 -0.707107 0.707107
    outer loop
      vertex 25 85 10
      vertex 20 80 5
      vertex 30 80 5
    endloop
  endfacet
  facet normal 0 0.707107 0.707107
    outer loop
      vertex 30 90 5
      vertex 20 90 5
      vertex 25 85 10
    endloop
  endfacet
  facet normal -0.707107 0 0.707107
    outer loop
      vertex 20 90 5
      vertex 20 80 5
      vertex 25 85 10
    endloop
  endfacet
  facet normal 0.707107 0 0.707107
    outer loop
      vertex 30 100 5
      vertex 25 95 10
      vertex 30 90 5
    endloop
  endfacet
  facet normal 0 -0.707107 0.707107
    outer loop
      vertex 25 95 10
      vertex 20 90 5
      vertex 30 90 5
    endloop
  endfacet
  facet normal 0 0.707107 0.707107
    outer loop
      vertex 30 100 5
      vertex 20 100 5
      vertex 25 95 10
    endloop
  endfacet
  facet normal -0.707107 0 0.707107
    outer loop
      vertex 20 100 5
      vertex 20 90 5
      vertex 25 95 10
    endloop
  endfacet
  facet normal 0.707107 0 0.707107
    outer loop
      vertex 40 10 5
      vertex 35 5 10
      vertex 40 0 5
    endloop
  endfacet
  facet normal 0 -0.707107 0.707107
    outer loop
      vertex 35 5 10
      vertex 30 0 5
      vertex 40 0 5
    endloop
  endfacet
  facet normal 0 0.707107 0.707107
    outer loop
      vertex 40 10 5
      vertex 30 10 5
      vertex 35 5 10
    endloop
  endfacet
  facet normal -0.707107 0 0.707107
    outer loop
      vertex 30 10 5
      vertex 30 0 5
      vertex 35 5 10
    endloop
  endfacet
  facet normal 0.707107 0 0.707107
    outer loop
      vertex 40 20 5
      vertex 35 15 10
      vertex 40 10 5
    endloop
  endfacet
  facet normal 0 -0.707107 0.707107
    outer loop
      vertex 35 15 10
      vertex 30 10 5
      vertex 40 10 5
    endloop
  endfacet
  facet normal 0 0.707107 0.707107
    outer loop
      vertex 40 20 5
      vertex 30 20 5
      vertex 35 15 10
    endloop
  endfacet
  facet normal -0.707107 0 0.707107
    outer loop
      vertex 30 20 5
      vertex 30 10 5
      vertex 35 15 10
    endloop
  endfacet
  facet normal 0.707107 0 0.707107
    outer loop
      vertex 40 30 5
      vertex 35 25 10
      vertex 40 20 5
    endloop
  endfacet
  facet normal 0 -0.707107 0.707107
    outer loop
      vertex 35 25 10
      vertex 30 20 5
      vertex 40 20 5
    endloop
  endfacet
  facet normal 0 0.707107 0.707107
    outer loop
      vertex 40 30 5
      vertex 30 30 5
      vertex 35 25 10
    endloop
  endfacet
  facet normal -0.707107 0 0.707107
    outer loop
      vertex 30 30 5
      vertex 30 20 5
      vertex 35 25 10
    endloop
  endfacet
  facet normal 0.707107 0 0.707107
    outer loop
      vertex 40 40 5
      vertex 35 35 10
      vertex 40 30 5
    endloop
  endfacet
  facet normal 0 -0.707107 0.707107
    outer loop
      vertex 35 35 10
      vertex 30 30 5
      vertex 40 30 5
    endloop
  endfacet
  facet normal 0 0.707107 0.707107
    outer loop
      vertex 40 40 5
      vertex 30 40 5
      vertex 35 35 10
    endloop
  endfacet
  facet normal -0.707107 0 0.707107
    outer loop
      vertex 30 40 5
      vertex 30 30 5
      vertex 35 35 10
    endloop
  endfacet
  facet normal 0.707107 0 0.707107
    outer loop
      vertex 40 50 5
      vertex 35 45 10
      vertex 40 40 5
    endloop
  endfacet
  facet normal 0 -0.707107 0.707107
    outer loop
      vertex 35 45 10
      vertex 30 40 5
      vertex 40 40 5
    endloop
  endfacet
  facet normal 0 0.707107 0.707107
    outer loop
      vertex 40 50 5
      vertex 30 50 5
      vertex 35 45 10
    endloop
  endfacet
  facet normal -0.707107 0 0.707107
    outer loop
      vertex 30 50 5
      vertex 30 40 5
      vertex 35 45 10
    endloop
  endfacet
  facet normal 0.707107 0 0.707107
    outer loop
      vertex 40 60 5
      vertex 35 55 10
      vertex 40 50 5
    endloop
  endfacet
  facet normal 0 -0.707107 0.707107
    outer loop
      vertex 35 55 10
      vertex 30 50 5
      vertex 40 50 5
    endloop
  endfacet
  facet normal 0 0.707107 0.707107
    outer loop
      vertex 40 60 5
      vertex 30 60 5
      vertex 35 55 10
    endloop
  endfacet
  facet normal -0.707107 0 0.707107
    outer loop
      vertex 30 60 5
      vertex 30 50 5
      vertex 35 55 10
    endloop
  endfacet
  facet normal 0.707107 0 0.707107
    outer loop
      vertex 40 70 5
      vertex 35 65 10
      vertex 40 60 5
    endloop
  endfacet
  facet normal 0 -0.707107 0.707107
    outer loop
      vertex 35 65 10
      vertex 30 60 5
      vertex 40 60 5
    endloop
  endfacet
  facet normal 0 0.707107 0.707107
    outer loop
      vertex 40 70 5
      vertex 30 70 5
      vertex 35 65 10
    endloop
  endfacet
  facet normal -0.707107 0 0.707107
    outer loop
      vertex 30 70 5
      vertex 30 60 5
      vertex 35 65 10
    endloop
  endfacet
  facet normal 0.707107 0 0.707107
    outer loop
      vertex 40 80 5
      vertex 35 75 10
      vertex 40 70 5
    endloop
  endfacet
  facet normal 0 -0.707107 0.707107
    outer loop
      vertex 35 75 10
      vertex 30 70 5
      vertex 40 70 5
    endloop
  endfacet
  facet normal 0 0.707107 0.707107
    outer loop
      vertex 40 80 5
      vertex 30 80 5
      vertex 35 75 10
    endloop
  endfacet
  facet normal -0.707107 0 0.707107
    outer loop
      vertex 30 80 5
      vertex 30 70 5
      vertex 35 75 10
    endloop
  endfacet
  facet normal 0.707107 0 0.707107
    outer loop
      vertex 40 90 5
      vertex 35 85 10
      vertex 40 80 5
    endloop
  endfacet
  facet normal 0 -0.707107 0.707107
    outer loop
      vertex 35 85 10
      vertex 30 80 5
      vertex 40 80 5
    endloop
  endfacet
  facet normal 0 0.707107 0.707107
    outer loop
      vertex 40 90 5
      vertex 30 90 5
      vertex 35 85 10
    endloop
  endfacet
  facet normal -0.707107 0 0.707107
    outer loop
      vertex 30 90 5
      vertex 30 80 5
      vertex 35 85 10
    endloop
  endfacet
  facet normal 0.707107 0 0.707107
    outer loop
      vertex 40 100 5
      vertex 35 95 10
      vertex 40 90 5
    endloop
  endfacet
  facet normal 0 -0.707107 0.707107
    outer loop
      vertex 35 95 10
      vertex 30 90 5
      vertex 40 90 5
    endloop
  endfacet
  facet normal 0 0.707107 0.707107
    outer loop
      vertex 40 100 5
      vertex 30 100 5
      vertex 35 95 10
    endloop
  endfacet
  facet normal -0.707107 0 0.707107
    outer loop
      vertex 30 100 5
      vertex 30 90 5
      vertex 35 95 10
    endloop
  endfacet
  facet normal 0.707107 0 0.707107
    outer loop
      vertex 50 10 5
      vertex 45 5 10
      vertex 50 0 5
    endloop
  endfacet
  facet normal 0 -0.707107 0.707107
    outer loop
      vertex 45 5 10
      vertex 40 0 5
      vertex 50 0 5
    endloop
  endfacet
  facet normal 0 0.707107 0.707107
    outer loop
      vertex 50 10 5
      vertex 40 10 5
      vertex 45 5 10
    endloop
  endfacet
  facet normal -0.707107 0 0.707107
    outer loop
      vertex 40 10 5
      vertex 40 0 5
      vertex 45 5 10
    endloop
  endfacet
  facet normal 0.707107 0 0.707107
    outer loop
      vertex 50 20 5
      vertex 45 15 10
      vertex 50 10 5
    endloop
  endfacet
  facet normal 0 -0.707107 0.707107
    outer loop
      vertex 45 15 10
      vertex 40 10 5
      vertex 50 10 5
    endloop
  endfacet
  facet normal 0 0.707107 0.707107
    outer loop
      vertex 50 20 5
      vertex 40 20 5
      vertex 45 15 10
    endloop
  endfacet
  facet normal -0.707107 0 0.707107
    outer loop
      vertex 40 20 5
      vertex 40 10 5
      vertex 45 15 10
    endloop
  endfacet
  facet normal 0.707107 0 0.707107
    outer loop
      vertex 50 30 5
      vertex 45 25 10
      vertex 50 20 5
    endloop
  endfacet
  facet normal 0 -0.707107 0.707107
    outer loop
      vertex 45 25 10
      vertex 40 20 5
      vertex 50 20 5
    endloop
  endfacet
  facet normal 0 0.707107 0.707107
    outer loop
      vertex 50 30 5
      vertex 40 30 5
      vertex 45 25 10
    endloop
  endfacet
  facet normal -0.707107 0 0.707107
    outer loop
      vertex 40 30 5
      vertex 40 20 5
      vertex 45 25 10
    endloop
  endfacet
  facet normal 0.707107 0 0.707107
    outer loop
      vertex 50 40 5
      vertex 45 35 10
      vertex 50 30 5
    endloop
  endfacet
  facet normal 0 -0.707107 0.707107
    outer loop
      vertex 45 35 10
      vertex 40 30 5
      vertex 50 30 5
    endloop
  endfacet
  facet normal 0 0.707107 0.707107
    outer loop
      vertex 50 40 5
      vertex 40 40 5
      vertex 45 35 10
    endloop
  endfacet
  facet normal -0.707107 0 0.707107
    outer loop
      vertex 40 40 5
      vertex 40 30 5
      vertex 45 35 10
    endloop
  endfacet
  facet normal 0.707107 0 0.707107
    outer loop
      vertex 50 50 5
      vertex 45 45 10
      vertex 50 40 5
    endloop
  endfacet
  facet normal 0 -0.707107 0.707107
    outer loop
      vertex 45 45 10
      vertex 40 40 5
      vertex 50 40 5
    endloop
  endfacet
  facet normal 0 0.707107 0.707107
    outer loop
      vertex 50 50 5
      vertex 40 50 5
      vertex 45 45 10
    endloop
  endfacet
  facet normal -0.707107 0 0.707107
    outer loop
      vertex 40 50 5
      vertex 40 40 5
      vertex 45 45 10
    endloop
  endfacet
  facet normal 0.707107 0 0.707107
    outer loop
      vertex 50 60 5
      vertex 45 55 10
      vertex 50 50 5
    endloop
  endfacet
  facet normal 0 -0.707107 0.707107
    outer loop
      vertex 45 55 10
      vertex 40 50 5
      vertex 50 50 5
    endloop
  endfacet
  facet normal 0 0.707107 0.707107
    outer loop
      vertex 50 60 5
      vertex 40 60 5
      vertex 45 55 10
    endloop
  endfacet
  facet normal -0.707107 0 0.707107
    outer loop
      vertex 40 60 5
      vertex 40 50 5
      vertex 45 55 10
    endloop
  endfacet
  facet normal 0.707107 0 0.707107
    outer loop
      vertex 50 70 5
      vertex 45 65 10
      vertex 50 60 5
    endloop
  endfacet
  facet normal 0 -0.707107 0.707107
    outer loop
      vertex 45 65 10
      vertex 40 60 5
      vertex 50 60 5
    endloop
  endfacet
  facet normal 0 0.707107 0.707107
    outer loop
      vertex 50 70 5
      vertex 40 70 5
      vertex 45 65 10
    endloop
  endfacet
  facet normal -0.707107 0 0.707107
    outer loop
      vertex 40 70 5
      vertex 40 60 5
      vertex 45 65 10
    endloop
  endfacet
  facet normal 0.707107 0 0.707107
    outer loop
      vertex 50 80 5
      vertex 45 75 10
      vertex 50 70 5
    endloop
  endfacet
  facet normal 0 -0.707107 0.707107
    outer loop
      vertex 45 75 10
      vertex 40 70 5
      vertex 50 70 5
    endloop
  endfacet
  facet normal 0 0.707107 0.707107
    outer loop
      vertex 50 80 5
      vertex 40 80 5
      vertex 45 75 10
    endloop
  endfacet
  facet normal -0.707107 0 0.707107
    outer loop
      vertex 40 80 5
      vertex 40 70 5
      vertex 45 75 10
    endloop
  endfacet
  facet normal 0.707107 0 0.707107
    outer loop
      vertex 50 90 5
      vertex 45 85 10
      vertex 50 80 5
    endloop
  endfacet
  facet normal 0 -0.707107 0.707107
    outer loop
      vertex 45 85 10
      vertex 40 80 5
      vertex 50 80 5
    endloop
  endfacet
  facet normal 0 0.707107 0.707107
    outer loop
      vertex 50 90 5
      vertex 40 90 5
      vertex 45 85 10
    endloop
  endfacet
  facet normal -0.707107 0 0.707107
    outer loop
      vertex 40 90 5
      vertex 40 80 5
      vertex 45 85 10
    endloop
  endfacet
  facet normal 0.707107 0 0.707107
    outer loop
      vertex 50 100 5
      vertex 45 95 10
      vertex 50 90 5
    endloop
  endfacet
  facet normal 0 -0.707107 0.707107
    outer loop
      vertex 45 95 10
      vertex 40 90 5
      vertex 50 90 5
    endloop
  endfacet
  facet normal 0 0.707107 0.707107
    outer loop
      vertex 50 100 5
      vertex 40 100 5
      vertex 45 95 10
    endloop
  endfacet
  facet normal -0.707107 0 0.707107
    outer loop
      vertex 40 100 5
      vertex 40 90 5
      vertex 45 95 10
    endloop
  endfacet
  facet normal 0.707107 0 0.707107
    outer loop
      vertex 60 10 5
      vertex 55 5 10
      vertex 60 0 5
    endloop
  endfacet
  facet normal 0 -0.707107 0.707107
    outer loop
      vertex 55 5 10
      vertex 50 0 5
      vertex 60 0 5
    endloop
  endfacet
  facet normal 0 0.707107 0.707107
    outer loop
      vertex 60 10 5
      vertex 50 10 5
      vertex 55 5 10
    endloop
  endfacet
  facet normal -0.707107 0 0.707107
    outer loop
      vertex 50 10 5
      vertex 50 0 5
      vertex 55 5 10
    endloop
  endfacet
  facet normal 0.707107 0 0.707107
    outer loop
      vertex 60 20 5
      vertex 55 15 10
      vertex 60 10 5
    endloop
  endfacet
  facet normal 0 -0.707107 0.707107
    outer loop
      vertex 55 15 10
      vertex 50 10 5
      vertex 60 10 5
    endloop
  endfacet
  facet normal 0 0.707107 0.707107
    outer loop
      vertex 60 20 5
      vertex 50 20 5
      vertex 55 15 10
    endloop
  endfacet
  facet normal -0.707107 0 0.707107
    outer loop
      vertex 50 20 5
      vertex 50 10 5
      vertex 55 15 10
    endloop
  endfacet
  facet normal 0.707107 0 0.707107
    outer loop
      vertex 60 30 5
      vertex 55 25 10
      vertex 60 20 5
    endloop
  endfacet
  facet normal 0 -0.707107 0.707107
    outer loop
      vertex 55 25 10
      vertex 50 20 5
      vertex 60 20 5
    endloop
  endfacet
  facet normal 0 0.707107 0.707107
    outer loop
      vertex 60 30 5
      vertex 50 30 5
      vertex 55 25 10
    endloop
  endfacet
  facet normal -0.707107 0 0.707107
    outer loop
      vertex 50 30 5
      vertex 50 20 5
      vertex 55 25 10
    endloop
  endfacet
  facet normal 0.707107 0 0.707107
    outer loop
      vertex 60 40 5
      vertex 55 35 10
      vertex 60 30 5
    endloop
  endfacet
  facet normal 0 -0.707107 0.707107
    outer loop
      vertex 55 35 10
      vertex 50 30 5
      vertex 60 30 5
    endloop
  endfacet
  facet normal 0 0.707107 0.707107
    outer loop
      vertex 60 40 5
      vertex 50 40 5
      vertex 55 35 10
    endloop
  endfacet
  facet normal -0.707107 0 0.707107
    outer loop
      vertex 50 40 5
      vertex 50 30 5
      vertex 55 35 10
    endloop
  endfacet
  facet normal 0.707107 0 0.707107
    outer loop
      vertex 60 50 5
      vertex 55 45 10
      vertex 60 40 5
    endloop
  endfacet
  facet normal 0 -0.707107 0.707107
    outer loop
      vertex 55 45 10
      vertex 50 40 5
      vertex 60 40 5
    endloop
  endfacet
  facet normal 0 0.707107 0.707107
    outer loop
      vertex 60 50 5
      vertex 50 50 5
      vertex 55 45 10
    endloop
  endfacet
  facet normal -0.707107 0 0.707107
    outer loop
      vertex 50 50 5
      vertex 50 40 5
      vertex 55 45 10
    endloop
  endfacet
  facet normal 0.707107 0 0.707107
    outer loop
      vertex 60 60 5
      vertex 55 55 10
      vertex 60 50 5
    endloop
  endfacet
  facet normal 0 -0.707107 0.707107
    outer loop
      vertex 55 55 10
      vertex 50 50 5
      vertex 60 50 5
    endloop
  endfacet
  facet normal 0 0.707107 0.707107
    outer loop
      vertex 60 60 5
      vertex 50 60 5
      vertex 55 55 10
    endloop
  endfacet
  facet normal -0.707107 0 0.707107
    outer loop
      vertex 50 60 5
      vertex 50 50 5
      vertex 55 55 10
    endloop
  endfacet
  facet normal 0.707107 0 0.707107
    outer loop
      vertex 60 70 5
      vertex 55 65 10
      vertex 60 60 5
    endloop
  endfacet
  facet normal 0 -0.707107 0.707107
    outer loop
      vertex 55 65 10
      vertex 50 60 5
      vertex 60 60 5
    endloop
  endfacet
  facet normal 0 0.707107 0.707107
    outer loop
      vertex 60 70 5
      vertex 50 70 5
      vertex 55 65 10
    endloop
  endfacet
  facet normal -0.707107 0 0.707107
    outer loop
      vertex 50 70 5
      vertex 50 60 5
      vertex 55 65 10
    endloop
  endfacet
  facet normal 0.707107 0 0.707107
    outer loop
      vertex 60 80 5
      vertex 55 75 10
      vertex 60 70 5
    endloop
  endfacet
  facet normal 0 -0.707107 0.707107
    outer loop
      vertex 55 75 10
      vertex 50 70 5
      vertex 60 70 5
    endloop
  endfacet
  facet normal 0 0.707107 0.707107
    outer loop
      vertex 60 80 5
      vertex 50 80 5
      vertex 55 75 10
    endloop
  endfacet
  facet normal -0.707107 0 0.707107
    outer loop
      vertex 50 80 5
      vertex 50 70 5
      vertex 55 75 10
    endloop
  endfacet
  facet normal 0.707107 0 0.707107
    outer loop
      vertex 60 90 5
      vertex 55 85 10
      vertex 60 80 5
    endloop
  endfacet
  facet normal 0 -0.707107 0.707107
    outer loop
      vertex 55 85 10
      vertex 50 80 5
      vertex 60 80 5
    endloop
  endfacet
  facet normal 0 0.707107 0.707107
    outer loop
      vertex 60 90 5
      vertex 50 90 5
      vertex 55 85 10
    endloop
  endfacet
  facet normal -0.707107 0 0.707107
    outer loop
      vertex 50 90 5
      vertex 50 80 5
      vertex 55 85 10
    endloop
  endfacet
  facet normal 0.707107 0 0.707107
    outer loop
      vertex 60 100 5
      vertex 55 95 10
      vertex 60 90 5
    endloop
  endfacet
  facet normal 0 -0.707107 0.707107
    outer loop
      vertex 55 95 10
      vertex 50 90 5
      vertex 60 90 5
    endloop
  endfacet
  facet normal 0 0.707107 0.707107
    outer loop
      vertex 60 100 5
      vertex 50 100 5
      vertex 55 95 10
    endloop
  endfacet
  facet normal -0.707107 0 0.707107
    outer loop
      vertex 50 100 5
      vertex 50 90 5
      vertex 55 95 10
    endloop
  endfacet
  facet normal 0.707107 0 0.707107
    outer loop
      vertex 70 10 5
      vertex 65 5 10
      vertex 70 0 5
    endloop
  endfacet
  facet normal 0 -0.707107 0.707107
    outer loop
      vertex 65 5 10
      vertex 60 0 5
      vertex 70 0 5
    endloop
  endfacet
  facet normal 0 0.707107 0.707107
    outer loop
      vertex 70 10 5
      vertex 60 10 5
      vertex 65 5 10
    endloop
  endfacet
  facet normal -0.707107 0 0.707107
    outer loop
      vertex 60 10 5
      vertex 60 0 5
      vertex 65 5 10
    endloop
  endfacet
  facet normal 0.707107 0 0.707107
    outer loop
      vertex 70 20 5
      vertex 65 15 10
      vertex 70 10 5
    endloop
  endfacet
  facet normal 0 -0.707107 0.707107
    outer loop
      vertex 65 15 10
      vertex 60 10 5
      vertex 70 10 5
    endloop
  endfacet
  facet normal 0 0.707107 0.707107
    outer loop
      vertex 70 20 5
      vertex 60 20 5
      vertex 65 15 10
    endloop
  endfacet
  facet normal -0.707107 0 0.707107
    outer loop
      vertex 60 20 5
      vertex 60 10 5
      vertex 65 15 10
    endloop
  endfacet
  facet normal 0.707107 0 0.707107
    outer loop
      vertex 70 30 5
      vertex 65 25 10
      vertex 70 20 5
    endloop
  endfacet
  facet normal 0 -0.707107 0.707107
    outer loop
      vertex 65 25 10
      vertex 60 20 5
      vertex 70 20 5
    endloop
  endfacet
  facet normal 0 0.707107 0.707107
    outer loop
      vertex 70 30 5
      vertex 60 30 5
      vertex 65 25 10
    endloop
  endfacet
  facet normal -0.707107 0 0.707107
    outer loop
      vertex 60 30 5
      vertex 60 20 5
      vertex 65 25 10
    endloop
  endfacet
  facet normal 0.707107 0 0.707107
    outer loop
      vertex 70 40 5
      vertex 65 35 10
      vertex 70 30 5
    endloop
  endfacet
  facet normal 0 -0.707107 0.707107
    outer loop
      vertex 65 35 10
      vertex 60 30 5
      vertex 70 30 5
    endloop
  endfacet
  facet normal 0 0.707107 0.707107
    outer loop
      vertex 70 40 5
      vertex 60 40 5
      vertex 65 35 10
    endloop
  endfacet
  facet normal -0.707107 0 0.707107
    outer loop
      vertex 60 40 5
      vertex 60 30 5
      vertex 65 35 10
    endloop
  endfacet
  facet normal 0.707107 0 0.707107
    outer loop
      vertex 70 50 5
      vertex 65 45 10
      vertex 70 40 5
    endloop
  endfacet
  facet normal 0 -0.707107 0.707107
    outer loop
      vertex 65 45 10
      vertex 60 40 5
      vertex 70 40 5
    endloop
  endfacet
  facet normal 0 0.707107 0.707107
    outer loop
      vertex 70 50 5
      vertex 60 50 5
      vertex 65 45 10
    endloop
  endfacet
  facet normal -0.707107 0 0.707107
    outer loop
      vertex 60 50 5
      vertex 60 40 5
      vertex 65 45 10
    endloop
  endfacet
  facet normal 0.707107 0 0.707107
    outer loop
      vertex 70 60 5
      vertex 65 55 10
      vertex 70 50 5
    endloop
  endfacet
  facet normal 0 -0.707107 0.707107
    outer loop
      vertex 65 55 10
      vertex 60 50 5
      vertex 70 50 5
    endloop
  endfacet
  facet normal 0 0.707107 0.707107
    outer loop
      vertex 70 60 5
      vertex 60 60 5
      vertex 65 55 10
    endloop
  endfacet
  facet normal -0.707107 0 0.707107
    outer loop
      vertex 60 60 5
      vertex 60 50 5
      vertex 65 55 10
    endloop
  endfacet
  facet normal 0.707107 0 0.707107
    outer loop
      vertex 70 70 5
      vertex 65 65 10
      vertex 70 60 5
    endloop
  endfacet
  facet normal 0 -0.707107 0.707107
    outer loop
      vertex 65 65 10
      vertex 60 60 5
      vertex 70 60 5
    endloop
  endfacet
  facet normal 0 0.707107 0.707107
    outer loop
      vertex 70 70 5
      vertex 60 70 5
      vertex 65 65 10
    endloop
  endfacet
  facet normal -0.707107 0 0.707107
    outer loop
      vertex 60 70 5
      vertex 60 60 5
      vertex 65 65 10
    endloop
  endfacet
  facet normal 0.707107 0 0.707107
    outer loop
      vertex 70 80 5
      vertex 65 75 10
      vertex 70 70 5
    endloop
  endfacet
  facet normal 0 -0.707107 0.707107
    outer loop
      vertex 65 75 10
      vertex 60 70 5
      vertex 70 70 5
    endloop
  endfacet
  facet normal 0 0.707107 0.707107
    outer loop
      vertex 70 80 5
      vertex 60 80 5
      vertex 65 75 10
    endloop
  endfacet
  facet normal -0.707107 0 0.707107
    outer loop
      vertex 60 80 5
      vertex 60 70 5
      vertex 65 75 10
    endloop
  endfacet
  facet normal 0.707107 0 0.707107
    outer loop
      vertex 70 90 5
      vertex 65 85 10
      vertex 70 80 5
    endloop
  endfacet
  facet normal 0 -0.707107 0.707107
    outer loop
      vertex 65 85 10
      vertex 60 80 5
      vertex 70 80 5
    endloop
  endfacet
  facet normal 0 0.707107 0.707107
    outer loop
      vertex 70 90 5
      vertex 60 90 5
      vertex 65 85 10
    endloop
  endfacet
  facet normal -0.707107 0 0.707107
    outer loop
      vertex 60 90 5
      vertex 60 80 5
      vertex 65 85 10
    endloop
  endfacet
  facet normal 0.707107 0 0.707107
    outer loop
      vertex 70 100 5
      vertex 65 95 10
      vertex 70 90 5
    endloop
  endfacet
  facet normal 0 -0.707107 0.707107
    outer loop
      vertex 65 95 10
      vertex 60 90 5
      vertex 70 90 5
    endloop
  endfacet
  facet normal 0 0.707107 0.707107
    outer loop
      vertex 70 100 5
      vertex 60 100 5
      vertex 65 95 10
    endloop
  endfacet
  facet normal -0.707107 0 0.707107
    outer loop
      vertex 60 100 5
      vertex 60 90 5
      vertex 65 95 10
    endloop
  endfacet
  facet normal 0.707107 0 0.707107
    outer loop
      vertex 80 10 5
      vertex 75 5 10
      vertex 80 0 5
    endloop
  endfacet
  facet normal 0 -0.707107 0.707107
    outer loop
      vertex 75 5 10
      vertex 70 0 5
      vertex 80 0 5
    endloop
  endfacet
  facet normal 0 0.707107 0.707107
    outer loop
      vertex 80 10 5
      vertex 70 10 5
      vertex 75 5 10
    endloop
  endfacet
  facet normal -0.707107 0 0.707107
    outer loop
      vertex 70 10 5
      vertex 70 0 5
      vertex 75 5 10
    endloop
  endfacet
  facet normal 0.707107 0 0.707107
    outer loop
      vertex 80 20 5
      vertex 75 15 10
      vertex 80 10 5
    endloop
  endfacet
  facet normal 0 -0.707107 0.707107
    outer loop
      vertex 75 15 10
      vertex 70 10 5
      vertex 80 10 5
    endloop
  endfacet
  facet normal 0 0.707107 0.707107
    outer loop
      vertex 80 20 5
      vertex 70 20 5
      vertex 75 15 10
    endloop
  endfacet
  facet normal -0.707107 0 0.707107
    outer loop
      vertex 70 20 5
      vertex 70 10 5
      vertex 75 15 10
    endloop
  endfacet
  facet normal 0.707107 0 0.707107
    outer loop
      vertex 80 30 5
      vertex 75 25 10
      vertex 80 20 5
    endloop
  endfacet
  facet normal 0 -0.707107 0.707107
    outer loop
      vertex 75 25 10
      vertex 70 20 5
      vertex 80 20 5
    endloop
  endfacet
  facet normal 0 0.707107 0.707107
    outer loop
      vertex 80 30 5
      vertex 70 30 5
      vertex 75 25 10
    endloop
  endfacet
  facet normal -0.707107 0 0.707107
    outer loop
      vertex 70 30 5
      vertex 70 20 5
      vertex 75 25 10
    endloop
  endfacet
  facet normal 0.707107 0 0.707107
    outer loop
      vertex 80 40 5
      vertex 75 35 10
      vertex 80 30 5
    endloop
  endfacet
  facet normal 0 -0.707107 0.707107
    outer loop
      vertex 75 35 10
      vertex 70 30 5
      vertex 80 30 5
    endloop
  endfacet
  facet normal 0 0.707107 0.707107
    outer loop
      vertex 80 40 5
      vertex 70 40 5
      vertex 75 35 10
    endloop
  endfacet
  facet normal -0.707107 0 0.707107
    outer loop
      vertex 70 40 5
      vertex 70 30 5
      vertex 75 35 10
    endloop
  endfacet
  facet normal 0.707107 0 0.707107
    outer loop
      vertex 80 50 5
      vertex 75 45 10
      vertex 80 40 5
    endloop
  endfacet
  facet normal 0 -0.707107 0.707107
    outer loop
      vertex 75 45 10
      vertex 70 40 5
      vertex 80 40 5
    endloop
  endfacet
  facet normal 0 0.707107 0.707107
    outer loop
      vertex 80 50 5
      vertex 70 50 5
      vertex 75 45 10
    endloop
  endfacet
  facet normal -0.707107 0 0.707107
    outer loop
      vertex 70 50 5
      vertex 70 40 5
      vertex 75 45 10
    endloop
  endfacet
  facet normal 0.707107 0 0.707107
    outer loop
      vertex 80 60 5
      vertex 75 55 10
      vertex 80 50 5
    endloop
  endfacet
  facet normal 0 -0.707107 0.707107
    outer loop
      vertex 75 55 10
      vertex 70 50 5
      vertex 80 50 5
    endloop
  endfacet
  facet normal 0 0.707107 0.707107
    outer loop
      vertex 80 60 5
      vertex 70 60 5
      vertex 75 55 10
    endloop
  endfacet
  facet normal -0.707107 0 0.707107
    outer loop
      vertex 70 60 5
      vertex 70 50 5
      vertex 75 55 10
    endloop
  endfacet
  facet normal 0.707107 0 0.707107
    outer loop
      vertex 80 70 5
      vertex 75 65 10
      vertex 80 60 5
    endloop
  endfacet
  facet normal 0 -0.707107 0.707107
    outer loop
      vertex 75 65 10
      vertex 70 60 5
      vertex 80 60 5
    endloop
  endfacet
  facet normal 0 0.707107 0.707107
    outer loop
      vertex 80 70 5
      vertex 70 70 5
      vertex 75 65 10
    endloop
  endfacet
  facet normal -0.707107 0 0.707107
    outer loop
      vertex 70 70 5
      vertex 70 60 5
      vertex 75 65 10
    endloop
  endfacet
  facet normal 0.707107 0 0.707107
    outer loop
      vertex 80 80 5
      vertex 75 75 10
      vertex 80 70 5
    endloop
  endfacet
  facet normal 0 -0.707107 0.707107
    outer loop
      vertex 75 75 10
      vertex 70 70 5
      vertex 80 70 5
    endloop
  endfacet
  facet normal 0 0.707107 0.707107
    outer loop
      vertex 80 80 5
      vertex 70 80 5
      vertex 75 75 10
    endloop
  endfacet
  facet normal -0.707107 0 0.707107
    outer loop
      vertex 70 80 5
      vertex 70 70 5
      vertex 75 75 10
    endloop
  endfacet
  facet normal 0.707107 0 0.707107
    outer loop
      vertex 80 90 5
      vertex 75 85 10
      vertex 80 80 5
    endloop
  endfacet
  facet normal 0 -0.707107 0.707107
    outer loop
      vertex 75 85 10
      vertex 70 80 5
      vertex 80 80 5
    endloop
  endfacet
  facet normal 0 0.707107 0.707107
    outer loop
      vertex 80 90 5
      vertex 70 90 5
      vertex 75 85 10
    endloop
  endfacet
  facet normal -0.707107 0 0.707107
    outer loop
      vertex 70 90 5
      vertex 70 80 5
      vertex 75 85 10
    endloop
  endfacet
  facet normal 0.707107 0 0.707107
    outer loop
      vertex 80 100 5
      vertex 75 95 10
      vertex 80 90 5
    endloop
  endfacet
  facet normal 0 -0.707107 0.707107
    outer loop
      vertex 75 95 10
      vertex 70 90 5
      vertex 80 90 5
    endloop
  endfacet
  facet normal 0 0.707107 0.707107
    outer loop
      vertex 80 100 5
      vertex 70 100 5
      vertex 75 95 10
    endloop
  endfacet
  facet normal -0.707107 0 0.707107
    outer loop
      vertex 70 100 5
      vertex 70 90 5
      vertex 75 95 10
    endloop
  endfacet
  facet normal 0.707107 0 0.707107
    outer loop
      vertex 90 10 5
      vertex 85 5 10
      vertex 90 0 5
    endloop
  endfacet
  facet normal 0 -0.707107 0.707107
    outer loop
      vertex 85 5 10
      vertex 80 0 5
      vertex 90 0 5
    endloop
  endfacet
  facet normal 0 0.707107 0.707107
    outer loop
      vertex 90 10 5
      vertex 80 10 5
      vertex 85 5 10
    endloop
  endfacet
  facet normal -0.707107 0 0.707107
    outer loop
      vertex 80 10 5
      vertex 80 0 5
      vertex 85 5 10
    endloop
  endfacet
  facet normal 0.707107 0 0.707107
    outer loop
      vertex 90 20 5
      vertex 85 15 10
      vertex 90 10 5
    endloop
  endfacet
  facet normal 0 -0.707107 0.707107
    outer loop
      vertex 85 15 10
      vertex 80 10 5
      vertex 90 10 5
    endloop
  endfacet
  facet normal 0 0.707107 0.707107
    outer loop
      vertex 90 20 5
      vertex 80 20 5
      vertex 85 15 10
    endloop
  endfacet
  facet normal -0.707107 0 0.707107
    outer loop
      vertex 80 20 5
      vertex 80 10 5
      vertex 85 15 10
    endloop
  endfacet
  facet normal 0.707107 0 0.707107
    outer loop
      vertex 90 30 5
      vertex 85 25 10
      vertex 90 20 5
    endloop
  endfacet
  facet normal 0 -0.707107 0.707107
    outer loop
      vertex 85 25 10
      vertex 80 20 5
      vertex 90 20 5
    endloop
  endfacet
  facet normal 0 0.707107 0.707107
    outer loop
      vertex 90 30 5
      vertex 80 30 5
      vertex 85 25 10
    endloop
  endfacet
  facet normal -0.707107 0 0.707107
    outer loop
      vertex 80 30 5
      vertex 80 20 5
      vertex 85 25 10
    endloop
  endfacet
  facet normal 0.707107 0 0.707107
    outer loop
      vertex 90 40 5
      vertex 85 35 10
      vertex 90 30 5
    endloop
  endfacet
  facet normal 0 -0.707107 0.707107
    outer loop
      vertex 85 35 10
      vertex 80 30 5
      vertex 90 30 5
    endloop
  endfacet
  facet normal 0 0.707107 0.707107
    outer loop
      vertex 90 40 5
      vertex 80 40 5
      vertex 85 35 10
    endloop
  endfacet
  facet normal -0.707107 0 0.707107
    outer loop
      vertex 80 40 5
      vertex 80 30 5
      vertex 85 35 10
    endloop
  endfacet
  facet normal 0.707107 0 0.707107
    outer loop
      vertex 90 50 5
      vertex 85 45 10
      vertex 90 40 5
    endloop
  endfacet
  facet normal 0 -0.707107 0.707107
    outer loop
      vertex 85 45 10
      vertex 80 40 5
      vertex 90 40 5
    endloop
  endfacet
  facet normal 0 0.707107 0.707107
    outer loop
      vertex 90 50 5
      vertex 80 50 5
      vertex 85 45 10
    endloop
  endfacet
  facet normal -0.707107 0 0.707107
    outer loop
      vertex 80 50 5
      vertex 80 40 5
      vertex 85 45 10
    endloop
  endfacet
  facet normal 0.707107 0 0.707107
    outer loop
      vertex 90 60 5
      vertex 85 55 10
      vertex 90 50 5
    endloop
  endfacet
  facet normal 0 -0.707107 0.707107
    outer loop
      vertex 85 55 10
      vertex 80 50 5
      vertex 90 50 5
    endloop
  endfacet
  facet normal 0 0.707107 0.707107
    outer loop
      vertex 90 60 5
      vertex 80 60 5
      vertex 85 55 10
    endloop
  endfacet
  facet normal -0.707107 0 0.707107
    outer loop
      vertex 80 60 5
      vertex 80 50 5
      vertex 85 55 10
    endloop
  endfacet
  facet normal 0.707107 0 0.707107
    outer loop
      vertex 90 70 5
      vertex 85 65 10
      vertex 90 60 5
    endloop
  endfacet
  facet normal 0 -0.707107 0.707107
    outer loop
      vertex 85 65 10
      vertex 80 60 5
      vertex 90 60 5
    endloop
  endfacet
  facet normal 0 0.707107 0.707107
    outer loop
      vertex 90 70 5
      vertex 80 70 5
      vertex 85 65 10
    endloop
  endfacet
  facet normal -0.707107 0 0.707107
    outer loop
      vertex 80 70 5
      vertex 80 60 5
      vertex 85 65 10
    endloop
  endfacet
  facet normal 0.707107 0 0.707107
    outer loop
      vertex 90 80 5
      vertex 85 75 10
      vertex 90 70 5
    endloop
  endfacet
  facet normal 0 -0.707107 0.707107
    outer loop
      vertex 85 75 10
      vertex 80 70 5
      vertex 90 70 5
    endloop
  endfacet
  facet normal 0 0.707107 0.707107
    outer loop
      vertex 90 80 5
      vertex 80 80 5
      vertex 85 75 10
    endloop
  endfacet
  facet normal -0.707107 0 0.707107
    outer loop
      vertex 80 80 5
      vertex 80 70 5
      vertex 85 75 10
    endloop
  endfacet
  facet normal 0.707107 0 0.707107
    outer loop
      vertex 90 90 5
      vertex 85 85 10
      vertex 90 80 5
    endloop
  endfacet
  facet normal 0 -0.707107 0.707107
    outer loop
      vertex 85 85 10
      vertex 80 80 5
      vertex 90 80 5
    endloop
  endfacet
  facet normal 0 0.707107 0.707107
    outer loop
      vertex 90 90 5
      vertex 80 90 5
      vertex 85 85 10
    endloop
  endfacet
  facet normal -0.707107 0 0.707107
    outer loop
      vertex 80 90 5
      vertex 80 80 5
      vertex 85 85 10
    endloop
  endfacet
  facet normal 0.707107 0 0.707107
    outer loop
      vertex 90 100 5
      vertex 85 95 10
      vertex 90 90 5
    endloop
  endfacet
  facet normal 0 -0.707107 0.707107
    outer loop
      vertex 85 95 10
      vertex 80 90 5
      vertex 90 90 5
    endloop
  endfacet
  facet normal 0 0.707107 0.707107
    outer loop
      vertex 90 100 5
      vertex 80 100 5
      vertex 85 95 10
    endloop
  endfacet
  facet normal -0.707107 0 0.707107
    outer loop
      vertex 80 100 5
      vertex 80 90 5
      vertex 85 95 10
    endloop
  endfacet
  facet normal 0.707107 0 0.707107
    outer loop
      vertex 100 10 5
      vertex 95 5 10
      vertex 100 0 5
    endloop
  endfacet
  facet normal 0 -0.707107 0.707107
    outer loop
      vertex 95 5 10
      vertex 90 0 5
      vertex 100 0 5
    endloop
  endfacet
  facet normal 0 0.707107 0.707107
    outer loop
      vertex 100 10 5
      vertex 90 10 5
      vertex 95 5 10
    endloop
  endfacet
  facet normal -0.707107 0 0.707107
    outer loop
      vertex 90 10 5
      vertex 90 0 5
      vertex 95 5 10
    endloop
  endfacet
  facet normal 0.707107 0 0.707107
    outer loop
      vertex 100 20 5
      vertex 95 15 10
      vertex 100 10 5
    endloop
  endfacet
  facet normal 0 -0.707107 0.707107
    outer loop
      vertex 95 15 10
      vertex 90 10 5
      vertex 100 10 5
    endloop
  endfacet
  facet normal 0 0.707107 0.707107
    outer loop
      vertex 100 20 5
      vertex 90 20 5
      vertex 95 15 10
    endloop
  endfacet
  facet normal -0.707107 0 0.707107
    outer loop
      vertex 90 20 5
      vertex 90 10 5
      vertex 95 15 10
    endloop
  endfacet
  facet normal 0.707107 0 0.707107
    outer loop
      vertex 100 30 5
      vertex 95 25 10
      vertex 100 20 5
    endloop
  endfacet
  facet normal 0 -0.707107 0.707107
    outer loop
      vertex 95 25 10
      vertex 90 20 5
      vertex 100 20 5
    endloop
  endfacet
  facet normal 0 0.707107 0.707107
    outer loop
      vertex 100 30 5
      vertex 90 30 5
      vertex 95 25 10
    endloop
  endfacet
  facet normal -0.707107 0 0.707107
    outer loop
      vertex 90 30 5
      vertex 90 20 5
      vertex 95 25 10
    endloop
  endfacet
  facet normal 0.707107 0 0.707107
    outer loop
      vertex 100 40 5
      vertex 95 35 10
      vertex 100 30 5
    endloop
  endfacet
  facet normal 0 -0.707107 0.707107
    outer loop
      vertex 95 35 10
      vertex 90 30 5
      vertex 100 30 5
    endloop
  endfacet
  facet normal 0 0.707107 0.707107
    outer loop
      vertex 100 40 5
      vertex 90 40 5
      vertex 95 35 10
    endloop
  endfacet
  facet normal -0.707107 0 0.707107
    outer loop
      vertex 90 40 5
      vertex 90 30 5
      vertex 95 35 10
    endloop
  endfacet
  facet normal 0.707107 0 0.707107
    outer loop
      vertex 100 50 5
      vertex 95 45 10
      vertex 100 40 5
    endloop
  endfacet
  facet normal 0 -0.707107 0.707107
    outer loop
      vertex 95 45 10
      vertex 90 40 5
      vertex 100 40 5
    endloop
  endfacet
  facet normal 0 0.707107 0.707107
    outer loop
      vertex 100 50 5
      vertex 90 50 5
      vertex 95 45 10
    endloop
  endfacet
  facet normal -0.707107 0 0.707107
    outer loop
      vertex 90 50 5
      vertex 90 40 5
      vertex 95 45 10
    endloop
  endfacet
  facet normal 0.707107 0 0.707107
    outer loop
      vertex 100 60 5
      vertex 95 55 10
      vertex 100 50 5
    endloop
  endfacet
  facet normal 0 -0.707107 0.707107
    outer loop
      vertex 95 55 10
      vertex 90 50 5
      vertex 100 50 5
    endloop
  endfacet
  facet normal 0 0.707107 0.707107
    outer loop
      vertex 100 60 5
      vertex 90 60 5
      vertex 95 55 10
    endloop
  endfacet
  facet normal -0.707107 0 0.707107
    outer loop
      vertex 90 60 5
      vertex 90 50 5
      vertex 95 55 10
    endloop
  endfacet
  facet normal 0.707107 0 0.707107
    outer loop
      vertex 100 70 5
      vertex 95 65 10
      vertex 100 60 5
    endloop
  endfacet
  facet normal 0 -0.707107 0.707107
    outer loop
      vertex 95 65 10
      vertex 90 60 5
      vertex 100 60 5
    endloop
  endfacet
  facet normal 0 0.707107 0.707107
    outer loop
      vertex 100 70 5
      vertex 90 70 5
      vertex 95 65 10
    endloop
  endfacet
  facet normal -0.707107 0 0.707107
    outer loop
      vertex 90 70 5
      vertex 90 60 5
      vertex 95 65 10
    endloop
  endfacet
  facet normal 0.707107 0 0.707107
    outer loop
      vertex 100 80 5
      vertex 95 75 10
      vertex 100 70 5
    endloop
  endfacet
  facet normal 0 -0.707107 0.707107
    outer loop
      vertex 95 75 10
      vertex 90 70 5
      vertex 100 70 5
    endloop
  endfacet
  facet normal 0 0.707107 0.707107
    outer loop
      vertex 100 80 5
      vertex 90 80 5
      vertex 95 75 10
    endloop
  endfacet
  facet normal -0.707107 0 0.707107
    outer loop
      vertex 90 80 5
      vertex 90 70 5
      vertex 95 75 10
    endloop
  endfacet
  facet normal 0.707107 0 0.707107
    outer loop
      vertex 100 90 5
      vertex 95 85 10
      vertex 100 80 5
    endloop
  endfacet
  facet normal 0 -0.707107 0.707107
    outer loop
      vertex 95 85 10
      vertex 90 80 5
      vertex 100 80 5
    endloop
  endfacet
  facet normal 0 0.707107 0.707107
    outer loop
      vertex 100 90 5
      vertex 90 90 5
      vertex 95 85 10
    endloop
  endfacet
  facet normal -0.707107 0 0.707107
    outer loop
      vertex 90 90 5
      vertex 90 80 5
      vertex 95 85 10
    endloop
  endfacet
  facet normal 0.707107 0 0.707107
    outer loop
      vertex 100 100 5
      vertex 95 95 10
      vertex 100 90 5
    endloop
  endfacet
  facet normal 0 -0.707107 0.707107
    outer loop
      vertex 95 95 10
      vertex 90 90 5
      vertex 100 90 5
    endloop
  endfacet
  facet normal 0 0.707107 0.707107
    outer loop
      vertex 100 100 5
      vertex 90 100 5
      vertex 95 95 10
    endloop
  endfacet
  facet normal -0.707107 0 0.707107
    outer loop
      vertex 90 100 5
      vertex 90 90 5
      vertex 95 95 10
    endloop
  endfacet
  facet normal -1 0 0
    outer loop
      vertex 0 100 0
      vertex 0 90 5
      vertex 0 100 5
    endloop
  endfacet
  facet normal -1 0 0
    outer loop
      vertex 0 100 0
      vertex 0 80 5
      vertex 0 90 5
    endloop
  endfacet
  facet normal -1 0 0
    outer loop
      vertex 0 100 0
      vertex 0 70 5
      vertex 0 80 5
    endloop
  endfacet
  facet normal -1 0 0
    outer loop
      vertex 0 100 0
      vertex 0 60 5
      vertex 0 70 5
    endloop
  endfacet
  facet normal -1 0 0
    outer loop
      vertex 0 100 0
      vertex 0 50 5
      vertex 0 60 5
    endloop
  endfacet
  facet normal -1 0 0
    outer loop
      vertex 0 0 0
      vertex 0 50 5
      vertex 0 100 0
    endloop
  endfacet
  facet normal -1 -0 0
    outer loop
      vertex 0 50 5
      vertex 0 0 0
      vertex 0 40 5
    endloop
  endfacet
  facet normal -1 -0 0
    outer loop
      vertex 0 40 5
      vertex 0 0 0
      vertex 0 30 5
    endloop
  endfacet
  facet normal -1 -0 0
    outer loop
      vertex 0 30 5
      vertex 0 0 0
      vertex 0 20 5
    endloop
  endfacet
  facet normal -1 -0 0
    outer loop
      vertex 0 20 5
      vertex 0 0 0
      vertex 0 10 5
    endloop
  endfacet
  facet normal -1 -0 0
    outer loop
      vertex 0 10 5
      vertex 0 0 0
      vertex 0 0 5
    endloop
  endfacet
  facet normal 1 -0 0
    outer loop
      vertex 100 90 5
      vertex 100 100 0
      vertex 100 100 5
    endloop
  endfacet
  facet normal 1 -0 0
    outer loop
      vertex 100 80 5
      vertex 100 100 0
      vertex 100 90 5
    endloop
  endfacet
  facet normal 1 -0 0
    outer loop
      vertex 100 70 5
      vertex 100 100 0
      vertex 100 80 5
    endloop
  endfacet
  facet normal 1 -0 0
    outer loop
      vertex 100 60 5
      vertex 100 100 0
      vertex 100 70 5
    endloop
  endfacet
  facet normal 1 -0 0
    outer loop
      vertex 100 50 5
      vertex 100 100 0
      vertex 100 60 5
    endloop
  endfacet
  facet normal 1 0 0
    outer loop
      vertex 100 0 0
      vertex 100 50 5
      vertex 100 40 5
    endloop
  endfacet
  facet normal 1 0 0
    outer loop
      vertex 100 0 0
      vertex 100 40 5
      vertex 100 30 5
    endloop
  endfacet
  facet normal 1 0 0
    outer loop
      vertex 100 0 0
      vertex 100 30 5
      vertex 100 20 5
    endloop
  endfacet
  facet normal 1 0 0
    outer loop
      vertex 100 0 0
      vertex 100 20 5
      vertex 100 10 5
    endloop
  endfacet
  facet normal 1 0 0
    outer loop
      vertex 100 0 0
      vertex 100 10 5
      vertex 100 0 5
    endloop
  endfacet
  facet normal 1 0 0
    outer loop
      vertex 100 50 5
      vertex 100 0 0
      vertex 100 100 0
    endloop
  endfacet
  facet normal 0 0 -1
    outer loop
      vertex 0 0 0
      vertex 100 100 0
      vertex 100 0 0
    endloop
  endfacet
  facet normal -0 0 -1
    outer loop
      vertex 100 100 0
      vertex 0 0 0
      vertex 0 100 0
    endloop
  endfacet
  facet normal 0 -1 0
    outer loop
      vertex 0 0 0
      vertex 10 0 5
      vertex 0 0 5
    endloop
  endfacet
  facet normal 0 -1 -0
    outer loop
      vertex 10 0 5
      vertex 0 0 0
      vertex 20 0 5
    endloop
  endfacet
  facet normal 0 -1 -0
    outer loop
      vertex 20 0 5
      vertex 0 0 0
      vertex 30 0 5
    endloop
  endfacet
  facet normal 0 -1 -0
    outer loop
      vertex 30 0 5
      vertex 0 0 0
      vertex 40 0 5
    endloop
  endfacet
  facet normal 0 -1 -0
    outer loop
      vertex 40 0 5
      vertex 0 0 0
      vertex 50 0 5
    endloop
  endfacet
  facet normal 0 -1 0
    outer loop
      vertex 100 0 0
      vertex 50 0 5
      vertex 0 0 0
    endloop
  endfacet
  facet normal 0 -1 0
    outer loop
      vertex 50 0 5
      vertex 100 0 0
      vertex 60 0 5
    endloop
  endfacet
  facet normal 0 -1 0
    outer loop
      vertex 60 0 5
      vertex 100 0 0
      vertex 70 0 5
    endloop
  endfacet
  facet normal 0 -1 0
    outer loop
      vertex 70 0 5
      vertex 100 0 0
      vertex 80 0 5
    endloop
  endfacet
  facet normal 0 -1 0
    outer loop
      vertex 80 0 5
      vertex 100 0 0
      vertex 90 0 5
    endloop
  endfacet
  facet normal 0 -1 0
    outer loop
      vertex 90 0 5
      vertex 100 0 0
      vertex 100 0 5
    endloop
  endfacet
  facet normal 0 1 -0
    outer loop
      vertex 100 100 0
      vertex 90 100 5
      vertex 100 100 5
    endloop
  endfacet
  facet normal 0 1 0
    outer loop
      vertex 90 100 5
      vertex 100 100 0
      vertex 80 100 5
    endloop
  endfacet
  facet normal 0 1 0
    outer loop
      vertex 80 100 5
      vertex 100 100 0
      vertex 70 100 5
    endloop
  endfacet
  facet normal 0 1 0
    outer loop
      vertex 70 100 5
      vertex 100 100 0
      vertex 60 100 5
    endloop
  endfacet
  facet normal 0 1 0
    outer loop
      vertex 60 100 5
      vertex 100 100 0
      vertex 50 100 5
    endloop
  endfacet
  facet normal 0 1 0
    outer loop
      vertex 0 100 0
      vertex 50 100 5
      vertex 100 100 0
    endloop
  endfacet
  facet normal 0 1 0
    outer loop
      vertex 50 100 5
      vertex 0 100 0
      vertex 40 100 5
    endloop
  endfacet
  facet normal 0 1 0
    outer loop
      vertex 40 100 5
      vertex 0 100 0
      vertex 30 100 5
    endloop
  endfacet
  facet normal 0 1 0
    outer loop
      vertex 30 100 5
      vertex 0 100 0
      vertex 20 100 5
    endloop
  endfacet
  facet normal 0 1 0
    outer loop
      vertex 20 100 5
      vertex 0 100 0
      vertex 10 100 5
    endloop
  endfacet
  facet normal 0 1 0
    outer loop
      vertex 10 100 5
      vertex 0 100 0
      vertex 0 100 5
    endloop
  endfacet
endsolid OpenSCAD_Model
