solid OpenSCAD_Model
  facet normal 0.707107 0.707107 0
    outer loop
      vertex 44.4523 39.9621 38.1
      vertex 39.9621 44.4523 -38.1
      vertex 39.9621 44.4523 38.1
    endloop
  endfacet
  facet normal 0.707107 0.707107 0
    outer loop
      vertex 39.9621 44.4523 -38.1
      vertex 44.4523 39.9621 38.1
      vertex 44.4523 39.9621 -38.1
    endloop
  endfacet
  facet normal 0 0 1
    outer loop
      vertex 39.9621 44.4523 38.1
      vertex 4.49013 0 38.1
      vertex 44.4523 39.9621 38.1
    endloop
  endfacet
  facet normal 0 -0 1
    outer loop
      vertex 4.49013 0 38.1
      vertex 39.9621 44.4523 38.1
      vertex 0 4.49013 38.1
    endloop
  endfacet
  facet normal 0 0 1
    outer loop
      vertex 4.49013 0 38.1
      vertex 39.9621 -44.4523 38.1
      vertex 44.4523 -39.9621 38.1
    endloop
  endfacet
  facet normal 0 0 1
    outer loop
      vertex 0 -4.49013 38.1
      vertex 4.49013 0 38.1
      vertex 0 4.49013 38.1
    endloop
  endfacet
  facet normal 0 0 1
    outer loop
      vertex 4.49013 0 38.1
      vertex 0 -4.49013 38.1
      vertex 39.9621 -44.4523 38.1
    endloop
  endfacet
  facet normal 0 0 1
    outer loop
      vertex 0 4.49013 38.1
      vertex -4.49013 0 38.1
      vertex 0 -4.49013 38.1
    endloop
  endfacet
  facet normal 0 0 1
    outer loop
      vertex -39.9621 44.4523 38.1
      vertex -4.49013 0 38.1
      vertex 0 4.49013 38.1
    endloop
  endfacet
  facet normal 0 0 1
    outer loop
      vertex -4.49013 0 38.1
      vertex -39.9621 44.4523 38.1
      vertex -44.4523 39.9621 38.1
    endloop
  endfacet
  facet normal 0 0 1
    outer loop
      vertex -4.49013 0 38.1
      vertex -39.9621 -44.4523 38.1
      vertex 0 -4.49013 38.1
    endloop
  endfacet
  facet normal 0 -0 1
    outer loop
      vertex -39.9621 -44.4523 38.1
      vertex -4.49013 0 38.1
      vertex -44.4523 -39.9621 38.1
    endloop
  endfacet
  facet normal -0.707107 0.707106 0
    outer loop
      vertex 0 4.49013 -38.1
      vertex 39.9621 44.4523 38.1
      vertex 39.9621 44.4523 -38.1
    endloop
  endfacet
  facet normal -0.707107 0.707106 0
    outer loop
      vertex 39.9621 44.4523 38.1
      vertex 0 4.49013 -38.1
      vertex 0 4.49013 38.1
    endloop
  endfacet
  facet normal -0.707106 0.707107 0
    outer loop
      vertex -44.4523 -39.9621 -38.1
      vertex -4.49013 0 38.1
      vertex -4.49013 0 -38.1
    endloop
  endfacet
  facet normal -0.707106 0.707107 0
    outer loop
      vertex -4.49013 0 38.1
      vertex -44.4523 -39.9621 -38.1
      vertex -44.4523 -39.9621 38.1
    endloop
  endfacet
  facet normal -0.707107 -0.707107 0
    outer loop
      vertex -39.9621 -44.4523 -38.1
      vertex -44.4523 -39.9621 38.1
      vertex -44.4523 -39.9621 -38.1
    endloop
  endfacet
  facet normal -0.707107 -0.707107 0
    outer loop
      vertex -44.4523 -39.9621 38.1
      vertex -39.9621 -44.4523 -38.1
      vertex -39.9621 -44.4523 38.1
    endloop
  endfacet
  facet normal 0 0 -1
    outer loop
      vertex 39.9621 -44.4523 -38.1
      vertex 4.49013 0 -38.1
      vertex 44.4523 -39.9621 -38.1
    endloop
  endfacet
  facet normal 0 -0 -1
    outer loop
      vertex 4.49013 0 -38.1
      vertex 39.9621 -44.4523 -38.1
      vertex 0 -4.49013 -38.1
    endloop
  endfacet
  facet normal 0 0 -1
    outer loop
      vertex 4.49013 0 -38.1
      vertex 39.9621 44.4523 -38.1
      vertex 44.4523 39.9621 -38.1
    endloop
  endfacet
  facet normal 0 0 -1
    outer loop
      vertex 0 4.49013 -38.1
      vertex 4.49013 0 -38.1
      vertex 0 -4.49013 -38.1
    endloop
  endfacet
  facet normal 0 0 -1
    outer loop
      vertex 4.49013 0 -38.1
      vertex 0 4.49013 -38.1
      vertex 39.9621 44.4523 -38.1
    endloop
  endfacet
  facet normal 0 0 -1
    outer loop
      vertex 0 -4.49013 -38.1
      vertex -4.49013 0 -38.1
      vertex 0 4.49013 -38.1
    endloop
  endfacet
  facet normal 0 0 -1
    outer loop
      vertex -39.9621 -44.4523 -38.1
      vertex -4.49013 0 -38.1
      vertex 0 -4.49013 -38.1
    endloop
  endfacet
  facet normal 0 0 -1
    outer loop
      vertex -4.49013 0 -38.1
      vertex -39.9621 -44.4523 -38.1
      vertex -44.4523 -39.9621 -38.1
    endloop
  endfacet
  facet normal 0 0 -1
    outer loop
      vertex -4.49013 0 -38.1
      vertex -39.9621 44.4523 -38.1
      vertex 0 4.49013 -38.1
    endloop
  endfacet
  facet normal 0 -0 -1
    outer loop
      vertex -39.9621 44.4523 -38.1
      vertex -4.49013 0 -38.1
      vertex -44.4523 39.9621 -38.1
    endloop
  endfacet
  facet normal 0.707106 -0.707107 0
    outer loop
      vertex 4.49013 0 38.1
      vertex 44.4523 39.9621 -38.1
      vertex 44.4523 39.9621 38.1
    endloop
  endfacet
  facet normal 0.707106 -0.707107 0
    outer loop
      vertex 44.4523 39.9621 -38.1
      vertex 4.49013 0 38.1
      vertex 4.49013 0 -38.1
    endloop
  endfacet
  facet normal 0.707107 -0.707106 0
    outer loop
      vertex -39.9621 -44.4523 38.1
      vertex 0 -4.49013 -38.1
      vertex 0 -4.49013 38.1
    endloop
  endfacet
  facet normal 0.707107 -0.707106 0
    outer loop
      vertex 0 -4.49013 -38.1
      vertex -39.9621 -44.4523 38.1
      vertex -39.9621 -44.4523 -38.1
    endloop
  endfacet
  facet normal -0.707107 0.707107 0
    outer loop
      vertex -44.4523 39.9621 -38.1
      vertex -39.9621 44.4523 38.1
      vertex -39.9621 44.4523 -38.1
    endloop
  endfacet
  facet normal -0.707107 0.707107 0
    outer loop
      vertex -39.9621 44.4523 38.1
      vertex -44.4523 39.9621 -38.1
      vertex -44.4523 39.9621 38.1
    endloop
  endfacet
  facet normal 0.707107 0.707106 0
    outer loop
      vertex 0 4.49013 38.1
      vertex -39.9621 44.4523 -38.1
      vertex -39.9621 44.4523 38.1
    endloop
  endfacet
  facet normal 0.707107 0.707106 0
    outer loop
      vertex -39.9621 44.4523 -38.1
      vertex 0 4.49013 38.1
      vertex 0 4.49013 -38.1
    endloop
  endfacet
  facet normal 0.707106 0.707107 0
    outer loop
      vertex 44.4523 -39.9621 38.1
      vertex 4.49013 0 -38.1
      vertex 4.49013 0 38.1
    endloop
  endfacet
  facet normal 0.707106 0.707107 0
    outer loop
      vertex 4.49013 0 -38.1
      vertex 44.4523 -39.9621 38.1
      vertex 44.4523 -39.9621 -38.1
    endloop
  endfacet
  facet normal 0.707107 -0.707107 0
    outer loop
      vertex 39.9621 -44.4523 38.1
      vertex 44.4523 -39.9621 -38.1
      vertex 44.4523 -39.9621 38.1
    endloop
  endfacet
  facet normal 0.707107 -0.707107 0
    outer loop
      vertex 44.4523 -39.9621 -38.1
      vertex 39.9621 -44.4523 38.1
      vertex 39.9621 -44.4523 -38.1
    endloop
  endfacet
  facet normal -0.707106 -0.707107 0
    outer loop
      vertex -4.49013 0 -38.1
      vertex -44.4523 39.9621 38.1
      vertex -44.4523 39.9621 -38.1
    endloop
  endfacet
  facet normal -0.707106 -0.707107 0
    outer loop
      vertex -44.4523 39.9621 38.1
      vertex -4.49013 0 -38.1
      vertex -4.49013 0 38.1
    endloop
  endfacet
  facet normal -0.707107 -0.707106 0
    outer loop
      vertex 39.9621 -44.4523 -38.1
      vertex 0 -4.49013 38.1
      vertex 0 -4.49013 -38.1
    endloop
  endfacet
  facet normal -0.707107 -0.707106 0
    outer loop
      vertex 0 -4.49013 38.1
      vertex 39.9621 -44.4523 -38.1
      vertex 39.9621 -44.4523 38.1
    endloop
  endfacet
endsolid OpenSCAD_Model
