<?xml version="1.0" standalone="no"?>
<!DOCTYPE svg PUBLIC "-//W3C//DTD SVG 1.1//EN" "http://www.w3.org/Graphics/SVG/1.1/DTD/svg11.dtd">
<svg width="102mm" height="80mm" viewBox="-13 -24 102 80" xmlns="http://www.w3.org/2000/svg" version="1.1">
<title>OpenSCAD Model</title>
<path d="
M 85.7804,55.562 L 85.8358,55.5606 L 85.8912,55.5582 L 85.9465,55.5548 L 86.0017,55.5504 L 86.0569,55.5451
 L 86.1119,55.5388 L 86.1669,55.5316 L 86.2217,55.5234 L 86.2763,55.5143 L 86.3308,55.5042 L 86.3851,55.4931
 L 86.4392,55.4811 L 86.4931,55.4682 L 86.5467,55.4543 L 86.6001,55.4395 L 86.6533,55.4238 L 86.7061,55.4071
 L 86.7587,55.3895 L 86.8109,55.371 L 86.8628,55.3516 L 86.9144,55.3313 L 86.9656,55.3101 L 87.0164,55.288
 L 87.0668,55.265 L 87.1168,55.2412 L 87.1664,55.2164 L 87.2156,55.1909 L 87.2643,55.1644 L 87.3125,55.1371
 L 87.3602,55.109 L 87.4075,55.08 L 87.4542,55.0503 L 87.5004,55.0197 L 87.5461,54.9883 L 87.5912,54.9561
 L 87.6358,54.9232 L 87.6797,54.8894 L 87.7231,54.8549 L 87.7658,54.8197 L 87.808,54.7837 L 87.8495,54.747
 L 87.8903,54.7095 L 87.9305,54.6714 L 87.9701,54.6326 L 88.0089,54.593 L 88.047,54.5528 L 88.0845,54.512
 L 88.1212,54.4705 L 88.1572,54.4283 L 88.1924,54.3856 L 88.2269,54.3422 L 88.2607,54.2983 L 88.2936,54.2537
 L 88.3258,54.2086 L 88.3572,54.1629 L 88.3878,54.1167 L 88.4175,54.07 L 88.4465,54.0227 L 88.4746,53.975
 L 88.5019,53.9268 L 88.5283,53.8781 L 88.5539,53.8289 L 88.5787,53.7793 L 88.6025,53.7293 L 88.6255,53.6789
 L 88.6476,53.6281 L 88.6688,53.5769 L 88.6891,53.5253 L 88.7085,53.4734 L 88.727,53.4212 L 88.7446,53.3686
 L 88.7613,53.3158 L 88.777,53.2626 L 88.7918,53.2092 L 88.8057,53.1556 L 88.8186,53.1017 L 88.8306,53.0476
 L 88.8417,52.9933 L 88.8518,52.9388 L 88.8609,52.8842 L 88.8691,52.8294 L 88.8763,52.7744 L 88.8826,52.7194
 L 88.8879,52.6642 L 88.8923,52.609 L 88.8956,52.5537 L 88.8981,52.4983 L 88.8995,52.4429 L 88.9,52.3875
 L 88.9,33.3375 L 88.8995,33.2821 L 88.8981,33.2267 L 88.8956,33.1713 L 88.8923,33.116 L 88.8879,33.0608
 L 88.8826,33.0056 L 88.8763,32.9506 L 88.8691,32.8956 L 88.8609,32.8408 L 88.8518,32.7862 L 88.8417,32.7317
 L 88.8306,32.6774 L 88.8186,32.6233 L 88.8057,32.5694 L 88.7918,32.5158 L 88.777,32.4624 L 88.7613,32.4092
 L 88.7446,32.3564 L 88.727,32.3038 L 88.7085,32.2516 L 88.6891,32.1997 L 88.6688,32.1481 L 88.6476,32.0969
 L 88.6255,32.0461 L 88.6025,31.9957 L 88.5787,31.9457 L 88.5539,31.8961 L 88.5283,31.8469 L 88.5019,31.7982
 L 88.4746,31.75 L 88.4465,31.7023 L 88.4175,31.655 L 88.3878,31.6083 L 88.3572,31.5621 L 88.3258,31.5164
 L 88.2936,31.4713 L 88.2607,31.4267 L 88.2269,31.3828 L 88.1924,31.3394 L 88.1572,31.2967 L 88.1212,31.2545
 L 88.0845,31.213 L 88.047,31.1722 L 88.0089,31.132 L 87.9701,31.0924 L 87.9305,31.0536 L 87.8903,31.0155
 L 87.8495,30.978 L 87.808,30.9413 L 87.7658,30.9053 L 87.7231,30.8701 L 87.6797,30.8356 L 87.6358,30.8018
 L 87.5912,30.7689 L 87.5461,30.7367 L 87.5004,30.7053 L 87.4542,30.6747 L 87.4075,30.645 L 87.3602,30.616
 L 87.3125,30.5879 L 87.2643,30.5606 L 87.2156,30.5341 L 87.1664,30.5086 L 87.1168,30.4838 L 87.0668,30.46
 L 87.0164,30.437 L 86.9656,30.4149 L 86.9144,30.3937 L 86.8628,30.3734 L 86.8109,30.354 L 86.7587,30.3355
 L 86.7061,30.3179 L 86.6533,30.3012 L 86.6001,30.2855 L 86.5467,30.2707 L 86.4931,30.2568 L 86.4392,30.2439
 L 86.3851,30.2319 L 86.3308,30.2208 L 86.2763,30.2107 L 86.2217,30.2016 L 86.1669,30.1934 L 86.1119,30.1862
 L 86.0569,30.1799 L 86.0017,30.1746 L 85.9465,30.1702 L 85.8912,30.1669 L 85.8358,30.1644 L 85.7804,30.163
 L 85.725,30.1625 L 15.8891,30.1625 L 15.8198,30.1619 L 15.7643,30.1604 L 15.7081,30.158 L 15.6537,30.1547
 L 15.598,30.1503 L 15.5435,30.145 L 15.4881,30.1387 L 15.4331,30.1315 L 15.3787,30.1234 L 15.3232,30.1141
 L 15.2688,30.104 L 15.2154,30.0931 L 15.161,30.0811 L 15.1062,30.0679 L 15.0534,30.0543 L 15,30.0394
 L 14.9468,30.0237 L 14.8942,30.0071 L 14.8415,29.9895 L 14.7892,29.9709 L 14.7369,29.9514 L 14.686,29.9314
 L 14.6344,29.9099 L 14.5838,29.888 L 14.5331,29.8648 L 14.483,29.841 L 14.4333,29.8162 L 14.3851,29.7911
 L 14.3354,29.7641 L 14.2878,29.7372 L 14.2398,29.7089 L 14.1923,29.6798 L 14.1459,29.6502 L 14.0996,29.6196
 L 14.0542,29.5884 L 14.0086,29.5559 L 13.9644,29.5232 L 13.9201,29.4892 L 13.877,29.4548 L 13.8347,29.42
 L 13.7918,29.3834 L 13.7508,29.347 L 13.7094,29.3092 L 13.6696,29.2714 L 13.63,29.2325 L 13.5911,29.1929
 L 13.5533,29.1531 L 13.5155,29.1117 L 13.4791,29.0707 L 13.4425,29.0278 L 13.4077,28.9855 L 13.3733,28.9424
 L 13.3393,28.8981 L 13.3066,28.8539 L 13.2741,28.8083 L 13.2429,28.7629 L 13.2123,28.7166 L 13.1827,28.6702
 L 13.1536,28.6227 L 13.1253,28.5747 L 13.0984,28.5271 L 13.0714,28.4774 L 13.0463,28.4292 L 13.0215,28.3795
 L 12.9977,28.3294 L 12.9745,28.2787 L 12.9526,28.2281 L 12.9311,28.1765 L 12.9111,28.1256 L 12.8916,28.0733
 L 12.873,28.021 L 12.8554,27.9683 L 12.8388,27.9157 L 12.8231,27.8625 L 12.8082,27.8091 L 12.7946,27.7563
 L 12.7814,27.7015 L 12.7694,27.6471 L 12.7585,27.5937 L 12.7484,27.5393 L 12.7391,27.4838 L 12.731,27.4294
 L 12.7238,27.3744 L 12.7175,27.319 L 12.7122,27.2645 L 12.7078,27.2088 L 12.7045,27.1544 L 12.7021,27.0982
 L 12.7006,27.0427 L 12.7,26.9734 L 12.7,-20.6375 L 12.6995,-20.6929 L 12.6981,-20.7483 L 12.6956,-20.8037
 L 12.6923,-20.859 L 12.6879,-20.9142 L 12.6826,-20.9694 L 12.6763,-21.0244 L 12.6691,-21.0794 L 12.6609,-21.1342
 L 12.6518,-21.1888 L 12.6417,-21.2433 L 12.6306,-21.2976 L 12.6186,-21.3517 L 12.6057,-21.4056 L 12.5918,-21.4592
 L 12.577,-21.5126 L 12.5613,-21.5658 L 12.5446,-21.6186 L 12.527,-21.6712 L 12.5085,-21.7234 L 12.4891,-21.7753
 L 12.4688,-21.8269 L 12.4476,-21.8781 L 12.4255,-21.9289 L 12.4025,-21.9793 L 12.3787,-22.0293 L 12.3539,-22.0789
 L 12.3284,-22.1281 L 12.3019,-22.1768 L 12.2746,-22.225 L 12.2465,-22.2727 L 12.2175,-22.32 L 12.1878,-22.3667
 L 12.1572,-22.4129 L 12.1258,-22.4586 L 12.0936,-22.5037 L 12.0607,-22.5483 L 12.0269,-22.5922 L 11.9924,-22.6356
 L 11.9572,-22.6783 L 11.9212,-22.7205 L 11.8845,-22.762 L 11.847,-22.8028 L 11.8089,-22.843 L 11.7701,-22.8826
 L 11.7305,-22.9214 L 11.6903,-22.9595 L 11.6495,-22.997 L 11.608,-23.0337 L 11.5658,-23.0697 L 11.5231,-23.1049
 L 11.4797,-23.1394 L 11.4358,-23.1732 L 11.3912,-23.2061 L 11.3461,-23.2383 L 11.3004,-23.2697 L 11.2542,-23.3003
 L 11.2075,-23.33 L 11.1602,-23.359 L 11.1125,-23.3871 L 11.0643,-23.4144 L 11.0156,-23.4409 L 10.9664,-23.4664
 L 10.9168,-23.4912 L 10.8668,-23.515 L 10.8164,-23.538 L 10.7656,-23.5601 L 10.7144,-23.5813 L 10.6628,-23.6016
 L 10.6109,-23.621 L 10.5587,-23.6395 L 10.5061,-23.6571 L 10.4533,-23.6738 L 10.4001,-23.6895 L 10.3467,-23.7043
 L 10.2931,-23.7182 L 10.2392,-23.7311 L 10.1851,-23.7431 L 10.1308,-23.7542 L 10.0763,-23.7643 L 10.0217,-23.7734
 L 9.96687,-23.7816 L 9.91192,-23.7888 L 9.85687,-23.7951 L 9.80171,-23.8004 L 9.74647,-23.8048 L 9.69116,-23.8082
 L 9.6358,-23.8106 L 9.5804,-23.812 L 9.52499,-23.8125 L -9.525,-23.8125 L -9.5804,-23.812 L -9.63581,-23.8106
 L -9.69117,-23.8082 L -9.74648,-23.8048 L -9.80172,-23.8004 L -9.85688,-23.7951 L -9.91193,-23.7888 L -9.96688,-23.7816
 L -10.0217,-23.7734 L -10.0763,-23.7643 L -10.1308,-23.7542 L -10.1851,-23.7431 L -10.2392,-23.7311 L -10.2931,-23.7182
 L -10.3467,-23.7043 L -10.4001,-23.6895 L -10.4533,-23.6738 L -10.5061,-23.6571 L -10.5587,-23.6395 L -10.6109,-23.621
 L -10.6628,-23.6016 L -10.7144,-23.5813 L -10.7656,-23.5601 L -10.8164,-23.538 L -10.8668,-23.515 L -10.9168,-23.4912
 L -10.9664,-23.4664 L -11.0156,-23.4409 L -11.0643,-23.4144 L -11.1125,-23.3871 L -11.1602,-23.359 L -11.2075,-23.33
 L -11.2542,-23.3003 L -11.3004,-23.2697 L -11.3461,-23.2383 L -11.3912,-23.2061 L -11.4358,-23.1732 L -11.4797,-23.1394
 L -11.5231,-23.1049 L -11.5658,-23.0697 L -11.608,-23.0337 L -11.6495,-22.997 L -11.6903,-22.9595 L -11.7305,-22.9214
 L -11.7701,-22.8826 L -11.8089,-22.843 L -11.847,-22.8028 L -11.8845,-22.762 L -11.9212,-22.7205 L -11.9572,-22.6783
 L -11.9924,-22.6356 L -12.0269,-22.5922 L -12.0607,-22.5483 L -12.0936,-22.5037 L -12.1258,-22.4586 L -12.1572,-22.4129
 L -12.1878,-22.3667 L -12.2175,-22.32 L -12.2465,-22.2727 L -12.2746,-22.225 L -12.3019,-22.1768 L -12.3284,-22.1281
 L -12.3539,-22.0789 L -12.3787,-22.0293 L -12.4025,-21.9793 L -12.4255,-21.9289 L -12.4476,-21.8781 L -12.4688,-21.8269
 L -12.4891,-21.7753 L -12.5085,-21.7234 L -12.527,-21.6712 L -12.5446,-21.6186 L -12.5613,-21.5658 L -12.577,-21.5126
 L -12.5918,-21.4592 L -12.6057,-21.4056 L -12.6186,-21.3517 L -12.6306,-21.2976 L -12.6417,-21.2433 L -12.6518,-21.1888
 L -12.6609,-21.1342 L -12.6691,-21.0794 L -12.6763,-21.0244 L -12.6826,-20.9694 L -12.6879,-20.9142 L -12.6923,-20.859
 L -12.6957,-20.8037 L -12.6981,-20.7483 L -12.6995,-20.6929 L -12.7,-20.6375 L -12.7,52.3875 L -12.6995,52.4429
 L -12.6981,52.4983 L -12.6957,52.5537 L -12.6923,52.609 L -12.6879,52.6642 L -12.6826,52.7194 L -12.6763,52.7744
 L -12.6691,52.8294 L -12.6609,52.8842 L -12.6518,52.9388 L -12.6417,52.9933 L -12.6306,53.0476 L -12.6186,53.1017
 L -12.6057,53.1556 L -12.5918,53.2092 L -12.577,53.2626 L -12.5613,53.3158 L -12.5446,53.3686 L -12.527,53.4212
 L -12.5085,53.4734 L -12.4891,53.5253 L -12.4688,53.5769 L -12.4476,53.6281 L -12.4255,53.6789 L -12.4025,53.7293
 L -12.3787,53.7793 L -12.3539,53.8289 L -12.3284,53.8781 L -12.3019,53.9268 L -12.2746,53.975 L -12.2465,54.0227
 L -12.2175,54.07 L -12.1878,54.1167 L -12.1572,54.1629 L -12.1258,54.2086 L -12.0936,54.2537 L -12.0607,54.2983
 L -12.0269,54.3422 L -11.9924,54.3856 L -11.9572,54.4283 L -11.9212,54.4705 L -11.8845,54.512 L -11.847,54.5528
 L -11.8089,54.593 L -11.7701,54.6326 L -11.7305,54.6714 L -11.6903,54.7095 L -11.6495,54.747 L -11.608,54.7837
 L -11.5658,54.8197 L -11.5231,54.8549 L -11.4797,54.8894 L -11.4358,54.9232 L -11.3912,54.9561 L -11.3461,54.9883
 L -11.3004,55.0197 L -11.2542,55.0503 L -11.2075,55.08 L -11.1602,55.109 L -11.1125,55.1371 L -11.0643,55.1644
 L -11.0156,55.1909 L -10.9664,55.2164 L -10.9168,55.2412 L -10.8668,55.265 L -10.8164,55.288 L -10.7656,55.3101
 L -10.7144,55.3313 L -10.6628,55.3516 L -10.6109,55.371 L -10.5587,55.3895 L -10.5061,55.4071 L -10.4533,55.4238
 L -10.4001,55.4395 L -10.3467,55.4543 L -10.2931,55.4682 L -10.2392,55.4811 L -10.1851,55.4931 L -10.1308,55.5042
 L -10.0763,55.5143 L -10.0217,55.5234 L -9.96688,55.5316 L -9.91193,55.5388 L -9.85688,55.5451 L -9.80172,55.5504
 L -9.74648,55.5548 L -9.69117,55.5582 L -9.63581,55.5606 L -9.5804,55.562 L -9.525,55.5625 L 85.725,55.5625
 z
" stroke="black" fill="lightgray" stroke-width="0.5"/>
</svg>
