<?xml version="1.0" standalone="no"?>
<!DOCTYPE svg PUBLIC "-//W3C//DTD SVG 1.1//EN" "http://www.w3.org/Graphics/SVG/1.1/DTD/svg11.dtd">
<svg width="230mm" height="189mm" viewBox="-10 -98 230 189" xmlns="http://www.w3.org/2000/svg" version="1.1">
<title>OpenSCAD Model</title>
<path d="
M 216.749,90.487 L 216.805,90.4855 L 216.86,90.4831 L 216.915,90.4798 L 216.97,90.4754 L 217.026,90.4701
 L 217.081,90.4638 L 217.136,90.4566 L 217.19,90.4484 L 217.245,90.4393 L 217.3,90.4292 L 217.354,90.4181
 L 217.408,90.4061 L 217.462,90.3932 L 217.515,90.3793 L 217.569,90.3645 L 217.622,90.3488 L 217.675,90.3321
 L 217.727,90.3145 L 217.78,90.296 L 217.832,90.2766 L 217.883,90.2563 L 217.934,90.2351 L 217.985,90.213
 L 218.036,90.19 L 218.086,90.1662 L 218.135,90.1414 L 218.184,90.1158 L 218.233,90.0894 L 218.281,90.0621
 L 218.329,90.034 L 218.376,90.005 L 218.423,89.9753 L 218.469,89.9447 L 218.515,89.9133 L 218.56,89.8811
 L 218.604,89.8482 L 218.648,89.8144 L 218.692,89.7799 L 218.735,89.7447 L 218.777,89.7087 L 218.818,89.672
 L 218.859,89.6345 L 218.899,89.5964 L 218.939,89.5576 L 218.978,89.518 L 219.016,89.4778 L 219.053,89.437
 L 219.09,89.3955 L 219.126,89.3533 L 219.161,89.3106 L 219.196,89.2672 L 219.229,89.2233 L 219.262,89.1787
 L 219.295,89.1336 L 219.326,89.0879 L 219.357,89.0417 L 219.386,88.995 L 219.415,88.9477 L 219.443,88.9
 L 219.471,88.8518 L 219.497,88.8031 L 219.523,88.7539 L 219.547,88.7043 L 219.571,88.6543 L 219.594,88.6039
 L 219.616,88.5531 L 219.638,88.5019 L 219.658,88.4503 L 219.677,88.3984 L 219.696,88.3462 L 219.713,88.2936
 L 219.73,88.2408 L 219.746,88.1876 L 219.761,88.1342 L 219.774,88.0806 L 219.787,88.0267 L 219.799,87.9726
 L 219.81,87.9183 L 219.82,87.8638 L 219.83,87.8092 L 219.838,87.7544 L 219.845,87.6994 L 219.851,87.6444
 L 219.857,87.5892 L 219.861,87.534 L 219.864,87.4787 L 219.867,87.4233 L 219.868,87.3679 L 219.869,87.3125
 L 219.869,68.2625 L 219.868,68.2071 L 219.867,68.1517 L 219.864,68.0963 L 219.861,68.041 L 219.857,67.9858
 L 219.851,67.9306 L 219.845,67.8756 L 219.838,67.8206 L 219.83,67.7658 L 219.82,67.7112 L 219.81,67.6567
 L 219.799,67.6024 L 219.787,67.5483 L 219.774,67.4944 L 219.761,67.4408 L 219.746,67.3873 L 219.73,67.3342
 L 219.713,67.2814 L 219.696,67.2288 L 219.677,67.1766 L 219.658,67.1247 L 219.638,67.0731 L 219.616,67.0219
 L 219.594,66.9711 L 219.571,66.9207 L 219.547,66.8707 L 219.523,66.8211 L 219.497,66.7719 L 219.471,66.7232
 L 219.443,66.675 L 219.415,66.6273 L 219.386,66.58 L 219.357,66.5333 L 219.326,66.4871 L 219.295,66.4414
 L 219.262,66.3963 L 219.229,66.3517 L 219.196,66.3078 L 219.161,66.2644 L 219.126,66.2216 L 219.09,66.1795
 L 219.053,66.138 L 219.016,66.0972 L 218.978,66.057 L 218.939,66.0174 L 218.899,65.9786 L 218.859,65.9404
 L 218.818,65.903 L 218.777,65.8663 L 218.735,65.8303 L 218.692,65.7951 L 218.648,65.7606 L 218.604,65.7268
 L 218.56,65.6939 L 218.515,65.6617 L 218.469,65.6303 L 218.423,65.5997 L 218.376,65.5699 L 218.329,65.541
 L 218.281,65.5129 L 218.233,65.4856 L 218.184,65.4591 L 218.135,65.4335 L 218.086,65.4088 L 218.036,65.385
 L 217.985,65.362 L 217.934,65.3399 L 217.883,65.3187 L 217.832,65.2984 L 217.78,65.279 L 217.727,65.2605
 L 217.675,65.2429 L 217.622,65.2262 L 217.569,65.2105 L 217.515,65.1957 L 217.462,65.1818 L 217.408,65.1689
 L 217.354,65.1569 L 217.3,65.1458 L 217.245,65.1357 L 217.19,65.1266 L 217.136,65.1184 L 217.081,65.1112
 L 217.026,65.1049 L 216.97,65.0996 L 216.915,65.0952 L 216.86,65.0918 L 216.805,65.0894 L 216.749,65.088
 L 216.694,65.0875 L 146.858,65.0875 L 146.789,65.0869 L 146.733,65.0854 L 146.677,65.083 L 146.622,65.0797
 L 146.567,65.0753 L 146.512,65.07 L 146.457,65.0637 L 146.402,65.0565 L 146.347,65.0483 L 146.292,65.039
 L 146.238,65.029 L 146.184,65.0181 L 146.13,65.006 L 146.075,64.9929 L 146.022,64.9792 L 145.969,64.9644
 L 145.915,64.9487 L 145.863,64.9321 L 145.81,64.9144 L 145.758,64.8959 L 145.706,64.8764 L 145.655,64.8563
 L 145.603,64.8349 L 145.553,64.8129 L 145.502,64.7898 L 145.452,64.766 L 145.402,64.7411 L 145.354,64.7161
 L 145.304,64.6891 L 145.257,64.6622 L 145.209,64.6339 L 145.161,64.6048 L 145.115,64.5752 L 145.068,64.5445
 L 145.023,64.5134 L 144.977,64.4809 L 144.933,64.4482 L 144.889,64.4142 L 144.846,64.3798 L 144.803,64.345
 L 144.761,64.3084 L 144.719,64.272 L 144.678,64.2342 L 144.638,64.1964 L 144.599,64.1575 L 144.56,64.1178
 L 144.522,64.078 L 144.484,64.0367 L 144.448,63.9957 L 144.411,63.9528 L 144.376,63.9105 L 144.342,63.8673
 L 144.308,63.823 L 144.275,63.7789 L 144.243,63.7333 L 144.212,63.6879 L 144.181,63.6416 L 144.151,63.5952
 L 144.122,63.5477 L 144.094,63.4997 L 144.067,63.4521 L 144.04,63.4024 L 144.015,63.3542 L 143.99,63.3044
 L 143.966,63.2544 L 143.943,63.2037 L 143.921,63.1531 L 143.9,63.1014 L 143.88,63.0506 L 143.86,62.9983
 L 143.842,62.946 L 143.824,62.8933 L 143.808,62.8407 L 143.792,62.7875 L 143.777,62.734 L 143.763,62.6813
 L 143.75,62.6265 L 143.738,62.5721 L 143.727,62.5187 L 143.717,62.4643 L 143.708,62.4088 L 143.7,62.3544
 L 143.693,62.2994 L 143.686,62.244 L 143.681,62.1894 L 143.677,62.1338 L 143.673,62.0794 L 143.671,62.0232
 L 143.669,61.9677 L 143.669,61.8984 L 143.669,-20.6375 L 143.668,-20.6929 L 143.667,-20.7483 L 143.664,-20.8036
 L 143.661,-20.859 L 143.657,-20.9142 L 143.651,-20.9694 L 143.645,-21.0244 L 143.638,-21.0794 L 143.63,-21.1342
 L 143.62,-21.1888 L 143.61,-21.2433 L 143.599,-21.2976 L 143.587,-21.3517 L 143.574,-21.4056 L 143.561,-21.4592
 L 143.546,-21.5126 L 143.53,-21.5658 L 143.513,-21.6186 L 143.496,-21.6712 L 143.477,-21.7234 L 143.458,-21.7753
 L 143.438,-21.8269 L 143.416,-21.8781 L 143.394,-21.9289 L 143.371,-21.9793 L 143.347,-22.0293 L 143.323,-22.0789
 L 143.297,-22.1281 L 143.271,-22.1768 L 143.243,-22.225 L 143.215,-22.2727 L 143.186,-22.32 L 143.157,-22.3667
 L 143.126,-22.4129 L 143.095,-22.4586 L 143.062,-22.5037 L 143.029,-22.5482 L 142.996,-22.5922 L 142.961,-22.6356
 L 142.926,-22.6783 L 142.89,-22.7205 L 142.853,-22.762 L 142.816,-22.8028 L 142.778,-22.843 L 142.739,-22.8826
 L 142.699,-22.9214 L 142.659,-22.9595 L 142.618,-22.997 L 142.577,-23.0337 L 142.535,-23.0697 L 142.492,-23.1049
 L 142.448,-23.1394 L 142.404,-23.1732 L 142.36,-23.2061 L 142.315,-23.2383 L 142.269,-23.2697 L 142.223,-23.3003
 L 142.176,-23.33 L 142.129,-23.359 L 142.081,-23.3871 L 142.033,-23.4144 L 141.984,-23.4408 L 141.935,-23.4664
 L 141.886,-23.4911 L 141.836,-23.515 L 141.785,-23.538 L 141.734,-23.5601 L 141.683,-23.5813 L 141.632,-23.6016
 L 141.58,-23.621 L 141.527,-23.6395 L 141.475,-23.6571 L 141.422,-23.6738 L 141.369,-23.6895 L 141.315,-23.7043
 L 141.262,-23.7182 L 141.208,-23.7311 L 141.154,-23.7431 L 141.1,-23.7542 L 141.045,-23.7643 L 140.99,-23.7734
 L 140.936,-23.7816 L 140.881,-23.7888 L 140.826,-23.7951 L 140.77,-23.8004 L 140.715,-23.8047 L 140.66,-23.8081
 L 140.605,-23.8105 L 140.549,-23.812 L 140.494,-23.8125 L 132.159,-23.8125 L 132.159,-72.1958 L 139.046,-83.0588
 L 139.133,-83.2005 L 139.218,-83.3437 L 139.299,-83.4884 L 139.379,-83.6345 L 139.456,-83.782 L 139.53,-83.9308
 L 139.601,-84.0808 L 139.67,-84.2321 L 139.737,-84.3845 L 139.8,-84.5381 L 139.861,-84.6928 L 139.919,-84.8485
 L 139.975,-85.0052 L 140.028,-85.1629 L 140.078,-85.3214 L 140.125,-85.4808 L 140.169,-85.641 L 140.211,-85.8019
 L 140.25,-85.9636 L 140.286,-86.1259 L 140.319,-86.2888 L 140.349,-86.4522 L 140.376,-86.6162 L 140.401,-86.7806
 L 140.423,-86.9454 L 140.442,-87.1106 L 140.458,-87.2761 L 140.471,-87.4418 L 140.481,-87.6077 L 140.488,-87.7738
 L 140.492,-87.94 L 140.494,-88.1062 L 140.492,-88.2725 L 140.488,-88.4387 L 140.481,-88.6047 L 140.471,-88.7707
 L 140.458,-88.9364 L 140.442,-89.1019 L 140.423,-89.267 L 140.401,-89.4319 L 140.376,-89.5963 L 140.349,-89.7602
 L 140.319,-89.9237 L 140.286,-90.0866 L 140.25,-90.2489 L 140.211,-90.4106 L 140.169,-90.5715 L 140.125,-90.7317
 L 140.078,-90.8911 L 140.028,-91.0496 L 139.975,-91.2073 L 139.919,-91.364 L 139.861,-91.5197 L 139.8,-91.6744
 L 139.737,-91.828 L 139.67,-91.9804 L 139.601,-92.1317 L 139.53,-92.2817 L 139.456,-92.4305 L 139.379,-92.578
 L 139.299,-92.7241 L 139.218,-92.8687 L 139.133,-93.012 L 139.046,-93.1537 L 138.957,-93.2939 L 138.865,-93.4326
 L 138.771,-93.5696 L 138.675,-93.7049 L 138.576,-93.8385 L 138.475,-93.9704 L 138.371,-94.1005 L 138.265,-94.2288
 L 138.157,-94.3552 L 138.047,-94.4797 L 137.935,-94.6023 L 137.82,-94.7229 L 137.704,-94.8414 L 137.585,-94.9579
 L 137.465,-95.0724 L 137.342,-95.1847 L 137.218,-95.2948 L 137.091,-95.4028 L 136.963,-95.5086 L 136.833,-95.612
 L 136.701,-95.7132 L 136.567,-95.8121 L 136.432,-95.9087 L 136.295,-96.0028 L 136.156,-96.0946 L 136.016,-96.1839
 L 135.874,-96.2708 L 135.731,-96.3551 L 135.587,-96.437 L 135.44,-96.5163 L 135.293,-96.5931 L 135.144,-96.6673
 L 134.994,-96.7388 L 134.843,-96.8078 L 134.69,-96.8741 L 134.537,-96.9377 L 134.382,-96.9986 L 134.226,-97.0568
 L 134.07,-97.1123 L 133.912,-97.1651 L 133.754,-97.215 L 133.594,-97.2623 L 133.434,-97.3067 L 133.273,-97.3483
 L 133.111,-97.3871 L 132.949,-97.4231 L 132.786,-97.4562 L 132.623,-97.4865 L 132.459,-97.514 L 132.294,-97.5385
 L 132.13,-97.5602 L 131.964,-97.5791 L 131.799,-97.595 L 131.633,-97.608 L 131.467,-97.6182 L 131.301,-97.6254
 L 131.135,-97.6298 L 130.969,-97.6312 L 130.803,-97.6298 L 130.636,-97.6254 L 130.47,-97.6182 L 130.304,-97.608
 L 130.139,-97.595 L 129.973,-97.5791 L 129.808,-97.5602 L 129.643,-97.5385 L 129.479,-97.514 L 129.315,-97.4865
 L 129.151,-97.4562 L 128.988,-97.4231 L 128.826,-97.3871 L 128.664,-97.3483 L 128.503,-97.3067 L 128.343,-97.2623
 L 128.184,-97.215 L 128.025,-97.1651 L 127.868,-97.1123 L 127.711,-97.0568 L 127.555,-96.9986 L 127.401,-96.9377
 L 127.247,-96.8741 L 127.095,-96.8078 L 126.943,-96.7388 L 126.793,-96.6673 L 126.644,-96.5931 L 126.497,-96.5163
 L 126.351,-96.437 L 126.206,-96.3551 L 126.063,-96.2708 L 125.921,-96.1839 L 125.781,-96.0946 L 125.642,-96.0028
 L 125.505,-95.9087 L 125.37,-95.8121 L 125.236,-95.7132 L 125.105,-95.612 L 124.974,-95.5086 L 124.846,-95.4028
 L 124.72,-95.2948 L 124.595,-95.1847 L 124.473,-95.0724 L 124.352,-94.9579 L 109.236,-80.1687 L 21.7324,-80.1687
 L 6.61661,-94.9579 L 6.49603,-95.0724 L 6.37346,-95.1847 L 6.24895,-95.2948 L 6.12254,-95.4028 L 5.99426,-95.5086
 L 5.86417,-95.612 L 5.73228,-95.7132 L 5.59865,-95.8121 L 5.4633,-95.9087 L 5.32631,-96.0028 L 5.18768,-96.0946
 L 5.04747,-96.1839 L 4.90573,-96.2708 L 4.7625,-96.3551 L 4.6178,-96.437 L 4.47171,-96.5163 L 4.32425,-96.5931
 L 4.17548,-96.6673 L 4.02544,-96.7388 L 3.87416,-96.8078 L 3.72171,-96.8741 L 3.56812,-96.9377 L 3.41345,-96.9986
 L 3.25774,-97.0568 L 3.10103,-97.1123 L 2.94337,-97.1651 L 2.78484,-97.215 L 2.62544,-97.2623 L 2.46524,-97.3067
 L 2.30431,-97.3483 L 2.14265,-97.3871 L 1.98035,-97.4231 L 1.81744,-97.4562 L 1.65399,-97.4865 L 1.49004,-97.514
 L 1.32562,-97.5385 L 1.1608,-97.5602 L 0.995621,-97.5791 L 0.830154,-97.595 L 0.664429,-97.608 L 0.498489,-97.6182
 L 0.332413,-97.6254 L 0.166229,-97.6298 L 0,-97.6312 L -0.166229,-97.6298 L -0.332413,-97.6254 L -0.498489,-97.6182
 L -0.664429,-97.608 L -0.830154,-97.595 L -0.995621,-97.5791 L -1.1608,-97.5602 L -1.32562,-97.5385 L -1.49004,-97.514
 L -1.65399,-97.4865 L -1.81744,-97.4562 L -1.98035,-97.4231 L -2.14265,-97.3871 L -2.30431,-97.3483 L -2.46524,-97.3067
 L -2.62544,-97.2623 L -2.78484,-97.215 L -2.94337,-97.1651 L -3.10103,-97.1123 L -3.25774,-97.0568 L -3.41345,-96.9986
 L -3.56812,-96.9377 L -3.72171,-96.8741 L -3.87416,-96.8078 L -4.02544,-96.7388 L -4.17548,-96.6673 L -4.32425,-96.5931
 L -4.47171,-96.5163 L -4.6178,-96.437 L -4.7625,-96.3551 L -4.90573,-96.2708 L -5.04747,-96.1839 L -5.18768,-96.0946
 L -5.32631,-96.0028 L -5.4633,-95.9087 L -5.59865,-95.8121 L -5.73228,-95.7132 L -5.86417,-95.612 L -5.99426,-95.5086
 L -6.12254,-95.4028 L -6.24895,-95.2948 L -6.37346,-95.1847 L -6.49603,-95.0724 L -6.61661,-94.9579 L -6.73518,-94.8414
 L -6.8517,-94.7229 L -6.96614,-94.6023 L -7.07845,-94.4797 L -7.1886,-94.3552 L -7.29657,-94.2288 L -7.40231,-94.1005
 L -7.5058,-93.9704 L -7.60699,-93.8385 L -7.70589,-93.7049 L -7.80241,-93.5696 L -7.89658,-93.4326 L -7.98833,-93.2939
 L -8.07765,-93.1537 L -8.16451,-93.012 L -8.24889,-92.8687 L -8.33075,-92.7241 L -8.41006,-92.578 L -8.48683,-92.4305
 L -8.561,-92.2817 L -8.63257,-92.1317 L -8.70151,-91.9804 L -8.76781,-91.828 L -8.83142,-91.6744 L -8.89235,-91.5197
 L -8.95056,-91.364 L -9.00606,-91.2073 L -9.05881,-91.0496 L -9.1088,-90.8911 L -9.15601,-90.7317 L -9.20044,-90.5715
 L -9.24207,-90.4106 L -9.28087,-90.2489 L -9.31685,-90.0866 L -9.34999,-89.9237 L -9.38028,-89.7602 L -9.40773,-89.5963
 L -9.4323,-89.4319 L -9.45399,-89.267 L -9.47281,-89.1019 L -9.48875,-88.9364 L -9.50179,-88.7707 L -9.51193,-88.6047
 L -9.5192,-88.4387 L -9.52354,-88.2725 L -9.52499,-88.1062 L -9.52354,-87.94 L -9.5192,-87.7738 L -9.51193,-87.6077
 L -9.50179,-87.4418 L -9.48875,-87.2761 L -9.47281,-87.1106 L -9.45399,-86.9454 L -9.4323,-86.7806 L -9.40773,-86.6162
 L -9.38028,-86.4522 L -9.34999,-86.2888 L -9.31685,-86.1259 L -9.28087,-85.9636 L -9.24207,-85.8019 L -9.20044,-85.641
 L -9.15601,-85.4808 L -9.1088,-85.3214 L -9.05881,-85.1629 L -9.00606,-85.0052 L -8.95056,-84.8485 L -8.89235,-84.6928
 L -8.83142,-84.5381 L -8.76781,-84.3845 L -8.70151,-84.2321 L -8.63257,-84.0808 L -8.561,-83.9308 L -8.48683,-83.782
 L -8.41006,-83.6345 L -8.33075,-83.4884 L -8.24889,-83.3437 L -8.16451,-83.2005 L -8.07765,-83.0588 L -1.19061,-72.1958
 L -1.19061,-15.9105 L -8.07765,-5.04747 L -8.16451,-4.90573 L -8.24889,-4.7625 L -8.33075,-4.6178 L -8.41006,-4.47171
 L -8.48683,-4.32425 L -8.561,-4.17548 L -8.63257,-4.02544 L -8.70151,-3.87416 L -8.76781,-3.72171 L -8.83142,-3.56812
 L -8.89235,-3.41345 L -8.95056,-3.25774 L -9.00606,-3.10103 L -9.05881,-2.94337 L -9.1088,-2.78484 L -9.15601,-2.62544
 L -9.20044,-2.46524 L -9.24207,-2.30431 L -9.28087,-2.14265 L -9.31685,-1.98035 L -9.34999,-1.81744 L -9.38028,-1.65399
 L -9.40773,-1.49004 L -9.4323,-1.32562 L -9.45399,-1.1608 L -9.47281,-0.995621 L -9.48875,-0.830154 L -9.50179,-0.664429
 L -9.51193,-0.498489 L -9.5192,-0.332413 L -9.52354,-0.166229 L -9.52499,-0 L -9.52354,0.166229 L -9.5192,0.332413
 L -9.51193,0.498489 L -9.50179,0.664429 L -9.48875,0.830154 L -9.47281,0.995621 L -9.45399,1.1608 L -9.4323,1.32562
 L -9.40773,1.49004 L -9.38028,1.65399 L -9.34999,1.81744 L -9.31685,1.98035 L -9.28087,2.14265 L -9.24207,2.30431
 L -9.20044,2.46524 L -9.15601,2.62544 L -9.1088,2.78484 L -9.05881,2.94337 L -9.00606,3.10103 L -8.95056,3.25774
 L -8.89235,3.41345 L -8.83142,3.56812 L -8.76781,3.72171 L -8.70151,3.87416 L -8.63257,4.02544 L -8.561,4.17548
 L -8.48683,4.32425 L -8.41006,4.47171 L -8.33075,4.6178 L -8.24889,4.7625 L -8.16451,4.90573 L -8.07765,5.04747
 L -7.98833,5.18768 L -7.89658,5.32631 L -7.80241,5.4633 L -7.70589,5.59865 L -7.60699,5.73228 L -7.5058,5.86417
 L -7.40231,5.99426 L -7.29657,6.12254 L -7.1886,6.24895 L -7.07845,6.37346 L -6.96614,6.49603 L -6.8517,6.61661
 L -6.73518,6.73518 L -6.61661,6.8517 L -6.49603,6.96614 L -6.37346,7.07845 L -6.24895,7.1886 L -6.12254,7.29657
 L -5.99426,7.40231 L -5.86417,7.5058 L -5.73228,7.60699 L -5.59865,7.70589 L -5.4633,7.80241 L -5.32631,7.89658
 L -5.18768,7.98833 L -5.04747,8.07765 L -4.90573,8.16451 L -4.7625,8.24889 L -4.6178,8.33075 L -4.47171,8.41006
 L -4.32425,8.48683 L -4.17548,8.561 L -4.02544,8.63257 L -3.87416,8.70151 L -3.72171,8.76781 L -3.56812,8.83142
 L -3.41345,8.89235 L -3.25774,8.95056 L -3.10103,9.00606 L -2.94337,9.05881 L -2.78484,9.1088 L -2.62544,9.15601
 L -2.46524,9.20044 L -2.30431,9.24207 L -2.14265,9.28087 L -1.98035,9.31685 L -1.81744,9.34999 L -1.65399,9.38028
 L -1.49004,9.40773 L -1.32562,9.4323 L -1.1608,9.45399 L -0.995621,9.47281 L -0.830154,9.48875 L -0.664429,9.50179
 L -0.498489,9.51193 L -0.332413,9.5192 L -0.166229,9.52354 L 0,9.52499 L 0.166229,9.52354 L 0.332413,9.5192
 L 0.498489,9.51193 L 0.664429,9.50179 L 0.830154,9.48875 L 0.995621,9.47281 L 1.1608,9.45399 L 1.32562,9.4323
 L 1.49004,9.40773 L 1.65399,9.38028 L 1.81744,9.34999 L 1.98035,9.31685 L 2.14265,9.28087 L 2.30431,9.24207
 L 2.46524,9.20044 L 2.62544,9.15601 L 2.78484,9.1088 L 2.94337,9.05881 L 3.10103,9.00606 L 3.25774,8.95056
 L 3.41345,8.89235 L 3.56812,8.83142 L 3.72171,8.76781 L 3.87416,8.70151 L 4.02544,8.63257 L 4.17548,8.561
 L 4.32425,8.48683 L 4.47171,8.41006 L 4.6178,8.33075 L 4.7625,8.24889 L 4.90573,8.16451 L 5.04747,8.07765
 L 5.18768,7.98833 L 5.32631,7.89658 L 5.4633,7.80241 L 5.59865,7.70589 L 5.73228,7.60699 L 5.86417,7.5058
 L 5.99426,7.40231 L 6.12254,7.29657 L 6.24895,7.1886 L 6.37346,7.07845 L 6.49603,6.96614 L 6.61661,6.8517
 L 27.4113,-13.4937 L 39.6875,-13.4937 L 118.269,65.0875 L 118.269,87.3125 L 118.269,87.3679 L 118.271,87.4233
 L 118.273,87.4787 L 118.276,87.534 L 118.281,87.5892 L 118.286,87.6444 L 118.292,87.6994 L 118.3,87.7544
 L 118.308,87.8092 L 118.317,87.8638 L 118.327,87.9183 L 118.338,87.9726 L 118.35,88.0267 L 118.363,88.0806
 L 118.377,88.1342 L 118.392,88.1876 L 118.407,88.2408 L 118.424,88.2936 L 118.442,88.3462 L 118.46,88.3984
 L 118.48,88.4503 L 118.5,88.5019 L 118.521,88.5531 L 118.543,88.6039 L 118.566,88.6543 L 118.59,88.7043
 L 118.615,88.7539 L 118.64,88.8031 L 118.667,88.8518 L 118.694,88.9 L 118.722,88.9477 L 118.751,88.995
 L 118.781,89.0417 L 118.812,89.0879 L 118.843,89.1336 L 118.875,89.1787 L 118.908,89.2233 L 118.942,89.2672
 L 118.976,89.3106 L 119.012,89.3533 L 119.048,89.3955 L 119.084,89.437 L 119.122,89.4778 L 119.16,89.518
 L 119.199,89.5576 L 119.238,89.5964 L 119.278,89.6345 L 119.319,89.672 L 119.361,89.7087 L 119.403,89.7447
 L 119.446,89.7799 L 119.489,89.8144 L 119.533,89.8482 L 119.578,89.8811 L 119.623,89.9133 L 119.668,89.9447
 L 119.715,89.9753 L 119.761,90.005 L 119.809,90.034 L 119.856,90.0621 L 119.904,90.0894 L 119.953,90.1158
 L 120.002,90.1414 L 120.052,90.1662 L 120.102,90.19 L 120.152,90.213 L 120.203,90.2351 L 120.254,90.2563
 L 120.306,90.2766 L 120.358,90.296 L 120.41,90.3145 L 120.463,90.3321 L 120.515,90.3488 L 120.569,90.3645
 L 120.622,90.3793 L 120.676,90.3932 L 120.73,90.4061 L 120.784,90.4181 L 120.838,90.4292 L 120.892,90.4393
 L 120.947,90.4484 L 121.002,90.4566 L 121.057,90.4638 L 121.112,90.4701 L 121.167,90.4754 L 121.222,90.4798
 L 121.278,90.4831 L 121.333,90.4855 L 121.388,90.487 L 121.444,90.4875 L 216.694,90.4875 z
M -0.0761871,-83.7413 L -0.152344,-83.7433 L -0.22847,-83.7466 L -0.30452,-83.7513 L -0.380478,-83.7572 L -0.456329,-83.7645
 L -0.532028,-83.7732 L -0.607574,-83.7831 L -0.682922,-83.7944 L -0.758072,-83.8069 L -0.832993,-83.8208 L -0.907654,-83.836
 L -0.98204,-83.8525 L -1.05614,-83.8703 L -1.1299,-83.8894 L -1.20332,-83.9097 L -1.27638,-83.9314 L -1.34904,-83.9543
 L -1.4213,-83.9785 L -1.49312,-84.0039 L -1.5645,-84.0306 L -1.63539,-84.0585 L -1.70578,-84.0877 L -1.77565,-84.118
 L -1.84499,-84.1496 L -1.91376,-84.1824 L -1.98195,-84.2164 L -2.04953,-84.2516 L -2.11649,-84.288 L -2.1828,-84.3255
 L -2.24846,-84.3642 L -2.31342,-84.404 L -2.37769,-84.4449 L -2.44122,-84.487 L -2.50401,-84.5301 L -2.56604,-84.5744
 L -2.62729,-84.6197 L -2.68774,-84.6661 L -2.74738,-84.7135 L -2.80617,-84.762 L -2.86411,-84.8115 L -2.92117,-84.862
 L -2.97734,-84.9134 L -3.03261,-84.9659 L -3.08696,-85.0193 L -3.14037,-85.0736 L -3.19281,-85.1289 L -3.24428,-85.1851
 L -3.29477,-85.2421 L -3.34425,-85.3001 L -3.39272,-85.3589 L -3.44016,-85.4185 L -3.48654,-85.4789 L -3.53186,-85.5402
 L -3.5761,-85.6022 L -3.61926,-85.665 L -3.66132,-85.7285 L -3.70226,-85.7928 L -3.74207,-85.8578 L -3.78073,-85.9234
 L -3.81825,-85.9897 L -3.85461,-86.0567 L -3.88979,-86.1243 L -3.9238,-86.1925 L -3.95659,-86.2612 L -3.98819,-86.3306
 L -4.01857,-86.4005 L -4.04773,-86.4709 L -4.07565,-86.5417 L -4.10234,-86.6131 L -4.12778,-86.6849 L -4.15195,-86.7572
 L -4.17487,-86.8299 L -4.1965,-86.9029 L -4.21686,-86.9763 L -4.23595,-87.0501 L -4.25372,-87.1242 L -4.27022,-87.1986
 L -4.28542,-87.2732 L -4.2993,-87.3482 L -4.31187,-87.4233 L -4.32314,-87.4987 L -4.33308,-87.5742 L -4.34171,-87.6499
 L -4.349,-87.7258 L -4.35498,-87.8017 L -4.35963,-87.8778 L -4.36296,-87.9539 L -4.36496,-88.03 L -4.36562,-88.1062
 L -4.36496,-88.1824 L -4.36296,-88.2586 L -4.35963,-88.3347 L -4.35498,-88.4108 L -4.349,-88.4867 L -4.34171,-88.5626
 L -4.33308,-88.6383 L -4.32314,-88.7138 L -4.31187,-88.7892 L -4.2993,-88.8643 L -4.28542,-88.9392 L -4.27022,-89.0139
 L -4.25372,-89.0883 L -4.23595,-89.1624 L -4.21686,-89.2361 L -4.1965,-89.3096 L -4.17487,-89.3826 L -4.15195,-89.4553
 L -4.12778,-89.5276 L -4.10234,-89.5994 L -4.07565,-89.6707 L -4.04773,-89.7416 L -4.01857,-89.812 L -3.98819,-89.8819
 L -3.95659,-89.9512 L -3.9238,-90.02 L -3.88979,-90.0882 L -3.85461,-90.1558 L -3.81825,-90.2227 L -3.78073,-90.289
 L -3.74207,-90.3547 L -3.70226,-90.4197 L -3.66132,-90.4839 L -3.61926,-90.5475 L -3.5761,-90.6103 L -3.53186,-90.6723
 L -3.48654,-90.7335 L -3.44016,-90.794 L -3.39272,-90.8536 L -3.34425,-90.9124 L -3.29477,-90.9704 L -3.24428,-91.0274
 L -3.19281,-91.0836 L -3.14037,-91.1389 L -3.08696,-91.1932 L -3.03261,-91.2466 L -2.97734,-91.2991 L -2.92117,-91.3505
 L -2.86411,-91.401 L -2.80617,-91.4505 L -2.74738,-91.499 L -2.68774,-91.5464 L -2.62729,-91.5928 L -2.56604,-91.6381
 L -2.50401,-91.6824 L -2.44122,-91.7255 L -2.37769,-91.7676 L -2.31342,-91.8085 L -2.24846,-91.8483 L -2.1828,-91.887
 L -2.11649,-91.9245 L -2.04953,-91.9609 L -1.98195,-91.996 L -1.91376,-92.03 L -1.84499,-92.0628 L -1.77565,-92.0944
 L -1.70578,-92.1248 L -1.63539,-92.154 L -1.5645,-92.1819 L -1.49312,-92.2086 L -1.4213,-92.234 L -1.34904,-92.2582
 L -1.27638,-92.2811 L -1.20332,-92.3027 L -1.1299,-92.3231 L -1.05614,-92.3422 L -0.98204,-92.36 L -0.907654,-92.3765
 L -0.832993,-92.3917 L -0.758072,-92.4055 L -0.682922,-92.4181 L -0.607574,-92.4294 L -0.532028,-92.4393 L -0.456329,-92.448
 L -0.380478,-92.4553 L -0.30452,-92.4612 L -0.22847,-92.4659 L -0.152344,-92.4692 L -0.0761871,-92.4712 L 0,-92.4719
 L 0.0761871,-92.4712 L 0.152344,-92.4692 L 0.22847,-92.4659 L 0.30452,-92.4612 L 0.380478,-92.4553 L 0.456329,-92.448
 L 0.532028,-92.4393 L 0.607574,-92.4294 L 0.682922,-92.4181 L 0.758072,-92.4055 L 0.832993,-92.3917 L 0.907654,-92.3765
 L 0.98204,-92.36 L 1.05614,-92.3422 L 1.1299,-92.3231 L 1.20332,-92.3027 L 1.27638,-92.2811 L 1.34904,-92.2582
 L 1.4213,-92.234 L 1.49312,-92.2086 L 1.5645,-92.1819 L 1.63539,-92.154 L 1.70578,-92.1248 L 1.77565,-92.0944
 L 1.84499,-92.0628 L 1.91376,-92.03 L 1.98195,-91.996 L 2.04953,-91.9609 L 2.11649,-91.9245 L 2.1828,-91.887
 L 2.24846,-91.8483 L 2.31342,-91.8085 L 2.37769,-91.7676 L 2.44122,-91.7255 L 2.50401,-91.6824 L 2.56604,-91.6381
 L 2.62729,-91.5928 L 2.68774,-91.5464 L 2.74738,-91.499 L 2.80617,-91.4505 L 2.86411,-91.401 L 2.92117,-91.3505
 L 2.97734,-91.2991 L 3.03261,-91.2466 L 3.08696,-91.1932 L 3.14037,-91.1389 L 3.19281,-91.0836 L 3.24428,-91.0274
 L 3.29477,-90.9704 L 3.34425,-90.9124 L 3.39272,-90.8536 L 3.44016,-90.794 L 3.48654,-90.7335 L 3.53186,-90.6723
 L 3.5761,-90.6103 L 3.61926,-90.5475 L 3.66132,-90.4839 L 3.70226,-90.4197 L 3.74207,-90.3547 L 3.78073,-90.289
 L 3.81825,-90.2227 L 3.85461,-90.1558 L 3.88979,-90.0882 L 3.9238,-90.02 L 3.95659,-89.9512 L 3.98819,-89.8819
 L 4.01857,-89.812 L 4.04773,-89.7416 L 4.07565,-89.6707 L 4.10234,-89.5994 L 4.12778,-89.5276 L 4.15195,-89.4553
 L 4.17487,-89.3826 L 4.1965,-89.3096 L 4.21686,-89.2361 L 4.23595,-89.1624 L 4.25372,-89.0883 L 4.27022,-89.0139
 L 4.28542,-88.9392 L 4.2993,-88.8643 L 4.31187,-88.7892 L 4.32314,-88.7138 L 4.33308,-88.6383 L 4.34171,-88.5626
 L 4.349,-88.4867 L 4.35498,-88.4108 L 4.35963,-88.3347 L 4.36296,-88.2586 L 4.36496,-88.1824 L 4.36562,-88.1062
 L 4.36496,-88.03 L 4.36296,-87.9539 L 4.35963,-87.8778 L 4.35498,-87.8017 L 4.349,-87.7258 L 4.34171,-87.6499
 L 4.33308,-87.5742 L 4.32314,-87.4987 L 4.31187,-87.4233 L 4.2993,-87.3482 L 4.28542,-87.2732 L 4.27022,-87.1986
 L 4.25372,-87.1242 L 4.23595,-87.0501 L 4.21686,-86.9763 L 4.1965,-86.9029 L 4.17487,-86.8299 L 4.15195,-86.7572
 L 4.12778,-86.6849 L 4.10234,-86.6131 L 4.07565,-86.5417 L 4.04773,-86.4709 L 4.01857,-86.4005 L 3.98819,-86.3306
 L 3.95659,-86.2612 L 3.9238,-86.1925 L 3.88979,-86.1243 L 3.85461,-86.0567 L 3.81825,-85.9897 L 3.78073,-85.9234
 L 3.74207,-85.8578 L 3.70226,-85.7928 L 3.66132,-85.7285 L 3.61926,-85.665 L 3.5761,-85.6022 L 3.53186,-85.5402
 L 3.48654,-85.4789 L 3.44016,-85.4185 L 3.39272,-85.3589 L 3.34425,-85.3001 L 3.29477,-85.2421 L 3.24428,-85.1851
 L 3.19281,-85.1289 L 3.14037,-85.0736 L 3.08696,-85.0193 L 3.03261,-84.9659 L 2.97734,-84.9134 L 2.92117,-84.862
 L 2.86411,-84.8115 L 2.80617,-84.762 L 2.74738,-84.7135 L 2.68774,-84.6661 L 2.62729,-84.6197 L 2.56604,-84.5744
 L 2.50401,-84.5301 L 2.44122,-84.487 L 2.37769,-84.4449 L 2.31342,-84.404 L 2.24846,-84.3642 L 2.1828,-84.3255
 L 2.11649,-84.288 L 2.04953,-84.2516 L 1.98195,-84.2164 L 1.91376,-84.1824 L 1.84499,-84.1496 L 1.77565,-84.118
 L 1.70578,-84.0877 L 1.63539,-84.0585 L 1.5645,-84.0306 L 1.49312,-84.0039 L 1.4213,-83.9785 L 1.34904,-83.9543
 L 1.27638,-83.9314 L 1.20332,-83.9097 L 1.1299,-83.8894 L 1.05614,-83.8703 L 0.98204,-83.8525 L 0.907654,-83.836
 L 0.832993,-83.8208 L 0.758072,-83.8069 L 0.682922,-83.7944 L 0.607574,-83.7831 L 0.532028,-83.7732 L 0.456329,-83.7645
 L 0.380478,-83.7572 L 0.30452,-83.7513 L 0.22847,-83.7466 L 0.152344,-83.7433 L 0.0761871,-83.7413 L 0,-83.7406
 z
M 130.893,-83.7413 L 130.816,-83.7433 L 130.74,-83.7466 L 130.664,-83.7513 L 130.588,-83.7572 L 130.512,-83.7645
 L 130.437,-83.7732 L 130.361,-83.7831 L 130.286,-83.7944 L 130.211,-83.8069 L 130.136,-83.8208 L 130.061,-83.836
 L 129.987,-83.8525 L 129.913,-83.8703 L 129.839,-83.8894 L 129.765,-83.9097 L 129.692,-83.9314 L 129.62,-83.9543
 L 129.547,-83.9785 L 129.476,-84.0039 L 129.404,-84.0306 L 129.333,-84.0585 L 129.263,-84.0877 L 129.193,-84.118
 L 129.124,-84.1496 L 129.055,-84.1824 L 128.987,-84.2164 L 128.919,-84.2516 L 128.852,-84.288 L 128.786,-84.3255
 L 128.72,-84.3642 L 128.655,-84.404 L 128.591,-84.4449 L 128.528,-84.487 L 128.465,-84.5301 L 128.403,-84.5744
 L 128.341,-84.6197 L 128.281,-84.6661 L 128.221,-84.7135 L 128.163,-84.762 L 128.105,-84.8115 L 128.048,-84.862
 L 127.991,-84.9134 L 127.936,-84.9659 L 127.882,-85.0193 L 127.828,-85.0736 L 127.776,-85.1289 L 127.724,-85.1851
 L 127.674,-85.2421 L 127.624,-85.3001 L 127.576,-85.3589 L 127.529,-85.4185 L 127.482,-85.4789 L 127.437,-85.5402
 L 127.393,-85.6022 L 127.349,-85.665 L 127.307,-85.7285 L 127.266,-85.7928 L 127.227,-85.8578 L 127.188,-85.9234
 L 127.15,-85.9897 L 127.114,-86.0567 L 127.079,-86.1243 L 127.045,-86.1925 L 127.012,-86.2612 L 126.981,-86.3306
 L 126.95,-86.4005 L 126.921,-86.4709 L 126.893,-86.5417 L 126.866,-86.6131 L 126.841,-86.6849 L 126.817,-86.7572
 L 126.794,-86.8299 L 126.772,-86.9029 L 126.752,-86.9763 L 126.733,-87.0501 L 126.715,-87.1242 L 126.699,-87.1986
 L 126.683,-87.2732 L 126.669,-87.3482 L 126.657,-87.4233 L 126.646,-87.4987 L 126.636,-87.5742 L 126.627,-87.6499
 L 126.62,-87.7258 L 126.614,-87.8017 L 126.609,-87.8778 L 126.606,-87.9539 L 126.604,-88.03 L 126.603,-88.1062
 L 126.604,-88.1824 L 126.606,-88.2586 L 126.609,-88.3347 L 126.614,-88.4108 L 126.62,-88.4867 L 126.627,-88.5626
 L 126.636,-88.6383 L 126.646,-88.7138 L 126.657,-88.7892 L 126.669,-88.8643 L 126.683,-88.9392 L 126.699,-89.0139
 L 126.715,-89.0883 L 126.733,-89.1624 L 126.752,-89.2361 L 126.772,-89.3096 L 126.794,-89.3826 L 126.817,-89.4553
 L 126.841,-89.5276 L 126.866,-89.5994 L 126.893,-89.6707 L 126.921,-89.7416 L 126.95,-89.812 L 126.981,-89.8819
 L 127.012,-89.9512 L 127.045,-90.02 L 127.079,-90.0882 L 127.114,-90.1558 L 127.15,-90.2227 L 127.188,-90.289
 L 127.227,-90.3547 L 127.266,-90.4197 L 127.307,-90.4839 L 127.349,-90.5475 L 127.393,-90.6103 L 127.437,-90.6723
 L 127.482,-90.7335 L 127.529,-90.794 L 127.576,-90.8536 L 127.624,-90.9124 L 127.674,-90.9704 L 127.724,-91.0274
 L 127.776,-91.0836 L 127.828,-91.1389 L 127.882,-91.1932 L 127.936,-91.2466 L 127.991,-91.2991 L 128.048,-91.3505
 L 128.105,-91.401 L 128.163,-91.4505 L 128.221,-91.499 L 128.281,-91.5464 L 128.341,-91.5928 L 128.403,-91.6381
 L 128.465,-91.6824 L 128.528,-91.7255 L 128.591,-91.7676 L 128.655,-91.8085 L 128.72,-91.8483 L 128.786,-91.887
 L 128.852,-91.9245 L 128.919,-91.9609 L 128.987,-91.996 L 129.055,-92.03 L 129.124,-92.0628 L 129.193,-92.0944
 L 129.263,-92.1248 L 129.333,-92.154 L 129.404,-92.1819 L 129.476,-92.2086 L 129.547,-92.234 L 129.62,-92.2582
 L 129.692,-92.2811 L 129.765,-92.3027 L 129.839,-92.3231 L 129.913,-92.3422 L 129.987,-92.36 L 130.061,-92.3765
 L 130.136,-92.3917 L 130.211,-92.4055 L 130.286,-92.4181 L 130.361,-92.4294 L 130.437,-92.4393 L 130.512,-92.448
 L 130.588,-92.4553 L 130.664,-92.4612 L 130.74,-92.4659 L 130.816,-92.4692 L 130.893,-92.4712 L 130.969,-92.4719
 L 131.045,-92.4712 L 131.121,-92.4692 L 131.197,-92.4659 L 131.273,-92.4612 L 131.349,-92.4553 L 131.425,-92.448
 L 131.501,-92.4393 L 131.576,-92.4294 L 131.652,-92.4181 L 131.727,-92.4055 L 131.802,-92.3917 L 131.876,-92.3765
 L 131.951,-92.36 L 132.025,-92.3422 L 132.099,-92.3231 L 132.172,-92.3027 L 132.245,-92.2811 L 132.318,-92.2582
 L 132.39,-92.234 L 132.462,-92.2086 L 132.533,-92.1819 L 132.604,-92.154 L 132.675,-92.1248 L 132.744,-92.0944
 L 132.814,-92.0628 L 132.883,-92.03 L 132.951,-91.996 L 133.018,-91.9609 L 133.085,-91.9245 L 133.152,-91.887
 L 133.217,-91.8483 L 133.282,-91.8085 L 133.346,-91.7676 L 133.41,-91.7255 L 133.473,-91.6824 L 133.535,-91.6381
 L 133.596,-91.5928 L 133.656,-91.5464 L 133.716,-91.499 L 133.775,-91.4505 L 133.833,-91.401 L 133.89,-91.3505
 L 133.946,-91.2991 L 134.001,-91.2466 L 134.056,-91.1932 L 134.109,-91.1389 L 134.162,-91.0836 L 134.213,-91.0274
 L 134.264,-90.9704 L 134.313,-90.9124 L 134.361,-90.8536 L 134.409,-90.794 L 134.455,-90.7335 L 134.501,-90.6723
 L 134.545,-90.6103 L 134.588,-90.5475 L 134.63,-90.4839 L 134.671,-90.4197 L 134.711,-90.3547 L 134.749,-90.289
 L 134.787,-90.2227 L 134.823,-90.1558 L 134.859,-90.0882 L 134.893,-90.02 L 134.925,-89.9512 L 134.957,-89.8819
 L 134.987,-89.812 L 135.016,-89.7416 L 135.044,-89.6707 L 135.071,-89.5994 L 135.097,-89.5276 L 135.121,-89.4553
 L 135.144,-89.3826 L 135.165,-89.3096 L 135.186,-89.2361 L 135.205,-89.1624 L 135.222,-89.0883 L 135.239,-89.0139
 L 135.254,-88.9392 L 135.268,-88.8643 L 135.281,-88.7892 L 135.292,-88.7138 L 135.302,-88.6383 L 135.31,-88.5626
 L 135.318,-88.4867 L 135.324,-88.4108 L 135.328,-88.3347 L 135.332,-88.2586 L 135.334,-88.1824 L 135.334,-88.1062
 L 135.334,-88.03 L 135.332,-87.9539 L 135.328,-87.8778 L 135.324,-87.8017 L 135.318,-87.7258 L 135.31,-87.6499
 L 135.302,-87.5742 L 135.292,-87.4987 L 135.281,-87.4233 L 135.268,-87.3482 L 135.254,-87.2732 L 135.239,-87.1986
 L 135.222,-87.1242 L 135.205,-87.0501 L 135.186,-86.9763 L 135.165,-86.9029 L 135.144,-86.8299 L 135.121,-86.7572
 L 135.097,-86.6849 L 135.071,-86.6131 L 135.044,-86.5417 L 135.016,-86.4709 L 134.987,-86.4005 L 134.957,-86.3306
 L 134.925,-86.2612 L 134.893,-86.1925 L 134.859,-86.1243 L 134.823,-86.0567 L 134.787,-85.9897 L 134.749,-85.9234
 L 134.711,-85.8578 L 134.671,-85.7928 L 134.63,-85.7285 L 134.588,-85.665 L 134.545,-85.6022 L 134.501,-85.5402
 L 134.455,-85.4789 L 134.409,-85.4185 L 134.361,-85.3589 L 134.313,-85.3001 L 134.264,-85.2421 L 134.213,-85.1851
 L 134.162,-85.1289 L 134.109,-85.0736 L 134.056,-85.0193 L 134.001,-84.9659 L 133.946,-84.9134 L 133.89,-84.862
 L 133.833,-84.8115 L 133.775,-84.762 L 133.716,-84.7135 L 133.656,-84.6661 L 133.596,-84.6197 L 133.535,-84.5744
 L 133.473,-84.5301 L 133.41,-84.487 L 133.346,-84.4449 L 133.282,-84.404 L 133.217,-84.3642 L 133.152,-84.3255
 L 133.085,-84.288 L 133.018,-84.2516 L 132.951,-84.2164 L 132.883,-84.1824 L 132.814,-84.1496 L 132.744,-84.118
 L 132.675,-84.0877 L 132.604,-84.0585 L 132.533,-84.0306 L 132.462,-84.0039 L 132.39,-83.9785 L 132.318,-83.9543
 L 132.245,-83.9314 L 132.172,-83.9097 L 132.099,-83.8894 L 132.025,-83.8703 L 131.951,-83.8525 L 131.876,-83.836
 L 131.802,-83.8208 L 131.727,-83.8069 L 131.652,-83.7944 L 131.576,-83.7831 L 131.501,-83.7732 L 131.425,-83.7645
 L 131.349,-83.7572 L 131.273,-83.7513 L 131.197,-83.7466 L 131.121,-83.7433 L 131.045,-83.7413 L 130.969,-83.7406
 z
M 14.2875,-23.0187 L 14.2321,-23.0192 L 14.1767,-23.0207 L 14.1213,-23.0231 L 14.066,-23.0265 L 14.0108,-23.0308
 L 13.9556,-23.0361 L 13.9006,-23.0424 L 13.8456,-23.0496 L 13.7908,-23.0578 L 13.7362,-23.067 L 13.6817,-23.0771
 L 13.6274,-23.0881 L 13.5733,-23.1001 L 13.5194,-23.1131 L 13.4657,-23.1269 L 13.4123,-23.1417 L 13.3592,-23.1575
 L 13.3064,-23.1741 L 13.2538,-23.1917 L 13.2016,-23.2102 L 13.1497,-23.2296 L 13.0981,-23.2499 L 13.0469,-23.2711
 L 12.9961,-23.2932 L 12.9457,-23.3162 L 12.8957,-23.3401 L 12.8461,-23.3648 L 12.7969,-23.3904 L 12.7482,-23.4168
 L 12.7,-23.4441 L 12.6523,-23.4722 L 12.605,-23.5012 L 12.5583,-23.531 L 12.5121,-23.5616 L 12.4664,-23.5929
 L 12.4213,-23.6251 L 12.3767,-23.6581 L 12.3328,-23.6918 L 12.2894,-23.7263 L 12.2466,-23.7616 L 12.2045,-23.7975
 L 12.163,-23.8343 L 12.1221,-23.8717 L 12.082,-23.9098 L 12.0424,-23.9487 L 12.0036,-23.9882 L 11.9654,-24.0284
 L 11.928,-24.0693 L 11.8913,-24.1107 L 11.8553,-24.1529 L 11.8201,-24.1956 L 11.7856,-24.239 L 11.7518,-24.283
 L 11.7189,-24.3275 L 11.6867,-24.3726 L 11.6553,-24.4183 L 11.6247,-24.4645 L 11.5949,-24.5112 L 11.566,-24.5585
 L 11.5379,-24.6062 L 11.5106,-24.6545 L 11.4841,-24.7032 L 11.4585,-24.7523 L 11.4338,-24.8019 L 11.41,-24.8519
 L 11.387,-24.9024 L 11.3649,-24.9532 L 11.3437,-25.0044 L 11.3234,-25.0559 L 11.304,-25.1078 L 11.2855,-25.1601
 L 11.2679,-25.2126 L 11.2512,-25.2655 L 11.2355,-25.3186 L 11.2207,-25.372 L 11.2068,-25.4256 L 11.1939,-25.4795
 L 11.1819,-25.5336 L 11.1708,-25.5879 L 11.1607,-25.6424 L 11.1516,-25.6971 L 11.1434,-25.7519 L 11.1362,-25.8068
 L 11.1299,-25.8619 L 11.1246,-25.917 L 11.1202,-25.9723 L 11.1168,-26.0276 L 11.1144,-26.0829 L 11.113,-26.1383
 L 11.1125,-26.1937 L 11.1125,-67.4688 L 11.113,-67.5242 L 11.1144,-67.5795 L 11.1168,-67.6349 L 11.1202,-67.6902
 L 11.1246,-67.7455 L 11.1299,-67.8006 L 11.1362,-67.8557 L 11.1434,-67.9106 L 11.1516,-67.9654 L 11.1607,-68.0201
 L 11.1708,-68.0746 L 11.1819,-68.1289 L 11.1939,-68.183 L 11.2068,-68.2368 L 11.2207,-68.2905 L 11.2355,-68.3439
 L 11.2512,-68.397 L 11.2679,-68.4499 L 11.2855,-68.5024 L 11.304,-68.5547 L 11.3234,-68.6066 L 11.3437,-68.6581
 L 11.3649,-68.7093 L 11.387,-68.7601 L 11.41,-68.8106 L 11.4338,-68.8606 L 11.4585,-68.9102 L 11.4841,-68.9593
 L 11.5106,-69.008 L 11.5379,-69.0562 L 11.566,-69.104 L 11.5949,-69.1512 L 11.6247,-69.198 L 11.6553,-69.2442
 L 11.6867,-69.2898 L 11.7189,-69.335 L 11.7518,-69.3795 L 11.7856,-69.4235 L 11.8201,-69.4668 L 11.8553,-69.5096
 L 11.8913,-69.5517 L 11.928,-69.5932 L 11.9654,-69.6341 L 12.0036,-69.6743 L 12.0424,-69.7138 L 12.082,-69.7526
 L 12.1221,-69.7908 L 12.163,-69.8282 L 12.2045,-69.8649 L 12.2466,-69.9009 L 12.2894,-69.9362 L 12.3328,-69.9707
 L 12.3767,-70.0044 L 12.4213,-70.0374 L 12.4664,-70.0695 L 12.5121,-70.1009 L 12.5583,-70.1315 L 12.605,-70.1613
 L 12.6523,-70.1902 L 12.7,-70.2184 L 12.7482,-70.2457 L 12.7969,-70.2721 L 12.8461,-70.2977 L 12.8957,-70.3224
 L 12.9457,-70.3463 L 12.9961,-70.3692 L 13.0469,-70.3913 L 13.0981,-70.4126 L 13.1497,-70.4329 L 13.2016,-70.4523
 L 13.2538,-70.4708 L 13.3064,-70.4883 L 13.3592,-70.505 L 13.4123,-70.5208 L 13.4657,-70.5356 L 13.5194,-70.5494
 L 13.5733,-70.5624 L 13.6274,-70.5744 L 13.6817,-70.5854 L 13.7362,-70.5955 L 13.7908,-70.6047 L 13.8456,-70.6128
 L 13.9006,-70.6201 L 13.9556,-70.6263 L 14.0108,-70.6317 L 14.066,-70.636 L 14.1213,-70.6394 L 14.1767,-70.6418
 L 14.2321,-70.6433 L 14.2875,-70.6437 L 117.475,-70.6437 L 117.53,-70.6433 L 117.586,-70.6418 L 117.641,-70.6394
 L 117.696,-70.636 L 117.752,-70.6317 L 117.807,-70.6263 L 117.862,-70.6201 L 117.917,-70.6128 L 117.972,-70.6047
 L 118.026,-70.5955 L 118.081,-70.5854 L 118.135,-70.5744 L 118.189,-70.5624 L 118.243,-70.5494 L 118.297,-70.5356
 L 118.35,-70.5208 L 118.403,-70.505 L 118.456,-70.4883 L 118.509,-70.4708 L 118.561,-70.4523 L 118.613,-70.4329
 L 118.664,-70.4126 L 118.716,-70.3913 L 118.766,-70.3692 L 118.817,-70.3463 L 118.867,-70.3224 L 118.916,-70.2977
 L 118.966,-70.2721 L 119.014,-70.2457 L 119.062,-70.2184 L 119.11,-70.1902 L 119.157,-70.1613 L 119.204,-70.1315
 L 119.25,-70.1009 L 119.296,-70.0695 L 119.341,-70.0374 L 119.386,-70.0044 L 119.43,-69.9707 L 119.473,-69.9362
 L 119.516,-69.9009 L 119.558,-69.8649 L 119.599,-69.8282 L 119.64,-69.7908 L 119.681,-69.7526 L 119.72,-69.7138
 L 119.759,-69.6743 L 119.797,-69.6341 L 119.834,-69.5932 L 119.871,-69.5517 L 119.907,-69.5096 L 119.942,-69.4668
 L 119.977,-69.4235 L 120.011,-69.3795 L 120.044,-69.335 L 120.076,-69.2898 L 120.107,-69.2442 L 120.138,-69.198
 L 120.168,-69.1512 L 120.197,-69.104 L 120.225,-69.0562 L 120.252,-69.008 L 120.278,-68.9593 L 120.304,-68.9102
 L 120.329,-68.8606 L 120.353,-68.8106 L 120.376,-68.7601 L 120.398,-68.7093 L 120.419,-68.6581 L 120.439,-68.6066
 L 120.459,-68.5547 L 120.477,-68.5024 L 120.495,-68.4499 L 120.511,-68.397 L 120.527,-68.3439 L 120.542,-68.2905
 L 120.556,-68.2368 L 120.569,-68.183 L 120.581,-68.1289 L 120.592,-68.0746 L 120.602,-68.0201 L 120.611,-67.9654
 L 120.619,-67.9106 L 120.626,-67.8557 L 120.633,-67.8006 L 120.638,-67.7455 L 120.642,-67.6902 L 120.646,-67.6349
 L 120.648,-67.5795 L 120.65,-67.5242 L 120.65,-67.4688 L 120.65,-26.1937 L 120.65,-26.1383 L 120.648,-26.0829
 L 120.646,-26.0276 L 120.642,-25.9723 L 120.638,-25.917 L 120.633,-25.8619 L 120.626,-25.8068 L 120.619,-25.7519
 L 120.611,-25.6971 L 120.602,-25.6424 L 120.592,-25.5879 L 120.581,-25.5336 L 120.569,-25.4795 L 120.556,-25.4256
 L 120.542,-25.372 L 120.527,-25.3186 L 120.511,-25.2655 L 120.495,-25.2126 L 120.477,-25.1601 L 120.459,-25.1078
 L 120.439,-25.0559 L 120.419,-25.0044 L 120.398,-24.9532 L 120.376,-24.9024 L 120.353,-24.8519 L 120.329,-24.8019
 L 120.304,-24.7523 L 120.278,-24.7032 L 120.252,-24.6545 L 120.225,-24.6062 L 120.197,-24.5585 L 120.168,-24.5112
 L 120.138,-24.4645 L 120.107,-24.4183 L 120.076,-24.3726 L 120.044,-24.3275 L 120.011,-24.283 L 119.977,-24.239
 L 119.942,-24.1956 L 119.907,-24.1529 L 119.871,-24.1107 L 119.834,-24.0693 L 119.797,-24.0284 L 119.759,-23.9882
 L 119.72,-23.9487 L 119.681,-23.9098 L 119.64,-23.8717 L 119.599,-23.8343 L 119.558,-23.7975 L 119.516,-23.7616
 L 119.473,-23.7263 L 119.43,-23.6918 L 119.386,-23.6581 L 119.341,-23.6251 L 119.296,-23.5929 L 119.25,-23.5616
 L 119.204,-23.531 L 119.157,-23.5012 L 119.11,-23.4722 L 119.062,-23.4441 L 119.014,-23.4168 L 118.966,-23.3904
 L 118.916,-23.3648 L 118.867,-23.3401 L 118.817,-23.3162 L 118.766,-23.2932 L 118.716,-23.2711 L 118.664,-23.2499
 L 118.613,-23.2296 L 118.561,-23.2102 L 118.509,-23.1917 L 118.456,-23.1741 L 118.403,-23.1575 L 118.35,-23.1417
 L 118.297,-23.1269 L 118.243,-23.1131 L 118.189,-23.1001 L 118.135,-23.0881 L 118.081,-23.0771 L 118.026,-23.067
 L 117.972,-23.0578 L 117.917,-23.0496 L 117.862,-23.0424 L 117.807,-23.0361 L 117.752,-23.0308 L 117.696,-23.0265
 L 117.641,-23.0231 L 117.586,-23.0207 L 117.53,-23.0192 L 117.475,-23.0187 z
M -0.0761871,4.36496 L -0.152344,4.36296 L -0.22847,4.35963 L -0.30452,4.35498 L -0.380478,4.349 L -0.456329,4.34171
 L -0.532028,4.33308 L -0.607574,4.32314 L -0.682922,4.31187 L -0.758072,4.2993 L -0.832993,4.28542 L -0.907654,4.27022
 L -0.98204,4.25372 L -1.05614,4.23595 L -1.1299,4.21686 L -1.20332,4.1965 L -1.27638,4.17487 L -1.34904,4.15195
 L -1.4213,4.12778 L -1.49312,4.10234 L -1.5645,4.07565 L -1.63539,4.04773 L -1.70578,4.01857 L -1.77565,3.98819
 L -1.84499,3.95659 L -1.91376,3.9238 L -1.98195,3.88979 L -2.04953,3.85461 L -2.11649,3.81825 L -2.1828,3.78073
 L -2.24846,3.74207 L -2.31342,3.70226 L -2.37769,3.66132 L -2.44122,3.61926 L -2.50401,3.5761 L -2.56604,3.53186
 L -2.62729,3.48654 L -2.68774,3.44016 L -2.74738,3.39272 L -2.80617,3.34425 L -2.86411,3.29477 L -2.92117,3.24428
 L -2.97734,3.19281 L -3.03261,3.14037 L -3.08696,3.08696 L -3.14037,3.03261 L -3.19281,2.97734 L -3.24428,2.92117
 L -3.29477,2.86411 L -3.34425,2.80617 L -3.39272,2.74738 L -3.44016,2.68774 L -3.48654,2.62729 L -3.53186,2.56604
 L -3.5761,2.50401 L -3.61926,2.44122 L -3.66132,2.37769 L -3.70226,2.31342 L -3.74207,2.24846 L -3.78073,2.1828
 L -3.81825,2.11649 L -3.85461,2.04953 L -3.88979,1.98195 L -3.9238,1.91376 L -3.95659,1.84499 L -3.98819,1.77565
 L -4.01857,1.70578 L -4.04773,1.63539 L -4.07565,1.5645 L -4.10234,1.49312 L -4.12778,1.4213 L -4.15195,1.34904
 L -4.17487,1.27638 L -4.1965,1.20332 L -4.21686,1.1299 L -4.23595,1.05614 L -4.25372,0.98204 L -4.27022,0.907654
 L -4.28542,0.832993 L -4.2993,0.758072 L -4.31187,0.682922 L -4.32314,0.607574 L -4.33308,0.532028 L -4.34171,0.456329
 L -4.349,0.380478 L -4.35498,0.30452 L -4.35963,0.22847 L -4.36296,0.152344 L -4.36496,0.0761871 L -4.36562,-0
 L -4.36496,-0.0761871 L -4.36296,-0.152344 L -4.35963,-0.22847 L -4.35498,-0.30452 L -4.349,-0.380478 L -4.34171,-0.456329
 L -4.33308,-0.532028 L -4.32314,-0.607574 L -4.31187,-0.682922 L -4.2993,-0.758072 L -4.28542,-0.832993 L -4.27022,-0.907654
 L -4.25372,-0.98204 L -4.23595,-1.05614 L -4.21686,-1.1299 L -4.1965,-1.20332 L -4.17487,-1.27638 L -4.15195,-1.34904
 L -4.12778,-1.4213 L -4.10234,-1.49312 L -4.07565,-1.5645 L -4.04773,-1.63539 L -4.01857,-1.70578 L -3.98819,-1.77565
 L -3.95659,-1.84499 L -3.9238,-1.91376 L -3.88979,-1.98195 L -3.85461,-2.04953 L -3.81825,-2.11649 L -3.78073,-2.1828
 L -3.74207,-2.24846 L -3.70226,-2.31342 L -3.66132,-2.37769 L -3.61926,-2.44122 L -3.5761,-2.50401 L -3.53186,-2.56604
 L -3.48654,-2.62729 L -3.44016,-2.68774 L -3.39272,-2.74738 L -3.34425,-2.80617 L -3.29477,-2.86411 L -3.24428,-2.92117
 L -3.19281,-2.97734 L -3.14037,-3.03261 L -3.08696,-3.08696 L -3.03261,-3.14037 L -2.97734,-3.19281 L -2.92117,-3.24428
 L -2.86411,-3.29477 L -2.80617,-3.34425 L -2.74738,-3.39272 L -2.68774,-3.44016 L -2.62729,-3.48654 L -2.56604,-3.53186
 L -2.50401,-3.5761 L -2.44122,-3.61926 L -2.37769,-3.66132 L -2.31342,-3.70226 L -2.24846,-3.74207 L -2.1828,-3.78073
 L -2.11649,-3.81825 L -2.04953,-3.85461 L -1.98195,-3.88979 L -1.91376,-3.9238 L -1.84499,-3.95659 L -1.77565,-3.98819
 L -1.70578,-4.01857 L -1.63539,-4.04773 L -1.5645,-4.07565 L -1.49312,-4.10234 L -1.4213,-4.12778 L -1.34904,-4.15195
 L -1.27638,-4.17487 L -1.20332,-4.1965 L -1.1299,-4.21686 L -1.05614,-4.23595 L -0.98204,-4.25372 L -0.907654,-4.27022
 L -0.832993,-4.28542 L -0.758072,-4.2993 L -0.682922,-4.31187 L -0.607574,-4.32314 L -0.532028,-4.33308 L -0.456329,-4.34171
 L -0.380478,-4.349 L -0.30452,-4.35498 L -0.22847,-4.35963 L -0.152344,-4.36296 L -0.0761871,-4.36496 L 0,-4.36562
 L 0.0761871,-4.36496 L 0.152344,-4.36296 L 0.22847,-4.35963 L 0.30452,-4.35498 L 0.380478,-4.349 L 0.456329,-4.34171
 L 0.532028,-4.33308 L 0.607574,-4.32314 L 0.682922,-4.31187 L 0.758072,-4.2993 L 0.832993,-4.28542 L 0.907654,-4.27022
 L 0.98204,-4.25372 L 1.05614,-4.23595 L 1.1299,-4.21686 L 1.20332,-4.1965 L 1.27638,-4.17487 L 1.34904,-4.15195
 L 1.4213,-4.12778 L 1.49312,-4.10234 L 1.5645,-4.07565 L 1.63539,-4.04773 L 1.70578,-4.01857 L 1.77565,-3.98819
 L 1.84499,-3.95659 L 1.91376,-3.9238 L 1.98195,-3.88979 L 2.04953,-3.85461 L 2.11649,-3.81825 L 2.1828,-3.78073
 L 2.24846,-3.74207 L 2.31342,-3.70226 L 2.37769,-3.66132 L 2.44122,-3.61926 L 2.50401,-3.5761 L 2.56604,-3.53186
 L 2.62729,-3.48654 L 2.68774,-3.44016 L 2.74738,-3.39272 L 2.80617,-3.34425 L 2.86411,-3.29477 L 2.92117,-3.24428
 L 2.97734,-3.19281 L 3.03261,-3.14037 L 3.08696,-3.08696 L 3.14037,-3.03261 L 3.19281,-2.97734 L 3.24428,-2.92117
 L 3.29477,-2.86411 L 3.34425,-2.80617 L 3.39272,-2.74738 L 3.44016,-2.68774 L 3.48654,-2.62729 L 3.53186,-2.56604
 L 3.5761,-2.50401 L 3.61926,-2.44122 L 3.66132,-2.37769 L 3.70226,-2.31342 L 3.74207,-2.24846 L 3.78073,-2.1828
 L 3.81825,-2.11649 L 3.85461,-2.04953 L 3.88979,-1.98195 L 3.9238,-1.91376 L 3.95659,-1.84499 L 3.98819,-1.77565
 L 4.01857,-1.70578 L 4.04773,-1.63539 L 4.07565,-1.5645 L 4.10234,-1.49312 L 4.12778,-1.4213 L 4.15195,-1.34904
 L 4.17487,-1.27638 L 4.1965,-1.20332 L 4.21686,-1.1299 L 4.23595,-1.05614 L 4.25372,-0.98204 L 4.27022,-0.907654
 L 4.28542,-0.832993 L 4.2993,-0.758072 L 4.31187,-0.682922 L 4.32314,-0.607574 L 4.33308,-0.532028 L 4.34171,-0.456329
 L 4.349,-0.380478 L 4.35498,-0.30452 L 4.35963,-0.22847 L 4.36296,-0.152344 L 4.36496,-0.0761871 L 4.36562,-0
 L 4.36496,0.0761871 L 4.36296,0.152344 L 4.35963,0.22847 L 4.35498,0.30452 L 4.349,0.380478 L 4.34171,0.456329
 L 4.33308,0.532028 L 4.32314,0.607574 L 4.31187,0.682922 L 4.2993,0.758072 L 4.28542,0.832993 L 4.27022,0.907654
 L 4.25372,0.98204 L 4.23595,1.05614 L 4.21686,1.1299 L 4.1965,1.20332 L 4.17487,1.27638 L 4.15195,1.34904
 L 4.12778,1.4213 L 4.10234,1.49312 L 4.07565,1.5645 L 4.04773,1.63539 L 4.01857,1.70578 L 3.98819,1.77565
 L 3.95659,1.84499 L 3.9238,1.91376 L 3.88979,1.98195 L 3.85461,2.04953 L 3.81825,2.11649 L 3.78073,2.1828
 L 3.74207,2.24846 L 3.70226,2.31342 L 3.66132,2.37769 L 3.61926,2.44122 L 3.5761,2.50401 L 3.53186,2.56604
 L 3.48654,2.62729 L 3.44016,2.68774 L 3.39272,2.74738 L 3.34425,2.80617 L 3.29477,2.86411 L 3.24428,2.92117
 L 3.19281,2.97734 L 3.14037,3.03261 L 3.08696,3.08696 L 3.03261,3.14037 L 2.97734,3.19281 L 2.92117,3.24428
 L 2.86411,3.29477 L 2.80617,3.34425 L 2.74738,3.39272 L 2.68774,3.44016 L 2.62729,3.48654 L 2.56604,3.53186
 L 2.50401,3.5761 L 2.44122,3.61926 L 2.37769,3.66132 L 2.31342,3.70226 L 2.24846,3.74207 L 2.1828,3.78073
 L 2.11649,3.81825 L 2.04953,3.85461 L 1.98195,3.88979 L 1.91376,3.9238 L 1.84499,3.95659 L 1.77565,3.98819
 L 1.70578,4.01857 L 1.63539,4.04773 L 1.5645,4.07565 L 1.49312,4.10234 L 1.4213,4.12778 L 1.34904,4.15195
 L 1.27638,4.17487 L 1.20332,4.1965 L 1.1299,4.21686 L 1.05614,4.23595 L 0.98204,4.25372 L 0.907654,4.27022
 L 0.832993,4.28542 L 0.758072,4.2993 L 0.682922,4.31187 L 0.607574,4.32314 L 0.532028,4.33308 L 0.456329,4.34171
 L 0.380478,4.349 L 0.30452,4.35498 L 0.22847,4.35963 L 0.152344,4.36296 L 0.0761871,4.36496 L 0,4.36562
 z
M 130.893,4.36496 L 130.816,4.36296 L 130.74,4.35963 L 130.664,4.35498 L 130.588,4.349 L 130.512,4.34171
 L 130.437,4.33308 L 130.361,4.32314 L 130.286,4.31187 L 130.211,4.2993 L 130.136,4.28542 L 130.061,4.27022
 L 129.987,4.25372 L 129.913,4.23595 L 129.839,4.21686 L 129.765,4.1965 L 129.692,4.17487 L 129.62,4.15195
 L 129.547,4.12778 L 129.476,4.10234 L 129.404,4.07565 L 129.333,4.04773 L 129.263,4.01857 L 129.193,3.98819
 L 129.124,3.95659 L 129.055,3.9238 L 128.987,3.88979 L 128.919,3.85461 L 128.852,3.81825 L 128.786,3.78073
 L 128.72,3.74207 L 128.655,3.70226 L 128.591,3.66132 L 128.528,3.61926 L 128.465,3.5761 L 128.403,3.53186
 L 128.341,3.48654 L 128.281,3.44016 L 128.221,3.39272 L 128.163,3.34425 L 128.105,3.29477 L 128.048,3.24428
 L 127.991,3.19281 L 127.936,3.14037 L 127.882,3.08696 L 127.828,3.03261 L 127.776,2.97734 L 127.724,2.92117
 L 127.674,2.86411 L 127.624,2.80617 L 127.576,2.74738 L 127.529,2.68774 L 127.482,2.62729 L 127.437,2.56604
 L 127.393,2.50401 L 127.349,2.44122 L 127.307,2.37769 L 127.266,2.31342 L 127.227,2.24846 L 127.188,2.1828
 L 127.15,2.11649 L 127.114,2.04953 L 127.079,1.98195 L 127.045,1.91376 L 127.012,1.84499 L 126.981,1.77565
 L 126.95,1.70578 L 126.921,1.63539 L 126.893,1.5645 L 126.866,1.49312 L 126.841,1.4213 L 126.817,1.34904
 L 126.794,1.27638 L 126.772,1.20332 L 126.752,1.1299 L 126.733,1.05614 L 126.715,0.98204 L 126.699,0.907654
 L 126.683,0.832993 L 126.669,0.758072 L 126.657,0.682922 L 126.646,0.607574 L 126.636,0.532028 L 126.627,0.456329
 L 126.62,0.380478 L 126.614,0.30452 L 126.609,0.22847 L 126.606,0.152344 L 126.604,0.0761871 L 126.603,-0
 L 126.604,-0.0761871 L 126.606,-0.152344 L 126.609,-0.22847 L 126.614,-0.30452 L 126.62,-0.380478 L 126.627,-0.456329
 L 126.636,-0.532028 L 126.646,-0.607574 L 126.657,-0.682922 L 126.669,-0.758072 L 126.683,-0.832993 L 126.699,-0.907654
 L 126.715,-0.98204 L 126.733,-1.05614 L 126.752,-1.1299 L 126.772,-1.20332 L 126.794,-1.27638 L 126.817,-1.34904
 L 126.841,-1.4213 L 126.866,-1.49312 L 126.893,-1.5645 L 126.921,-1.63539 L 126.95,-1.70578 L 126.981,-1.77565
 L 127.012,-1.84499 L 127.045,-1.91376 L 127.079,-1.98195 L 127.114,-2.04953 L 127.15,-2.11649 L 127.188,-2.1828
 L 127.227,-2.24846 L 127.266,-2.31342 L 127.307,-2.37769 L 127.349,-2.44122 L 127.393,-2.50401 L 127.437,-2.56604
 L 127.482,-2.62729 L 127.529,-2.68774 L 127.576,-2.74738 L 127.624,-2.80617 L 127.674,-2.86411 L 127.724,-2.92117
 L 127.776,-2.97734 L 127.828,-3.03261 L 127.882,-3.08696 L 127.936,-3.14037 L 127.991,-3.19281 L 128.048,-3.24428
 L 128.105,-3.29477 L 128.163,-3.34425 L 128.221,-3.39272 L 128.281,-3.44016 L 128.341,-3.48654 L 128.403,-3.53186
 L 128.465,-3.5761 L 128.528,-3.61926 L 128.591,-3.66132 L 128.655,-3.70226 L 128.72,-3.74207 L 128.786,-3.78073
 L 128.852,-3.81825 L 128.919,-3.85461 L 128.987,-3.88979 L 129.055,-3.9238 L 129.124,-3.95659 L 129.193,-3.98819
 L 129.263,-4.01857 L 129.333,-4.04773 L 129.404,-4.07565 L 129.476,-4.10234 L 129.547,-4.12778 L 129.62,-4.15195
 L 129.692,-4.17487 L 129.765,-4.1965 L 129.839,-4.21686 L 129.913,-4.23595 L 129.987,-4.25372 L 130.061,-4.27022
 L 130.136,-4.28542 L 130.211,-4.2993 L 130.286,-4.31187 L 130.361,-4.32314 L 130.437,-4.33308 L 130.512,-4.34171
 L 130.588,-4.349 L 130.664,-4.35498 L 130.74,-4.35963 L 130.816,-4.36296 L 130.893,-4.36496 L 130.969,-4.36562
 L 131.045,-4.36496 L 131.121,-4.36296 L 131.197,-4.35963 L 131.273,-4.35498 L 131.349,-4.349 L 131.425,-4.34171
 L 131.501,-4.33308 L 131.576,-4.32314 L 131.652,-4.31187 L 131.727,-4.2993 L 131.802,-4.28542 L 131.876,-4.27022
 L 131.951,-4.25372 L 132.025,-4.23595 L 132.099,-4.21686 L 132.172,-4.1965 L 132.245,-4.17487 L 132.318,-4.15195
 L 132.39,-4.12778 L 132.462,-4.10234 L 132.533,-4.07565 L 132.604,-4.04773 L 132.675,-4.01857 L 132.744,-3.98819
 L 132.814,-3.95659 L 132.883,-3.9238 L 132.951,-3.88979 L 133.018,-3.85461 L 133.085,-3.81825 L 133.152,-3.78073
 L 133.217,-3.74207 L 133.282,-3.70226 L 133.346,-3.66132 L 133.41,-3.61926 L 133.473,-3.5761 L 133.535,-3.53186
 L 133.596,-3.48654 L 133.656,-3.44016 L 133.716,-3.39272 L 133.775,-3.34425 L 133.833,-3.29477 L 133.89,-3.24428
 L 133.946,-3.19281 L 134.001,-3.14037 L 134.056,-3.08696 L 134.109,-3.03261 L 134.162,-2.97734 L 134.213,-2.92117
 L 134.264,-2.86411 L 134.313,-2.80617 L 134.361,-2.74738 L 134.409,-2.68774 L 134.455,-2.62729 L 134.501,-2.56604
 L 134.545,-2.50401 L 134.588,-2.44122 L 134.63,-2.37769 L 134.671,-2.31342 L 134.711,-2.24846 L 134.749,-2.1828
 L 134.787,-2.11649 L 134.823,-2.04953 L 134.859,-1.98195 L 134.893,-1.91376 L 134.925,-1.84499 L 134.957,-1.77565
 L 134.987,-1.70578 L 135.016,-1.63539 L 135.044,-1.5645 L 135.071,-1.49312 L 135.097,-1.4213 L 135.121,-1.34904
 L 135.144,-1.27638 L 135.165,-1.20332 L 135.186,-1.1299 L 135.205,-1.05614 L 135.222,-0.98204 L 135.239,-0.907654
 L 135.254,-0.832993 L 135.268,-0.758072 L 135.281,-0.682922 L 135.292,-0.607574 L 135.302,-0.532028 L 135.31,-0.456329
 L 135.318,-0.380478 L 135.324,-0.30452 L 135.328,-0.22847 L 135.332,-0.152344 L 135.334,-0.0761871 L 135.334,-0
 L 135.334,0.0761871 L 135.332,0.152344 L 135.328,0.22847 L 135.324,0.30452 L 135.318,0.380478 L 135.31,0.456329
 L 135.302,0.532028 L 135.292,0.607574 L 135.281,0.682922 L 135.268,0.758072 L 135.254,0.832993 L 135.239,0.907654
 L 135.222,0.98204 L 135.205,1.05614 L 135.186,1.1299 L 135.165,1.20332 L 135.144,1.27638 L 135.121,1.34904
 L 135.097,1.4213 L 135.071,1.49312 L 135.044,1.5645 L 135.016,1.63539 L 134.987,1.70578 L 134.957,1.77565
 L 134.925,1.84499 L 134.893,1.91376 L 134.859,1.98195 L 134.823,2.04953 L 134.787,2.11649 L 134.749,2.1828
 L 134.711,2.24846 L 134.671,2.31342 L 134.63,2.37769 L 134.588,2.44122 L 134.545,2.50401 L 134.501,2.56604
 L 134.455,2.62729 L 134.409,2.68774 L 134.361,2.74738 L 134.313,2.80617 L 134.264,2.86411 L 134.213,2.92117
 L 134.162,2.97734 L 134.109,3.03261 L 134.056,3.08696 L 134.001,3.14037 L 133.946,3.19281 L 133.89,3.24428
 L 133.833,3.29477 L 133.775,3.34425 L 133.716,3.39272 L 133.656,3.44016 L 133.596,3.48654 L 133.535,3.53186
 L 133.473,3.5761 L 133.41,3.61926 L 133.346,3.66132 L 133.282,3.70226 L 133.217,3.74207 L 133.152,3.78073
 L 133.085,3.81825 L 133.018,3.85461 L 132.951,3.88979 L 132.883,3.9238 L 132.814,3.95659 L 132.744,3.98819
 L 132.675,4.01857 L 132.604,4.04773 L 132.533,4.07565 L 132.462,4.10234 L 132.39,4.12778 L 132.318,4.15195
 L 132.245,4.17487 L 132.172,4.1965 L 132.099,4.21686 L 132.025,4.23595 L 131.951,4.25372 L 131.876,4.27022
 L 131.802,4.28542 L 131.727,4.2993 L 131.652,4.31187 L 131.576,4.32314 L 131.501,4.33308 L 131.425,4.34171
 L 131.349,4.349 L 131.273,4.35498 L 131.197,4.35963 L 131.121,4.36296 L 131.045,4.36496 L 130.969,4.36562
 z
" stroke="black" fill="lightgray" stroke-width="0.5"/>
</svg>
