solid OpenSCAD_Model
  facet normal -0.980785 -0.195091 0
    outer loop
      vertex 8 10 0
      vertex 7.84776 10.7654 3.75
      vertex 7.84776 10.7654 0
    endloop
  endfacet
  facet normal -0.980785 -0.195091 0
    outer loop
      vertex 7.84776 10.7654 3.75
      vertex 8 10 0
      vertex 8 10 3.75
    endloop
  endfacet
  facet normal -0.195091 -0.980785 0
    outer loop
      vertex 6 12 0
      vertex 6.76537 11.8478 3.75
      vertex 6 12 3.75
    endloop
  endfacet
  facet normal -0.195091 -0.980785 -0
    outer loop
      vertex 6.76537 11.8478 3.75
      vertex 6 12 0
      vertex 6.76537 11.8478 0
    endloop
  endfacet
  facet normal 0.980785 0.19509 0
    outer loop
      vertex 4.15224 9.23463 3.75
      vertex 4 10 0
      vertex 4 10 3.75
    endloop
  endfacet
  facet normal 0.980785 0.19509 0
    outer loop
      vertex 4 10 0
      vertex 4.15224 9.23463 3.75
      vertex 4.15224 9.23463 0
    endloop
  endfacet
  facet normal -0.55557 0.83147 0
    outer loop
      vertex 7.41421 8.58579 0
      vertex 6.76537 8.15224 3.75
      vertex 7.41421 8.58579 3.75
    endloop
  endfacet
  facet normal -0.55557 0.83147 0
    outer loop
      vertex 6.76537 8.15224 3.75
      vertex 7.41421 8.58579 0
      vertex 6.76537 8.15224 0
    endloop
  endfacet
  facet normal -0.19509 0.980785 0
    outer loop
      vertex 6.76537 8.15224 0
      vertex 6 8 3.75
      vertex 6.76537 8.15224 3.75
    endloop
  endfacet
  facet normal -0.19509 0.980785 0
    outer loop
      vertex 6 8 3.75
      vertex 6.76537 8.15224 0
      vertex 6 8 0
    endloop
  endfacet
  facet normal -0.55557 -0.83147 0
    outer loop
      vertex 6.76537 11.8478 0
      vertex 7.41421 11.4142 3.75
      vertex 6.76537 11.8478 3.75
    endloop
  endfacet
  facet normal -0.55557 -0.83147 -0
    outer loop
      vertex 7.41421 11.4142 3.75
      vertex 6.76537 11.8478 0
      vertex 7.41421 11.4142 0
    endloop
  endfacet
  facet normal -0.83147 -0.55557 0
    outer loop
      vertex 7.84776 10.7654 0
      vertex 7.41421 11.4142 3.75
      vertex 7.41421 11.4142 0
    endloop
  endfacet
  facet normal -0.83147 -0.55557 0
    outer loop
      vertex 7.41421 11.4142 3.75
      vertex 7.84776 10.7654 0
      vertex 7.84776 10.7654 3.75
    endloop
  endfacet
  facet normal 0.195091 -0.980785 0
    outer loop
      vertex 5.23463 11.8478 0
      vertex 6 12 3.75
      vertex 5.23463 11.8478 3.75
    endloop
  endfacet
  facet normal 0.195091 -0.980785 0
    outer loop
      vertex 6 12 3.75
      vertex 5.23463 11.8478 0
      vertex 6 12 0
    endloop
  endfacet
  facet normal 0.55557 -0.83147 0
    outer loop
      vertex 4.58579 11.4142 0
      vertex 5.23463 11.8478 3.75
      vertex 4.58579 11.4142 3.75
    endloop
  endfacet
  facet normal 0.55557 -0.83147 0
    outer loop
      vertex 5.23463 11.8478 3.75
      vertex 4.58579 11.4142 0
      vertex 5.23463 11.8478 0
    endloop
  endfacet
  facet normal 0.980785 -0.19509 0
    outer loop
      vertex 4 10 3.75
      vertex 4.15224 10.7654 0
      vertex 4.15224 10.7654 3.75
    endloop
  endfacet
  facet normal 0.980785 -0.19509 0
    outer loop
      vertex 4.15224 10.7654 0
      vertex 4 10 3.75
      vertex 4 10 0
    endloop
  endfacet
  facet normal 0.83147 -0.55557 0
    outer loop
      vertex 4.15224 10.7654 3.75
      vertex 4.58579 11.4142 0
      vertex 4.58579 11.4142 3.75
    endloop
  endfacet
  facet normal 0.83147 -0.55557 0
    outer loop
      vertex 4.58579 11.4142 0
      vertex 4.15224 10.7654 3.75
      vertex 4.15224 10.7654 0
    endloop
  endfacet
  facet normal 0.83147 0.55557 0
    outer loop
      vertex 4.58579 8.58579 3.75
      vertex 4.15224 9.23463 0
      vertex 4.15224 9.23463 3.75
    endloop
  endfacet
  facet normal 0.83147 0.55557 0
    outer loop
      vertex 4.15224 9.23463 0
      vertex 4.58579 8.58579 3.75
      vertex 4.58579 8.58579 0
    endloop
  endfacet
  facet normal 0.19509 0.980785 -0
    outer loop
      vertex 6 8 0
      vertex 5.23463 8.15224 3.75
      vertex 6 8 3.75
    endloop
  endfacet
  facet normal 0.19509 0.980785 0
    outer loop
      vertex 5.23463 8.15224 3.75
      vertex 6 8 0
      vertex 5.23463 8.15224 0
    endloop
  endfacet
  facet normal 0.55557 0.83147 -0
    outer loop
      vertex 5.23463 8.15224 0
      vertex 4.58579 8.58579 3.75
      vertex 5.23463 8.15224 3.75
    endloop
  endfacet
  facet normal 0.55557 0.83147 0
    outer loop
      vertex 4.58579 8.58579 3.75
      vertex 5.23463 8.15224 0
      vertex 4.58579 8.58579 0
    endloop
  endfacet
  facet normal -0.83147 0.55557 0
    outer loop
      vertex 7.41421 8.58579 0
      vertex 7.84776 9.23463 3.75
      vertex 7.84776 9.23463 0
    endloop
  endfacet
  facet normal -0.83147 0.55557 0
    outer loop
      vertex 7.84776 9.23463 3.75
      vertex 7.41421 8.58579 0
      vertex 7.41421 8.58579 3.75
    endloop
  endfacet
  facet normal -0.980785 0.195091 0
    outer loop
      vertex 7.84776 9.23463 0
      vertex 8 10 3.75
      vertex 8 10 0
    endloop
  endfacet
  facet normal -0.980785 0.195091 0
    outer loop
      vertex 8 10 3.75
      vertex 7.84776 9.23463 0
      vertex 7.84776 9.23463 3.75
    endloop
  endfacet
  facet normal -0.980785 -0.19509 0
    outer loop
      vertex 9.6 10 3.75
      vertex 9.32597 11.3777 7
      vertex 9.32597 11.3777 3.75
    endloop
  endfacet
  facet normal -0.980785 -0.19509 0
    outer loop
      vertex 9.32597 11.3777 7
      vertex 9.6 10 3.75
      vertex 9.6 10 7
    endloop
  endfacet
  facet normal -0.19509 -0.980785 0
    outer loop
      vertex 6 13.6 3.75
      vertex 7.37766 13.326 7
      vertex 6 13.6 7
    endloop
  endfacet
  facet normal -0.19509 -0.980785 -0
    outer loop
      vertex 7.37766 13.326 7
      vertex 6 13.6 3.75
      vertex 7.37766 13.326 3.75
    endloop
  endfacet
  facet normal 0.980785 0.19509 0
    outer loop
      vertex 2.67403 8.62234 7
      vertex 2.4 10 3.75
      vertex 2.4 10 7
    endloop
  endfacet
  facet normal 0.980785 0.19509 0
    outer loop
      vertex 2.4 10 3.75
      vertex 2.67403 8.62234 7
      vertex 2.67403 8.62234 3.75
    endloop
  endfacet
  facet normal -0.19509 0.980785 0
    outer loop
      vertex 7.37766 6.67403 3.75
      vertex 6 6.4 7
      vertex 7.37766 6.67403 7
    endloop
  endfacet
  facet normal -0.19509 0.980785 0
    outer loop
      vertex 6 6.4 7
      vertex 7.37766 6.67403 3.75
      vertex 6 6.4 3.75
    endloop
  endfacet
  facet normal -0.55557 -0.83147 0
    outer loop
      vertex 7.37766 13.326 3.75
      vertex 8.54558 12.5456 7
      vertex 7.37766 13.326 7
    endloop
  endfacet
  facet normal -0.55557 -0.83147 -0
    outer loop
      vertex 8.54558 12.5456 7
      vertex 7.37766 13.326 3.75
      vertex 8.54558 12.5456 3.75
    endloop
  endfacet
  facet normal -0.83147 -0.55557 0
    outer loop
      vertex 9.32597 11.3777 3.75
      vertex 8.54558 12.5456 7
      vertex 8.54558 12.5456 3.75
    endloop
  endfacet
  facet normal -0.83147 -0.55557 0
    outer loop
      vertex 8.54558 12.5456 7
      vertex 9.32597 11.3777 3.75
      vertex 9.32597 11.3777 7
    endloop
  endfacet
  facet normal 0.19509 -0.980785 0
    outer loop
      vertex 4.62234 13.326 3.75
      vertex 6 13.6 7
      vertex 4.62234 13.326 7
    endloop
  endfacet
  facet normal 0.19509 -0.980785 0
    outer loop
      vertex 6 13.6 7
      vertex 4.62234 13.326 3.75
      vertex 6 13.6 3.75
    endloop
  endfacet
  facet normal 0 0 1
    outer loop
      vertex 8 10 3.75
      vertex 9.6 10 3.75
      vertex 9.32597 11.3777 3.75
    endloop
  endfacet
  facet normal 0 0 1
    outer loop
      vertex 7.84776 10.7654 3.75
      vertex 9.32597 11.3777 3.75
      vertex 8.54558 12.5456 3.75
    endloop
  endfacet
  facet normal 0 0 1
    outer loop
      vertex 9.6 10 3.75
      vertex 8 10 3.75
      vertex 9.32597 8.62234 3.75
    endloop
  endfacet
  facet normal -0 0 1
    outer loop
      vertex 7.84776 9.23463 3.75
      vertex 9.32597 8.62234 3.75
      vertex 8 10 3.75
    endloop
  endfacet
  facet normal 0 0 1
    outer loop
      vertex 9.32597 11.3777 3.75
      vertex 7.84776 10.7654 3.75
      vertex 8 10 3.75
    endloop
  endfacet
  facet normal 0 0 1
    outer loop
      vertex 8.54558 12.5456 3.75
      vertex 7.41421 11.4142 3.75
      vertex 7.84776 10.7654 3.75
    endloop
  endfacet
  facet normal 0 0 1
    outer loop
      vertex 7.37766 13.326 3.75
      vertex 7.41421 11.4142 3.75
      vertex 8.54558 12.5456 3.75
    endloop
  endfacet
  facet normal 0 0 1
    outer loop
      vertex 7.37766 13.326 3.75
      vertex 6.76537 11.8478 3.75
      vertex 7.41421 11.4142 3.75
    endloop
  endfacet
  facet normal 0 0 1
    outer loop
      vertex 6 13.6 3.75
      vertex 6.76537 11.8478 3.75
      vertex 7.37766 13.326 3.75
    endloop
  endfacet
  facet normal 0 0 1
    outer loop
      vertex 6 13.6 3.75
      vertex 6 12 3.75
      vertex 6.76537 11.8478 3.75
    endloop
  endfacet
  facet normal 0 0 1
    outer loop
      vertex 6 13.6 3.75
      vertex 5.23463 11.8478 3.75
      vertex 6 12 3.75
    endloop
  endfacet
  facet normal -0 0 1
    outer loop
      vertex 4.62234 13.326 3.75
      vertex 5.23463 11.8478 3.75
      vertex 6 13.6 3.75
    endloop
  endfacet
  facet normal 0 0 1
    outer loop
      vertex 4.62234 13.326 3.75
      vertex 4.58579 11.4142 3.75
      vertex 5.23463 11.8478 3.75
    endloop
  endfacet
  facet normal -0 0 1
    outer loop
      vertex 3.45442 12.5456 3.75
      vertex 4.58579 11.4142 3.75
      vertex 4.62234 13.326 3.75
    endloop
  endfacet
  facet normal 0 0 1
    outer loop
      vertex 4.58579 11.4142 3.75
      vertex 3.45442 12.5456 3.75
      vertex 4.15224 10.7654 3.75
    endloop
  endfacet
  facet normal -0 0 1
    outer loop
      vertex 2.67403 11.3777 3.75
      vertex 4.15224 10.7654 3.75
      vertex 3.45442 12.5456 3.75
    endloop
  endfacet
  facet normal 0 0 1
    outer loop
      vertex 9.32597 8.62234 3.75
      vertex 7.84776 9.23463 3.75
      vertex 8.54558 7.45442 3.75
    endloop
  endfacet
  facet normal -0 0 1
    outer loop
      vertex 7.41421 8.58579 3.75
      vertex 8.54558 7.45442 3.75
      vertex 7.84776 9.23463 3.75
    endloop
  endfacet
  facet normal 0 0 1
    outer loop
      vertex 7.41421 8.58579 3.75
      vertex 7.37766 6.67403 3.75
      vertex 8.54558 7.45442 3.75
    endloop
  endfacet
  facet normal -0 0 1
    outer loop
      vertex 6.76537 8.15224 3.75
      vertex 7.37766 6.67403 3.75
      vertex 7.41421 8.58579 3.75
    endloop
  endfacet
  facet normal -0 0 1
    outer loop
      vertex 6 8 3.75
      vertex 7.37766 6.67403 3.75
      vertex 6.76537 8.15224 3.75
    endloop
  endfacet
  facet normal 0 0 1
    outer loop
      vertex 6 8 3.75
      vertex 6 6.4 3.75
      vertex 7.37766 6.67403 3.75
    endloop
  endfacet
  facet normal 0 0 1
    outer loop
      vertex 5.23463 8.15224 3.75
      vertex 6 6.4 3.75
      vertex 6 8 3.75
    endloop
  endfacet
  facet normal 0 0 1
    outer loop
      vertex 5.23463 8.15224 3.75
      vertex 4.62234 6.67403 3.75
      vertex 6 6.4 3.75
    endloop
  endfacet
  facet normal 0 0 1
    outer loop
      vertex 4.58579 8.58579 3.75
      vertex 4.62234 6.67403 3.75
      vertex 5.23463 8.15224 3.75
    endloop
  endfacet
  facet normal 0 0 1
    outer loop
      vertex 3.45442 7.45442 3.75
      vertex 4.58579 8.58579 3.75
      vertex 4.15224 9.23463 3.75
    endloop
  endfacet
  facet normal 0 0 1
    outer loop
      vertex 2.67403 8.62234 3.75
      vertex 4.15224 9.23463 3.75
      vertex 4 10 3.75
    endloop
  endfacet
  facet normal 0 0 1
    outer loop
      vertex 4.15224 10.7654 3.75
      vertex 2.67403 11.3777 3.75
      vertex 4 10 3.75
    endloop
  endfacet
  facet normal 0 0 1
    outer loop
      vertex 4.58579 8.58579 3.75
      vertex 3.45442 7.45442 3.75
      vertex 4.62234 6.67403 3.75
    endloop
  endfacet
  facet normal 0 0 1
    outer loop
      vertex 2.4 10 3.75
      vertex 4 10 3.75
      vertex 2.67403 11.3777 3.75
    endloop
  endfacet
  facet normal 0 0 1
    outer loop
      vertex 4.15224 9.23463 3.75
      vertex 2.67403 8.62234 3.75
      vertex 3.45442 7.45442 3.75
    endloop
  endfacet
  facet normal 0 0 1
    outer loop
      vertex 4 10 3.75
      vertex 2.4 10 3.75
      vertex 2.67403 8.62234 3.75
    endloop
  endfacet
  facet normal 0.55557 -0.83147 0
    outer loop
      vertex 3.45442 12.5456 3.75
      vertex 4.62234 13.326 7
      vertex 3.45442 12.5456 7
    endloop
  endfacet
  facet normal 0.55557 -0.83147 0
    outer loop
      vertex 4.62234 13.326 7
      vertex 3.45442 12.5456 3.75
      vertex 4.62234 13.326 3.75
    endloop
  endfacet
  facet normal 0.83147 -0.55557 0
    outer loop
      vertex 2.67403 11.3777 7
      vertex 3.45442 12.5456 3.75
      vertex 3.45442 12.5456 7
    endloop
  endfacet
  facet normal 0.83147 -0.55557 0
    outer loop
      vertex 3.45442 12.5456 3.75
      vertex 2.67403 11.3777 7
      vertex 2.67403 11.3777 3.75
    endloop
  endfacet
  facet normal -0.980785 0.19509 0
    outer loop
      vertex 9.32597 8.62234 3.75
      vertex 9.6 10 7
      vertex 9.6 10 3.75
    endloop
  endfacet
  facet normal -0.980785 0.19509 0
    outer loop
      vertex 9.6 10 7
      vertex 9.32597 8.62234 3.75
      vertex 9.32597 8.62234 7
    endloop
  endfacet
  facet normal -0.55557 0.83147 0
    outer loop
      vertex 8.54558 7.45442 3.75
      vertex 7.37766 6.67403 7
      vertex 8.54558 7.45442 7
    endloop
  endfacet
  facet normal -0.55557 0.83147 0
    outer loop
      vertex 7.37766 6.67403 7
      vertex 8.54558 7.45442 3.75
      vertex 7.37766 6.67403 3.75
    endloop
  endfacet
  facet normal -0.83147 0.55557 0
    outer loop
      vertex 8.54558 7.45442 3.75
      vertex 9.32597 8.62234 7
      vertex 9.32597 8.62234 3.75
    endloop
  endfacet
  facet normal -0.83147 0.55557 0
    outer loop
      vertex 9.32597 8.62234 7
      vertex 8.54558 7.45442 3.75
      vertex 8.54558 7.45442 7
    endloop
  endfacet
  facet normal 0.83147 0.55557 0
    outer loop
      vertex 3.45442 7.45442 7
      vertex 2.67403 8.62234 3.75
      vertex 2.67403 8.62234 7
    endloop
  endfacet
  facet normal 0.83147 0.55557 0
    outer loop
      vertex 2.67403 8.62234 3.75
      vertex 3.45442 7.45442 7
      vertex 3.45442 7.45442 3.75
    endloop
  endfacet
  facet normal 0.19509 0.980785 -0
    outer loop
      vertex 6 6.4 3.75
      vertex 4.62234 6.67403 7
      vertex 6 6.4 7
    endloop
  endfacet
  facet normal 0.19509 0.980785 0
    outer loop
      vertex 4.62234 6.67403 7
      vertex 6 6.4 3.75
      vertex 4.62234 6.67403 3.75
    endloop
  endfacet
  facet normal 0.55557 0.83147 -0
    outer loop
      vertex 4.62234 6.67403 3.75
      vertex 3.45442 7.45442 7
      vertex 4.62234 6.67403 7
    endloop
  endfacet
  facet normal 0.55557 0.83147 0
    outer loop
      vertex 3.45442 7.45442 7
      vertex 4.62234 6.67403 3.75
      vertex 3.45442 7.45442 3.75
    endloop
  endfacet
  facet normal 0.980785 -0.19509 0
    outer loop
      vertex 2.4 10 7
      vertex 2.67403 11.3777 3.75
      vertex 2.67403 11.3777 7
    endloop
  endfacet
  facet normal 0.980785 -0.19509 0
    outer loop
      vertex 2.67403 11.3777 3.75
      vertex 2.4 10 7
      vertex 2.4 10 3.75
    endloop
  endfacet
  facet normal -0.980785 -0.19509 0
    outer loop
      vertex 26 10 0
      vertex 25.8478 10.7654 3.75
      vertex 25.8478 10.7654 0
    endloop
  endfacet
  facet normal -0.980785 -0.19509 0
    outer loop
      vertex 25.8478 10.7654 3.75
      vertex 26 10 0
      vertex 26 10 3.75
    endloop
  endfacet
  facet normal 0.195091 -0.980785 0
    outer loop
      vertex 23.2346 11.8478 0
      vertex 24 12 3.75
      vertex 23.2346 11.8478 3.75
    endloop
  endfacet
  facet normal 0.195091 -0.980785 0
    outer loop
      vertex 24 12 3.75
      vertex 23.2346 11.8478 0
      vertex 24 12 0
    endloop
  endfacet
  facet normal -0.19509 0.980785 0
    outer loop
      vertex 24.7654 8.15224 0
      vertex 24 8 3.75
      vertex 24.7654 8.15224 3.75
    endloop
  endfacet
  facet normal -0.19509 0.980785 0
    outer loop
      vertex 24 8 3.75
      vertex 24.7654 8.15224 0
      vertex 24 8 0
    endloop
  endfacet
  facet normal -0.555569 -0.83147 0
    outer loop
      vertex 24.7654 11.8478 0
      vertex 25.4142 11.4142 3.75
      vertex 24.7654 11.8478 3.75
    endloop
  endfacet
  facet normal -0.555569 -0.83147 -0
    outer loop
      vertex 25.4142 11.4142 3.75
      vertex 24.7654 11.8478 0
      vertex 25.4142 11.4142 0
    endloop
  endfacet
  facet normal -0.831469 -0.555571 0
    outer loop
      vertex 25.8478 10.7654 0
      vertex 25.4142 11.4142 3.75
      vertex 25.4142 11.4142 0
    endloop
  endfacet
  facet normal -0.831469 -0.555571 0
    outer loop
      vertex 25.4142 11.4142 3.75
      vertex 25.8478 10.7654 0
      vertex 25.8478 10.7654 3.75
    endloop
  endfacet
  facet normal -0.195092 -0.980785 0
    outer loop
      vertex 24 12 0
      vertex 24.7654 11.8478 3.75
      vertex 24 12 3.75
    endloop
  endfacet
  facet normal -0.195092 -0.980785 -0
    outer loop
      vertex 24.7654 11.8478 3.75
      vertex 24 12 0
      vertex 24.7654 11.8478 0
    endloop
  endfacet
  facet normal 0.83147 -0.555569 0
    outer loop
      vertex 22.1522 10.7654 3.75
      vertex 22.5858 11.4142 0
      vertex 22.5858 11.4142 3.75
    endloop
  endfacet
  facet normal 0.83147 -0.555569 0
    outer loop
      vertex 22.5858 11.4142 0
      vertex 22.1522 10.7654 3.75
      vertex 22.1522 10.7654 0
    endloop
  endfacet
  facet normal 0.980785 -0.19509 0
    outer loop
      vertex 22 10 3.75
      vertex 22.1522 10.7654 0
      vertex 22.1522 10.7654 3.75
    endloop
  endfacet
  facet normal 0.980785 -0.19509 0
    outer loop
      vertex 22.1522 10.7654 0
      vertex 22 10 3.75
      vertex 22 10 0
    endloop
  endfacet
  facet normal 0.555569 -0.83147 0
    outer loop
      vertex 22.5858 11.4142 0
      vertex 23.2346 11.8478 3.75
      vertex 22.5858 11.4142 3.75
    endloop
  endfacet
  facet normal 0.555569 -0.83147 0
    outer loop
      vertex 23.2346 11.8478 3.75
      vertex 22.5858 11.4142 0
      vertex 23.2346 11.8478 0
    endloop
  endfacet
  facet normal -0.980785 0.19509 0
    outer loop
      vertex 25.8478 9.23463 0
      vertex 26 10 3.75
      vertex 26 10 0
    endloop
  endfacet
  facet normal -0.980785 0.19509 0
    outer loop
      vertex 26 10 3.75
      vertex 25.8478 9.23463 0
      vertex 25.8478 9.23463 3.75
    endloop
  endfacet
  facet normal 0.19509 0.980785 -0
    outer loop
      vertex 24 8 0
      vertex 23.2346 8.15224 3.75
      vertex 24 8 3.75
    endloop
  endfacet
  facet normal 0.19509 0.980785 0
    outer loop
      vertex 23.2346 8.15224 3.75
      vertex 24 8 0
      vertex 23.2346 8.15224 0
    endloop
  endfacet
  facet normal 0.83147 0.555569 0
    outer loop
      vertex 22.5858 8.58579 3.75
      vertex 22.1522 9.23463 0
      vertex 22.1522 9.23463 3.75
    endloop
  endfacet
  facet normal 0.83147 0.555569 0
    outer loop
      vertex 22.1522 9.23463 0
      vertex 22.5858 8.58579 3.75
      vertex 22.5858 8.58579 0
    endloop
  endfacet
  facet normal 0.980785 0.19509 0
    outer loop
      vertex 22.1522 9.23463 3.75
      vertex 22 10 0
      vertex 22 10 3.75
    endloop
  endfacet
  facet normal 0.980785 0.19509 0
    outer loop
      vertex 22 10 0
      vertex 22.1522 9.23463 3.75
      vertex 22.1522 9.23463 0
    endloop
  endfacet
  facet normal -0.831469 0.555571 0
    outer loop
      vertex 25.4142 8.58579 0
      vertex 25.8478 9.23463 3.75
      vertex 25.8478 9.23463 0
    endloop
  endfacet
  facet normal -0.831469 0.555571 0
    outer loop
      vertex 25.8478 9.23463 3.75
      vertex 25.4142 8.58579 0
      vertex 25.4142 8.58579 3.75
    endloop
  endfacet
  facet normal -0.555569 0.83147 0
    outer loop
      vertex 25.4142 8.58579 0
      vertex 24.7654 8.15224 3.75
      vertex 25.4142 8.58579 3.75
    endloop
  endfacet
  facet normal -0.555569 0.83147 0
    outer loop
      vertex 24.7654 8.15224 3.75
      vertex 25.4142 8.58579 0
      vertex 24.7654 8.15224 0
    endloop
  endfacet
  facet normal 0.555569 0.83147 -0
    outer loop
      vertex 23.2346 8.15224 0
      vertex 22.5858 8.58579 3.75
      vertex 23.2346 8.15224 3.75
    endloop
  endfacet
  facet normal 0.555569 0.83147 0
    outer loop
      vertex 22.5858 8.58579 3.75
      vertex 23.2346 8.15224 0
      vertex 22.5858 8.58579 0
    endloop
  endfacet
  facet normal -0.980785 -0.19509 0
    outer loop
      vertex 27.6 10 3.75
      vertex 27.326 11.3777 7
      vertex 27.326 11.3777 3.75
    endloop
  endfacet
  facet normal -0.980785 -0.19509 0
    outer loop
      vertex 27.326 11.3777 7
      vertex 27.6 10 3.75
      vertex 27.6 10 7
    endloop
  endfacet
  facet normal 0.19509 -0.980785 0
    outer loop
      vertex 22.6223 13.326 3.75
      vertex 24 13.6 7
      vertex 22.6223 13.326 7
    endloop
  endfacet
  facet normal 0.19509 -0.980785 0
    outer loop
      vertex 24 13.6 7
      vertex 22.6223 13.326 3.75
      vertex 24 13.6 3.75
    endloop
  endfacet
  facet normal -0.19509 0.980785 0
    outer loop
      vertex 25.3777 6.67403 3.75
      vertex 24 6.4 7
      vertex 25.3777 6.67403 7
    endloop
  endfacet
  facet normal -0.19509 0.980785 0
    outer loop
      vertex 24 6.4 7
      vertex 25.3777 6.67403 3.75
      vertex 24 6.4 3.75
    endloop
  endfacet
  facet normal -0.55557 -0.83147 0
    outer loop
      vertex 25.3777 13.326 3.75
      vertex 26.5456 12.5456 7
      vertex 25.3777 13.326 7
    endloop
  endfacet
  facet normal -0.55557 -0.83147 -0
    outer loop
      vertex 26.5456 12.5456 7
      vertex 25.3777 13.326 3.75
      vertex 26.5456 12.5456 3.75
    endloop
  endfacet
  facet normal -0.83147 -0.55557 0
    outer loop
      vertex 27.326 11.3777 3.75
      vertex 26.5456 12.5456 7
      vertex 26.5456 12.5456 3.75
    endloop
  endfacet
  facet normal -0.83147 -0.55557 0
    outer loop
      vertex 26.5456 12.5456 7
      vertex 27.326 11.3777 3.75
      vertex 27.326 11.3777 7
    endloop
  endfacet
  facet normal -0.19509 -0.980785 0
    outer loop
      vertex 24 13.6 3.75
      vertex 25.3777 13.326 7
      vertex 24 13.6 7
    endloop
  endfacet
  facet normal -0.19509 -0.980785 -0
    outer loop
      vertex 25.3777 13.326 7
      vertex 24 13.6 3.75
      vertex 25.3777 13.326 3.75
    endloop
  endfacet
  facet normal 0.83147 -0.555569 0
    outer loop
      vertex 20.674 11.3777 7
      vertex 21.4544 12.5456 3.75
      vertex 21.4544 12.5456 7
    endloop
  endfacet
  facet normal 0.83147 -0.555569 0
    outer loop
      vertex 21.4544 12.5456 3.75
      vertex 20.674 11.3777 7
      vertex 20.674 11.3777 3.75
    endloop
  endfacet
  facet normal 0 0 1
    outer loop
      vertex 26 10 3.75
      vertex 27.6 10 3.75
      vertex 27.326 11.3777 3.75
    endloop
  endfacet
  facet normal 0 0 1
    outer loop
      vertex 25.8478 10.7654 3.75
      vertex 27.326 11.3777 3.75
      vertex 26.5456 12.5456 3.75
    endloop
  endfacet
  facet normal 0 0 1
    outer loop
      vertex 27.6 10 3.75
      vertex 26 10 3.75
      vertex 27.326 8.62234 3.75
    endloop
  endfacet
  facet normal -0 0 1
    outer loop
      vertex 25.8478 9.23463 3.75
      vertex 27.326 8.62234 3.75
      vertex 26 10 3.75
    endloop
  endfacet
  facet normal 0 0 1
    outer loop
      vertex 27.326 11.3777 3.75
      vertex 25.8478 10.7654 3.75
      vertex 26 10 3.75
    endloop
  endfacet
  facet normal 0 0 1
    outer loop
      vertex 26.5456 12.5456 3.75
      vertex 25.4142 11.4142 3.75
      vertex 25.8478 10.7654 3.75
    endloop
  endfacet
  facet normal 0 0 1
    outer loop
      vertex 25.3777 13.326 3.75
      vertex 25.4142 11.4142 3.75
      vertex 26.5456 12.5456 3.75
    endloop
  endfacet
  facet normal 0 0 1
    outer loop
      vertex 25.3777 13.326 3.75
      vertex 24.7654 11.8478 3.75
      vertex 25.4142 11.4142 3.75
    endloop
  endfacet
  facet normal 0 0 1
    outer loop
      vertex 24 13.6 3.75
      vertex 24.7654 11.8478 3.75
      vertex 25.3777 13.326 3.75
    endloop
  endfacet
  facet normal 0 0 1
    outer loop
      vertex 24 13.6 3.75
      vertex 24 12 3.75
      vertex 24.7654 11.8478 3.75
    endloop
  endfacet
  facet normal 0 0 1
    outer loop
      vertex 24 13.6 3.75
      vertex 23.2346 11.8478 3.75
      vertex 24 12 3.75
    endloop
  endfacet
  facet normal -0 0 1
    outer loop
      vertex 22.6223 13.326 3.75
      vertex 23.2346 11.8478 3.75
      vertex 24 13.6 3.75
    endloop
  endfacet
  facet normal 0 0 1
    outer loop
      vertex 22.6223 13.326 3.75
      vertex 22.5858 11.4142 3.75
      vertex 23.2346 11.8478 3.75
    endloop
  endfacet
  facet normal -0 0 1
    outer loop
      vertex 21.4544 12.5456 3.75
      vertex 22.5858 11.4142 3.75
      vertex 22.6223 13.326 3.75
    endloop
  endfacet
  facet normal 0 0 1
    outer loop
      vertex 22.5858 11.4142 3.75
      vertex 21.4544 12.5456 3.75
      vertex 22.1522 10.7654 3.75
    endloop
  endfacet
  facet normal -0 0 1
    outer loop
      vertex 20.674 11.3777 3.75
      vertex 22.1522 10.7654 3.75
      vertex 21.4544 12.5456 3.75
    endloop
  endfacet
  facet normal 0 0 1
    outer loop
      vertex 27.326 8.62234 3.75
      vertex 25.8478 9.23463 3.75
      vertex 26.5456 7.45442 3.75
    endloop
  endfacet
  facet normal -0 0 1
    outer loop
      vertex 25.4142 8.58579 3.75
      vertex 26.5456 7.45442 3.75
      vertex 25.8478 9.23463 3.75
    endloop
  endfacet
  facet normal 0 0 1
    outer loop
      vertex 25.4142 8.58579 3.75
      vertex 25.3777 6.67403 3.75
      vertex 26.5456 7.45442 3.75
    endloop
  endfacet
  facet normal -0 0 1
    outer loop
      vertex 24.7654 8.15224 3.75
      vertex 25.3777 6.67403 3.75
      vertex 25.4142 8.58579 3.75
    endloop
  endfacet
  facet normal -0 0 1
    outer loop
      vertex 24 8 3.75
      vertex 25.3777 6.67403 3.75
      vertex 24.7654 8.15224 3.75
    endloop
  endfacet
  facet normal 0 0 1
    outer loop
      vertex 24 8 3.75
      vertex 24 6.4 3.75
      vertex 25.3777 6.67403 3.75
    endloop
  endfacet
  facet normal 0 0 1
    outer loop
      vertex 23.2346 8.15224 3.75
      vertex 24 6.4 3.75
      vertex 24 8 3.75
    endloop
  endfacet
  facet normal 0 0 1
    outer loop
      vertex 23.2346 8.15224 3.75
      vertex 22.6223 6.67403 3.75
      vertex 24 6.4 3.75
    endloop
  endfacet
  facet normal 0 0 1
    outer loop
      vertex 22.5858 8.58579 3.75
      vertex 22.6223 6.67403 3.75
      vertex 23.2346 8.15224 3.75
    endloop
  endfacet
  facet normal 0 0 1
    outer loop
      vertex 21.4544 7.45442 3.75
      vertex 22.5858 8.58579 3.75
      vertex 22.1522 9.23463 3.75
    endloop
  endfacet
  facet normal 0 0 1
    outer loop
      vertex 20.674 8.62234 3.75
      vertex 22.1522 9.23463 3.75
      vertex 22 10 3.75
    endloop
  endfacet
  facet normal 0 0 1
    outer loop
      vertex 22.1522 10.7654 3.75
      vertex 20.674 11.3777 3.75
      vertex 22 10 3.75
    endloop
  endfacet
  facet normal 0 0 1
    outer loop
      vertex 22.5858 8.58579 3.75
      vertex 21.4544 7.45442 3.75
      vertex 22.6223 6.67403 3.75
    endloop
  endfacet
  facet normal 0 0 1
    outer loop
      vertex 20.4 10 3.75
      vertex 22 10 3.75
      vertex 20.674 11.3777 3.75
    endloop
  endfacet
  facet normal 0 0 1
    outer loop
      vertex 22.1522 9.23463 3.75
      vertex 20.674 8.62234 3.75
      vertex 21.4544 7.45442 3.75
    endloop
  endfacet
  facet normal 0 0 1
    outer loop
      vertex 22 10 3.75
      vertex 20.4 10 3.75
      vertex 20.674 8.62234 3.75
    endloop
  endfacet
  facet normal 0.980785 -0.195091 0
    outer loop
      vertex 20.4 10 7
      vertex 20.674 11.3777 3.75
      vertex 20.674 11.3777 7
    endloop
  endfacet
  facet normal 0.980785 -0.195091 0
    outer loop
      vertex 20.674 11.3777 3.75
      vertex 20.4 10 7
      vertex 20.4 10 3.75
    endloop
  endfacet
  facet normal 0.55557 -0.83147 0
    outer loop
      vertex 21.4544 12.5456 3.75
      vertex 22.6223 13.326 7
      vertex 21.4544 12.5456 7
    endloop
  endfacet
  facet normal 0.55557 -0.83147 0
    outer loop
      vertex 22.6223 13.326 7
      vertex 21.4544 12.5456 3.75
      vertex 22.6223 13.326 3.75
    endloop
  endfacet
  facet normal -0.980785 0.19509 0
    outer loop
      vertex 27.326 8.62234 3.75
      vertex 27.6 10 7
      vertex 27.6 10 3.75
    endloop
  endfacet
  facet normal -0.980785 0.19509 0
    outer loop
      vertex 27.6 10 7
      vertex 27.326 8.62234 3.75
      vertex 27.326 8.62234 7
    endloop
  endfacet
  facet normal -0.55557 0.83147 0
    outer loop
      vertex 26.5456 7.45442 3.75
      vertex 25.3777 6.67403 7
      vertex 26.5456 7.45442 7
    endloop
  endfacet
  facet normal -0.55557 0.83147 0
    outer loop
      vertex 25.3777 6.67403 7
      vertex 26.5456 7.45442 3.75
      vertex 25.3777 6.67403 3.75
    endloop
  endfacet
  facet normal 0.19509 0.980785 -0
    outer loop
      vertex 24 6.4 3.75
      vertex 22.6223 6.67403 7
      vertex 24 6.4 7
    endloop
  endfacet
  facet normal 0.19509 0.980785 0
    outer loop
      vertex 22.6223 6.67403 7
      vertex 24 6.4 3.75
      vertex 22.6223 6.67403 3.75
    endloop
  endfacet
  facet normal 0.83147 0.555569 0
    outer loop
      vertex 21.4544 7.45442 7
      vertex 20.674 8.62234 3.75
      vertex 20.674 8.62234 7
    endloop
  endfacet
  facet normal 0.83147 0.555569 0
    outer loop
      vertex 20.674 8.62234 3.75
      vertex 21.4544 7.45442 7
      vertex 21.4544 7.45442 3.75
    endloop
  endfacet
  facet normal 0.980785 0.195091 0
    outer loop
      vertex 20.674 8.62234 7
      vertex 20.4 10 3.75
      vertex 20.4 10 7
    endloop
  endfacet
  facet normal 0.980785 0.195091 0
    outer loop
      vertex 20.4 10 3.75
      vertex 20.674 8.62234 7
      vertex 20.674 8.62234 3.75
    endloop
  endfacet
  facet normal -0.83147 0.55557 0
    outer loop
      vertex 26.5456 7.45442 3.75
      vertex 27.326 8.62234 7
      vertex 27.326 8.62234 3.75
    endloop
  endfacet
  facet normal -0.83147 0.55557 0
    outer loop
      vertex 27.326 8.62234 7
      vertex 26.5456 7.45442 3.75
      vertex 26.5456 7.45442 7
    endloop
  endfacet
  facet normal 0.55557 0.83147 -0
    outer loop
      vertex 22.6223 6.67403 3.75
      vertex 21.4544 7.45442 7
      vertex 22.6223 6.67403 7
    endloop
  endfacet
  facet normal 0.55557 0.83147 0
    outer loop
      vertex 21.4544 7.45442 7
      vertex 22.6223 6.67403 3.75
      vertex 21.4544 7.45442 3.75
    endloop
  endfacet
  facet normal -1 0 0
    outer loop
      vertex 0 27 0
      vertex 0 20 7
      vertex 0 27 27
    endloop
  endfacet
  facet normal -1 0 0
    outer loop
      vertex 0 0 0
      vertex 0 20 7
      vertex 0 27 0
    endloop
  endfacet
  facet normal -1 -0 0
    outer loop
      vertex 0 20 7
      vertex 0 0 0
      vertex 0 0 7
    endloop
  endfacet
  facet normal -1 -0 0
    outer loop
      vertex 0 27 27
      vertex 0 20 7
      vertex 0 20 27
    endloop
  endfacet
  facet normal 0 0 1
    outer loop
      vertex 10.25 27 27
      vertex 0 27 27
      vertex 10.25 24.5 27
    endloop
  endfacet
  facet normal 0 0 1
    outer loop
      vertex 19.75 24.5 27
      vertex 30 27 27
      vertex 19.75 27 27
    endloop
  endfacet
  facet normal 0 0 1
    outer loop
      vertex 30 27 27
      vertex 19.75 24.5 27
      vertex 30 20 27
    endloop
  endfacet
  facet normal -0 0 1
    outer loop
      vertex 10.25 24.5 27
      vertex 30 20 27
      vertex 19.75 24.5 27
    endloop
  endfacet
  facet normal 0 0 1
    outer loop
      vertex 10.25 24.5 27
      vertex 0 20 27
      vertex 30 20 27
    endloop
  endfacet
  facet normal 0 0 1
    outer loop
      vertex 0 20 27
      vertex 10.25 24.5 27
      vertex 0 27 27
    endloop
  endfacet
  facet normal 1 0 0
    outer loop
      vertex 30 20 7
      vertex 30 27 27
      vertex 30 20 27
    endloop
  endfacet
  facet normal 1 0 0
    outer loop
      vertex 30 27 27
      vertex 30 20 7
      vertex 30 27 0
    endloop
  endfacet
  facet normal 1 0 0
    outer loop
      vertex 30 0 0
      vertex 30 20 7
      vertex 30 0 7
    endloop
  endfacet
  facet normal 1 0 0
    outer loop
      vertex 30 20 7
      vertex 30 0 0
      vertex 30 27 0
    endloop
  endfacet
  facet normal 0 1 -0
    outer loop
      vertex 30 27 0
      vertex 19.75 27 27
      vertex 30 27 27
    endloop
  endfacet
  facet normal 0 1 0
    outer loop
      vertex 19.75 27 27
      vertex 30 27 0
      vertex 19.75 27 0
    endloop
  endfacet
  facet normal 0 1 -0
    outer loop
      vertex 10.25 27 0
      vertex 0 27 27
      vertex 10.25 27 27
    endloop
  endfacet
  facet normal 0 1 0
    outer loop
      vertex 0 27 27
      vertex 10.25 27 0
      vertex 0 27 0
    endloop
  endfacet
  facet normal 0 0 -1
    outer loop
      vertex 10.25 0 0
      vertex 8 10 0
      vertex 10.25 27 0
    endloop
  endfacet
  facet normal 0 0 -1
    outer loop
      vertex 10.25 0 0
      vertex 7.84776 9.23463 0
      vertex 8 10 0
    endloop
  endfacet
  facet normal 0 0 -1
    outer loop
      vertex 10.25 0 0
      vertex 7.41421 8.58579 0
      vertex 7.84776 9.23463 0
    endloop
  endfacet
  facet normal 0 0 -1
    outer loop
      vertex 10.25 0 0
      vertex 6.76537 8.15224 0
      vertex 7.41421 8.58579 0
    endloop
  endfacet
  facet normal 0 0 -1
    outer loop
      vertex 10.25 0 0
      vertex 6 8 0
      vertex 6.76537 8.15224 0
    endloop
  endfacet
  facet normal 0 0 -1
    outer loop
      vertex 0 0 0
      vertex 6 8 0
      vertex 10.25 0 0
    endloop
  endfacet
  facet normal -0 0 -1
    outer loop
      vertex 6 8 0
      vertex 0 0 0
      vertex 5.23463 8.15224 0
    endloop
  endfacet
  facet normal -0 0 -1
    outer loop
      vertex 5.23463 8.15224 0
      vertex 0 0 0
      vertex 4.58579 8.58579 0
    endloop
  endfacet
  facet normal -0 0 -1
    outer loop
      vertex 4.15224 9.23463 0
      vertex 0 0 0
      vertex 4 10 0
    endloop
  endfacet
  facet normal -0 0 -1
    outer loop
      vertex 4.58579 8.58579 0
      vertex 0 0 0
      vertex 4.15224 9.23463 0
    endloop
  endfacet
  facet normal 0 0 -1
    outer loop
      vertex 7.84776 10.7654 0
      vertex 10.25 27 0
      vertex 8 10 0
    endloop
  endfacet
  facet normal 0 0 -1
    outer loop
      vertex 7.41421 11.4142 0
      vertex 10.25 27 0
      vertex 7.84776 10.7654 0
    endloop
  endfacet
  facet normal 0 0 -1
    outer loop
      vertex 6.76537 11.8478 0
      vertex 10.25 27 0
      vertex 7.41421 11.4142 0
    endloop
  endfacet
  facet normal 0 0 -1
    outer loop
      vertex 6 12 0
      vertex 10.25 27 0
      vertex 6.76537 11.8478 0
    endloop
  endfacet
  facet normal 0 0 -1
    outer loop
      vertex 0 27 0
      vertex 6 12 0
      vertex 5.23463 11.8478 0
    endloop
  endfacet
  facet normal 0 0 -1
    outer loop
      vertex 0 27 0
      vertex 5.23463 11.8478 0
      vertex 4.58579 11.4142 0
    endloop
  endfacet
  facet normal 0 0 -1
    outer loop
      vertex 0 27 0
      vertex 4.58579 11.4142 0
      vertex 4.15224 10.7654 0
    endloop
  endfacet
  facet normal 0 0 -1
    outer loop
      vertex 0 27 0
      vertex 4 10 0
      vertex 0 0 0
    endloop
  endfacet
  facet normal 0 0 -1
    outer loop
      vertex 4 10 0
      vertex 0 27 0
      vertex 4.15224 10.7654 0
    endloop
  endfacet
  facet normal 0 0 -1
    outer loop
      vertex 6 12 0
      vertex 0 27 0
      vertex 10.25 27 0
    endloop
  endfacet
  facet normal 0 0 -1
    outer loop
      vertex 30 0 0
      vertex 26 10 0
      vertex 30 27 0
    endloop
  endfacet
  facet normal 0 0 -1
    outer loop
      vertex 30 0 0
      vertex 25.8478 9.23463 0
      vertex 26 10 0
    endloop
  endfacet
  facet normal 0 0 -1
    outer loop
      vertex 30 0 0
      vertex 25.4142 8.58579 0
      vertex 25.8478 9.23463 0
    endloop
  endfacet
  facet normal 0 0 -1
    outer loop
      vertex 30 0 0
      vertex 24.7654 8.15224 0
      vertex 25.4142 8.58579 0
    endloop
  endfacet
  facet normal 0 0 -1
    outer loop
      vertex 30 0 0
      vertex 24 8 0
      vertex 24.7654 8.15224 0
    endloop
  endfacet
  facet normal 0 0 -1
    outer loop
      vertex 19.75 0 0
      vertex 24 8 0
      vertex 30 0 0
    endloop
  endfacet
  facet normal -0 0 -1
    outer loop
      vertex 24 8 0
      vertex 19.75 0 0
      vertex 23.2346 8.15224 0
    endloop
  endfacet
  facet normal -0 0 -1
    outer loop
      vertex 22.1522 9.23463 0
      vertex 19.75 0 0
      vertex 22 10 0
    endloop
  endfacet
  facet normal -0 0 -1
    outer loop
      vertex 22.5858 8.58579 0
      vertex 19.75 0 0
      vertex 22.1522 9.23463 0
    endloop
  endfacet
  facet normal -0 0 -1
    outer loop
      vertex 23.2346 8.15224 0
      vertex 19.75 0 0
      vertex 22.5858 8.58579 0
    endloop
  endfacet
  facet normal 0 0 -1
    outer loop
      vertex 25.8478 10.7654 0
      vertex 30 27 0
      vertex 26 10 0
    endloop
  endfacet
  facet normal 0 0 -1
    outer loop
      vertex 25.4142 11.4142 0
      vertex 30 27 0
      vertex 25.8478 10.7654 0
    endloop
  endfacet
  facet normal 0 0 -1
    outer loop
      vertex 24.7654 11.8478 0
      vertex 30 27 0
      vertex 25.4142 11.4142 0
    endloop
  endfacet
  facet normal 0 0 -1
    outer loop
      vertex 24 12 0
      vertex 30 27 0
      vertex 24.7654 11.8478 0
    endloop
  endfacet
  facet normal 0 0 -1
    outer loop
      vertex 19.75 27 0
      vertex 24 12 0
      vertex 23.2346 11.8478 0
    endloop
  endfacet
  facet normal 0 0 -1
    outer loop
      vertex 19.75 27 0
      vertex 23.2346 11.8478 0
      vertex 22.5858 11.4142 0
    endloop
  endfacet
  facet normal 0 0 -1
    outer loop
      vertex 19.75 27 0
      vertex 22.5858 11.4142 0
      vertex 22.1522 10.7654 0
    endloop
  endfacet
  facet normal 0 0 -1
    outer loop
      vertex 19.75 27 0
      vertex 22 10 0
      vertex 19.75 0 0
    endloop
  endfacet
  facet normal 0 0 -1
    outer loop
      vertex 24 12 0
      vertex 19.75 27 0
      vertex 30 27 0
    endloop
  endfacet
  facet normal 0 0 -1
    outer loop
      vertex 22 10 0
      vertex 19.75 27 0
      vertex 22.1522 10.7654 0
    endloop
  endfacet
  facet normal 0 -1 0
    outer loop
      vertex 0 0 7
      vertex 10.25 0 2.75
      vertex 30 0 7
    endloop
  endfacet
  facet normal 0 -1 0
    outer loop
      vertex 0 0 0
      vertex 10.25 0 2.75
      vertex 0 0 7
    endloop
  endfacet
  facet normal 0 -1 -0
    outer loop
      vertex 10.25 0 2.75
      vertex 0 0 0
      vertex 10.25 0 0
    endloop
  endfacet
  facet normal 0 -1 0
    outer loop
      vertex 19.75 0 2.75
      vertex 30 0 7
      vertex 10.25 0 2.75
    endloop
  endfacet
  facet normal 0 -1 0
    outer loop
      vertex 30 0 0
      vertex 19.75 0 2.75
      vertex 19.75 0 0
    endloop
  endfacet
  facet normal 0 -1 0
    outer loop
      vertex 19.75 0 2.75
      vertex 30 0 0
      vertex 30 0 7
    endloop
  endfacet
  facet normal 0 0 1
    outer loop
      vertex 30 20 7
      vertex 27.6 10 7
      vertex 30 0 7
    endloop
  endfacet
  facet normal 0 0 1
    outer loop
      vertex 30 20 7
      vertex 27.326 11.3777 7
      vertex 27.6 10 7
    endloop
  endfacet
  facet normal 0 0 1
    outer loop
      vertex 30 20 7
      vertex 26.5456 12.5456 7
      vertex 27.326 11.3777 7
    endloop
  endfacet
  facet normal 0 0 1
    outer loop
      vertex 30 20 7
      vertex 25.3777 13.326 7
      vertex 26.5456 12.5456 7
    endloop
  endfacet
  facet normal 0 0 1
    outer loop
      vertex 30 20 7
      vertex 24 13.6 7
      vertex 25.3777 13.326 7
    endloop
  endfacet
  facet normal 0 0 1
    outer loop
      vertex 30 20 7
      vertex 22.6223 13.326 7
      vertex 24 13.6 7
    endloop
  endfacet
  facet normal 0 0 1
    outer loop
      vertex 7.37766 13.326 7
      vertex 22.6223 13.326 7
      vertex 30 20 7
    endloop
  endfacet
  facet normal 0 0 1
    outer loop
      vertex 20.674 11.3777 7
      vertex 9.6 10 7
      vertex 20.4 10 7
    endloop
  endfacet
  facet normal 0 0 1
    outer loop
      vertex 9.32597 11.3777 7
      vertex 20.674 11.3777 7
      vertex 21.4544 12.5456 7
    endloop
  endfacet
  facet normal 0 0 1
    outer loop
      vertex 22.6223 13.326 7
      vertex 7.37766 13.326 7
      vertex 21.4544 12.5456 7
    endloop
  endfacet
  facet normal 0 0 1
    outer loop
      vertex 20.674 11.3777 7
      vertex 9.32597 11.3777 7
      vertex 9.6 10 7
    endloop
  endfacet
  facet normal 0 0 1
    outer loop
      vertex 21.4544 12.5456 7
      vertex 8.54558 12.5456 7
      vertex 9.32597 11.3777 7
    endloop
  endfacet
  facet normal 0 0 1
    outer loop
      vertex 21.4544 12.5456 7
      vertex 7.37766 13.326 7
      vertex 8.54558 12.5456 7
    endloop
  endfacet
  facet normal -0 0 1
    outer loop
      vertex 0 20 7
      vertex 7.37766 13.326 7
      vertex 30 20 7
    endloop
  endfacet
  facet normal 0 0 1
    outer loop
      vertex 7.37766 13.326 7
      vertex 0 20 7
      vertex 6 13.6 7
    endloop
  endfacet
  facet normal 0 0 1
    outer loop
      vertex 2.67403 11.3777 7
      vertex 0 20 7
      vertex 2.4 10 7
    endloop
  endfacet
  facet normal 0 0 1
    outer loop
      vertex 3.45442 12.5456 7
      vertex 0 20 7
      vertex 2.67403 11.3777 7
    endloop
  endfacet
  facet normal 0 0 1
    outer loop
      vertex 4.62234 13.326 7
      vertex 0 20 7
      vertex 3.45442 12.5456 7
    endloop
  endfacet
  facet normal 0 0 1
    outer loop
      vertex 6 13.6 7
      vertex 0 20 7
      vertex 4.62234 13.326 7
    endloop
  endfacet
  facet normal -0 0 1
    outer loop
      vertex 27.326 8.62234 7
      vertex 30 0 7
      vertex 27.6 10 7
    endloop
  endfacet
  facet normal -0 0 1
    outer loop
      vertex 26.5456 7.45442 7
      vertex 30 0 7
      vertex 27.326 8.62234 7
    endloop
  endfacet
  facet normal -0 0 1
    outer loop
      vertex 25.3777 6.67403 7
      vertex 30 0 7
      vertex 26.5456 7.45442 7
    endloop
  endfacet
  facet normal -0 0 1
    outer loop
      vertex 24 6.4 7
      vertex 30 0 7
      vertex 25.3777 6.67403 7
    endloop
  endfacet
  facet normal 0 0 1
    outer loop
      vertex 22.6223 6.67403 7
      vertex 30 0 7
      vertex 24 6.4 7
    endloop
  endfacet
  facet normal 0 0 1
    outer loop
      vertex 7.37766 6.67403 7
      vertex 22.6223 6.67403 7
      vertex 21.4544 7.45442 7
    endloop
  endfacet
  facet normal -0 0 1
    outer loop
      vertex 9.6 10 7
      vertex 20.674 8.62234 7
      vertex 20.4 10 7
    endloop
  endfacet
  facet normal 0 0 1
    outer loop
      vertex 9.32597 8.62234 7
      vertex 20.674 8.62234 7
      vertex 9.6 10 7
    endloop
  endfacet
  facet normal 0 0 1
    outer loop
      vertex 20.674 8.62234 7
      vertex 9.32597 8.62234 7
      vertex 21.4544 7.45442 7
    endloop
  endfacet
  facet normal 0 0 1
    outer loop
      vertex 8.54558 7.45442 7
      vertex 21.4544 7.45442 7
      vertex 9.32597 8.62234 7
    endloop
  endfacet
  facet normal 0 0 1
    outer loop
      vertex 7.37766 6.67403 7
      vertex 21.4544 7.45442 7
      vertex 8.54558 7.45442 7
    endloop
  endfacet
  facet normal 0 0 1
    outer loop
      vertex 22.6223 6.67403 7
      vertex 7.37766 6.67403 7
      vertex 30 0 7
    endloop
  endfacet
  facet normal 0 0 1
    outer loop
      vertex 0 0 7
      vertex 7.37766 6.67403 7
      vertex 6 6.4 7
    endloop
  endfacet
  facet normal 0 0 1
    outer loop
      vertex 0 0 7
      vertex 6 6.4 7
      vertex 4.62234 6.67403 7
    endloop
  endfacet
  facet normal 0 0 1
    outer loop
      vertex 0 0 7
      vertex 2.4 10 7
      vertex 0 20 7
    endloop
  endfacet
  facet normal 0 0 1
    outer loop
      vertex 7.37766 6.67403 7
      vertex 0 0 7
      vertex 30 0 7
    endloop
  endfacet
  facet normal 0 0 1
    outer loop
      vertex 3.45442 7.45442 7
      vertex 0 0 7
      vertex 4.62234 6.67403 7
    endloop
  endfacet
  facet normal 0 0 1
    outer loop
      vertex 2.67403 8.62234 7
      vertex 0 0 7
      vertex 3.45442 7.45442 7
    endloop
  endfacet
  facet normal 0 0 1
    outer loop
      vertex 2.4 10 7
      vertex 0 0 7
      vertex 2.67403 8.62234 7
    endloop
  endfacet
  facet normal 0 -1 0
    outer loop
      vertex 0 20 7
      vertex 30 20 27
      vertex 0 20 27
    endloop
  endfacet
  facet normal 0 -1 -0
    outer loop
      vertex 30 20 27
      vertex 0 20 7
      vertex 30 20 7
    endloop
  endfacet
  facet normal 1 0 0
    outer loop
      vertex 10.25 24.5 2.75
      vertex 10.25 27 27
      vertex 10.25 24.5 27
    endloop
  endfacet
  facet normal 1 0 0
    outer loop
      vertex 10.25 27 27
      vertex 10.25 24.5 2.75
      vertex 10.25 27 0
    endloop
  endfacet
  facet normal 1 0 0
    outer loop
      vertex 10.25 0 0
      vertex 10.25 24.5 2.75
      vertex 10.25 0 2.75
    endloop
  endfacet
  facet normal 1 0 0
    outer loop
      vertex 10.25 24.5 2.75
      vertex 10.25 0 0
      vertex 10.25 27 0
    endloop
  endfacet
  facet normal 0 0 -1
    outer loop
      vertex 10.25 0 2.75
      vertex 19.75 24.5 2.75
      vertex 19.75 0 2.75
    endloop
  endfacet
  facet normal -0 0 -1
    outer loop
      vertex 19.75 24.5 2.75
      vertex 10.25 0 2.75
      vertex 10.25 24.5 2.75
    endloop
  endfacet
  facet normal -1 0 0
    outer loop
      vertex 19.75 27 0
      vertex 19.75 24.5 2.75
      vertex 19.75 27 27
    endloop
  endfacet
  facet normal -1 0 0
    outer loop
      vertex 19.75 0 0
      vertex 19.75 24.5 2.75
      vertex 19.75 27 0
    endloop
  endfacet
  facet normal -1 -0 0
    outer loop
      vertex 19.75 24.5 2.75
      vertex 19.75 0 0
      vertex 19.75 0 2.75
    endloop
  endfacet
  facet normal -1 -0 0
    outer loop
      vertex 19.75 27 27
      vertex 19.75 24.5 2.75
      vertex 19.75 24.5 27
    endloop
  endfacet
  facet normal 0 1 -0
    outer loop
      vertex 19.75 24.5 2.75
      vertex 10.25 24.5 27
      vertex 19.75 24.5 27
    endloop
  endfacet
  facet normal 0 1 0
    outer loop
      vertex 10.25 24.5 27
      vertex 19.75 24.5 2.75
      vertex 10.25 24.5 2.75
    endloop
  endfacet
endsolid OpenSCAD_Model
