solid OpenSCAD_Model
  facet normal -1 0 0
    outer loop
      vertex -16 47 0
      vertex -16 27 7
      vertex -16 47 7
    endloop
  endfacet
  facet normal -1 0 0
    outer loop
      vertex -16 27 7
      vertex -16 20 7
      vertex -16 27 27
    endloop
  endfacet
  facet normal -1 0 0
    outer loop
      vertex -16 47 0
      vertex -16 20 7
      vertex -16 27 7
    endloop
  endfacet
  facet normal -1 0 0
    outer loop
      vertex -16 0 0
      vertex -16 20 7
      vertex -16 47 0
    endloop
  endfacet
  facet normal -1 -0 0
    outer loop
      vertex -16 20 7
      vertex -16 0 0
      vertex -16 0 7
    endloop
  endfacet
  facet normal -1 -0 0
    outer loop
      vertex -16 27 27
      vertex -16 20 7
      vertex -16 20 27
    endloop
  endfacet
  facet normal -0 0 1
    outer loop
      vertex -16 27 27
      vertex 16 20 27
      vertex 16 27 27
    endloop
  endfacet
  facet normal 0 0 1
    outer loop
      vertex 16 20 27
      vertex -16 27 27
      vertex -16 20 27
    endloop
  endfacet
  facet normal 1 0 0
    outer loop
      vertex 16 27 27
      vertex 16 20 27
      vertex 16 27 7
    endloop
  endfacet
  facet normal 1 -0 0
    outer loop
      vertex 16 27 7
      vertex 16 47 0
      vertex 16 47 7
    endloop
  endfacet
  facet normal 1 0 0
    outer loop
      vertex 16 20 7
      vertex 16 27 7
      vertex 16 20 27
    endloop
  endfacet
  facet normal 1 -0 0
    outer loop
      vertex 16 20 7
      vertex 16 47 0
      vertex 16 27 7
    endloop
  endfacet
  facet normal 1 0 0
    outer loop
      vertex 16 0 0
      vertex 16 20 7
      vertex 16 0 7
    endloop
  endfacet
  facet normal 1 0 0
    outer loop
      vertex 16 20 7
      vertex 16 0 0
      vertex 16 47 0
    endloop
  endfacet
  facet normal 0 1 0
    outer loop
      vertex 16 47 7
      vertex 8.5 47 3
      vertex -16 47 7
    endloop
  endfacet
  facet normal 0 1 -0
    outer loop
      vertex 16 47 0
      vertex 8.5 47 3
      vertex 16 47 7
    endloop
  endfacet
  facet normal 0 1 0
    outer loop
      vertex 8.5 47 3
      vertex 16 47 0
      vertex 8.5 47 0
    endloop
  endfacet
  facet normal 0 1 -0
    outer loop
      vertex -8.5 47 3
      vertex -16 47 7
      vertex 8.5 47 3
    endloop
  endfacet
  facet normal 0 1 0
    outer loop
      vertex -16 47 0
      vertex -8.5 47 3
      vertex -8.5 47 0
    endloop
  endfacet
  facet normal 0 1 0
    outer loop
      vertex -8.5 47 3
      vertex -16 47 0
      vertex -16 47 7
    endloop
  endfacet
  facet normal 0 0 -1
    outer loop
      vertex -16 0 0
      vertex -8.5 47 0
      vertex -8.5 0 0
    endloop
  endfacet
  facet normal -0 0 -1
    outer loop
      vertex -8.5 47 0
      vertex -16 0 0
      vertex -16 47 0
    endloop
  endfacet
  facet normal 0 0 -1
    outer loop
      vertex 8.5 0 0
      vertex 16 47 0
      vertex 16 0 0
    endloop
  endfacet
  facet normal -0 0 -1
    outer loop
      vertex 16 47 0
      vertex 8.5 0 0
      vertex 8.5 47 0
    endloop
  endfacet
  facet normal 0 -1 0
    outer loop
      vertex -16 0 7
      vertex -8.5 0 3
      vertex 16 0 7
    endloop
  endfacet
  facet normal 0 -1 0
    outer loop
      vertex -16 0 0
      vertex -8.5 0 3
      vertex -16 0 7
    endloop
  endfacet
  facet normal 0 -1 -0
    outer loop
      vertex -8.5 0 3
      vertex -16 0 0
      vertex -8.5 0 0
    endloop
  endfacet
  facet normal 0 -1 0
    outer loop
      vertex 8.5 0 3
      vertex 16 0 7
      vertex -8.5 0 3
    endloop
  endfacet
  facet normal 0 -1 0
    outer loop
      vertex 16 0 0
      vertex 8.5 0 3
      vertex 8.5 0 0
    endloop
  endfacet
  facet normal 0 -1 0
    outer loop
      vertex 8.5 0 3
      vertex 16 0 0
      vertex 16 0 7
    endloop
  endfacet
  facet normal 0 -1 0
    outer loop
      vertex -16 20 7
      vertex 16 20 27
      vertex -16 20 27
    endloop
  endfacet
  facet normal 0 -1 -0
    outer loop
      vertex 16 20 27
      vertex -16 20 7
      vertex 16 20 7
    endloop
  endfacet
  facet normal -0 0 1
    outer loop
      vertex -16 20 7
      vertex 16 0 7
      vertex 16 20 7
    endloop
  endfacet
  facet normal 0 0 1
    outer loop
      vertex 16 0 7
      vertex -16 20 7
      vertex -16 0 7
    endloop
  endfacet
  facet normal -0 0 1
    outer loop
      vertex -16 47 7
      vertex 16 27 7
      vertex 16 47 7
    endloop
  endfacet
  facet normal 0 0 1
    outer loop
      vertex 16 27 7
      vertex -16 47 7
      vertex -16 27 7
    endloop
  endfacet
  facet normal 0 1 -0
    outer loop
      vertex 16 27 7
      vertex -16 27 27
      vertex 16 27 27
    endloop
  endfacet
  facet normal 0 1 0
    outer loop
      vertex -16 27 27
      vertex 16 27 7
      vertex -16 27 7
    endloop
  endfacet
  facet normal 1 -0 0
    outer loop
      vertex -8.5 0 3
      vertex -8.5 47 0
      vertex -8.5 47 3
    endloop
  endfacet
  facet normal 1 0 0
    outer loop
      vertex -8.5 47 0
      vertex -8.5 0 3
      vertex -8.5 0 0
    endloop
  endfacet
  facet normal 0 0 -1
    outer loop
      vertex -8.5 0 3
      vertex 8.5 47 3
      vertex 8.5 0 3
    endloop
  endfacet
  facet normal -0 0 -1
    outer loop
      vertex 8.5 47 3
      vertex -8.5 0 3
      vertex -8.5 47 3
    endloop
  endfacet
  facet normal -1 0 0
    outer loop
      vertex 8.5 0 0
      vertex 8.5 47 3
      vertex 8.5 47 0
    endloop
  endfacet
  facet normal -1 -0 0
    outer loop
      vertex 8.5 47 3
      vertex 8.5 0 0
      vertex 8.5 0 3
    endloop
  endfacet
endsolid OpenSCAD_Model
