solid OpenSCAD_Model
  facet normal -0.7071 0 -0.707114
    outer loop
      vertex 22.0711 65 15.0711
      vertex 17.1421 70 20
      vertex 22.0711 70 15.0711
    endloop
  endfacet
  facet normal -0.7071 -0 -0.707114
    outer loop
      vertex 17.1421 70 20
      vertex 22.0711 65 15.0711
      vertex 17.1421 65 20
    endloop
  endfacet
  facet normal -0.7071 0 -0.707114
    outer loop
      vertex 22.0711 0 15.0711
      vertex 17.1421 5 20
      vertex 22.0711 5 15.0711
    endloop
  endfacet
  facet normal -0.7071 -0 -0.707114
    outer loop
      vertex 17.1421 5 20
      vertex 22.0711 0 15.0711
      vertex 17.1421 0 20
    endloop
  endfacet
  facet normal -0.707107 0 0.707107
    outer loop
      vertex 15 65 8
      vertex 22.0711 70 15.0711
      vertex 15 70 8
    endloop
  endfacet
  facet normal -0.707107 0 0.707107
    outer loop
      vertex 22.0711 70 15.0711
      vertex 15 65 8
      vertex 22.0711 65 15.0711
    endloop
  endfacet
  facet normal -0.707107 0 0.707107
    outer loop
      vertex 15 0 8
      vertex 22.0711 5 15.0711
      vertex 15 5 8
    endloop
  endfacet
  facet normal -0.707107 0 0.707107
    outer loop
      vertex 22.0711 5 15.0711
      vertex 15 0 8
      vertex 22.0711 0 15.0711
    endloop
  endfacet
  facet normal 0.707107 -0 0.707107
    outer loop
      vertex 3 65 20
      vertex 15 70 8
      vertex 3 70 20
    endloop
  endfacet
  facet normal 0.707107 0 0.707107
    outer loop
      vertex 15 70 8
      vertex 3 65 20
      vertex 15 65 8
    endloop
  endfacet
  facet normal 0.707107 -0 0.707107
    outer loop
      vertex 3 0 20
      vertex 15 5 8
      vertex 3 5 20
    endloop
  endfacet
  facet normal 0.707107 0 0.707107
    outer loop
      vertex 15 5 8
      vertex 3 0 20
      vertex 15 0 8
    endloop
  endfacet
  facet normal 0.707107 -0 0.707107
    outer loop
      vertex 25 65 20
      vertex 37 70 8
      vertex 25 70 20
    endloop
  endfacet
  facet normal 0.707107 0 0.707107
    outer loop
      vertex 37 70 8
      vertex 25 65 20
      vertex 37 65 8
    endloop
  endfacet
  facet normal 0.707107 -0 0.707107
    outer loop
      vertex 25 0 20
      vertex 37 5 8
      vertex 25 5 20
    endloop
  endfacet
  facet normal 0.707107 0 0.707107
    outer loop
      vertex 37 5 8
      vertex 25 0 20
      vertex 37 0 8
    endloop
  endfacet
  facet normal -0.7071 0 -0.707114
    outer loop
      vertex 44.0711 65 15.0711
      vertex 39.1421 70 20
      vertex 44.0711 70 15.0711
    endloop
  endfacet
  facet normal -0.7071 -0 -0.707114
    outer loop
      vertex 39.1421 70 20
      vertex 44.0711 65 15.0711
      vertex 39.1421 65 20
    endloop
  endfacet
  facet normal -0.7071 0 -0.707114
    outer loop
      vertex 44.0711 0 15.0711
      vertex 39.1421 5 20
      vertex 44.0711 5 15.0711
    endloop
  endfacet
  facet normal -0.7071 -0 -0.707114
    outer loop
      vertex 39.1421 5 20
      vertex 44.0711 0 15.0711
      vertex 39.1421 0 20
    endloop
  endfacet
  facet normal -0.707107 0 0.707107
    outer loop
      vertex 37 65 8
      vertex 44.0711 70 15.0711
      vertex 37 70 8
    endloop
  endfacet
  facet normal -0.707107 0 0.707107
    outer loop
      vertex 44.0711 70 15.0711
      vertex 37 65 8
      vertex 44.0711 65 15.0711
    endloop
  endfacet
  facet normal -0.707107 0 0.707107
    outer loop
      vertex 37 0 8
      vertex 44.0711 5 15.0711
      vertex 37 5 8
    endloop
  endfacet
  facet normal -0.707107 0 0.707107
    outer loop
      vertex 44.0711 5 15.0711
      vertex 37 0 8
      vertex 44.0711 0 15.0711
    endloop
  endfacet
  facet normal -0.7071 0 -0.707113
    outer loop
      vertex 59.3137 65 20
      vertex 64.6569 70 14.6569
      vertex 64.6569 65 14.6569
    endloop
  endfacet
  facet normal -0.7071 0 -0.707113
    outer loop
      vertex 64.6569 70 14.6569
      vertex 59.3137 65 20
      vertex 59.3137 70 20
    endloop
  endfacet
  facet normal -0.7071 0 -0.707113
    outer loop
      vertex 59.3137 0 20
      vertex 64.6569 5 14.6569
      vertex 64.6569 0 14.6569
    endloop
  endfacet
  facet normal -0.7071 0 -0.707113
    outer loop
      vertex 64.6569 5 14.6569
      vertex 59.3137 0 20
      vertex 59.3137 5 20
    endloop
  endfacet
  facet normal 0.707107 -0 0.707107
    outer loop
      vertex 48 65 20
      vertex 59 70 9
      vertex 48 70 20
    endloop
  endfacet
  facet normal 0.707107 0 0.707107
    outer loop
      vertex 59 70 9
      vertex 48 65 20
      vertex 59 65 9
    endloop
  endfacet
  facet normal 0.707107 -0 0.707107
    outer loop
      vertex 48 0 20
      vertex 59 5 9
      vertex 48 5 20
    endloop
  endfacet
  facet normal 0.707107 0 0.707107
    outer loop
      vertex 59 5 9
      vertex 48 0 20
      vertex 59 0 9
    endloop
  endfacet
  facet normal -0.707107 0 0.707107
    outer loop
      vertex 59 65 9
      vertex 64.6569 70 14.6569
      vertex 59 70 9
    endloop
  endfacet
  facet normal -0.707107 0 0.707107
    outer loop
      vertex 64.6569 70 14.6569
      vertex 59 65 9
      vertex 64.6569 65 14.6569
    endloop
  endfacet
  facet normal -0.707107 0 0.707107
    outer loop
      vertex 59 0 9
      vertex 64.6569 5 14.6569
      vertex 59 5 9
    endloop
  endfacet
  facet normal -0.707107 0 0.707107
    outer loop
      vertex 64.6569 5 14.6569
      vertex 59 0 9
      vertex 64.6569 0 14.6569
    endloop
  endfacet
  facet normal -0.7071 0 -0.707113
    outer loop
      vertex 78.3137 65 20
      vertex 83.6569 70 14.6569
      vertex 83.6569 65 14.6569
    endloop
  endfacet
  facet normal -0.7071 0 -0.707113
    outer loop
      vertex 83.6569 70 14.6569
      vertex 78.3137 65 20
      vertex 78.3137 70 20
    endloop
  endfacet
  facet normal -0.7071 0 -0.707113
    outer loop
      vertex 78.3137 0 20
      vertex 83.6569 5 14.6569
      vertex 83.6569 0 14.6569
    endloop
  endfacet
  facet normal -0.7071 0 -0.707113
    outer loop
      vertex 83.6569 5 14.6569
      vertex 78.3137 0 20
      vertex 78.3137 5 20
    endloop
  endfacet
  facet normal 0.707107 -0 0.707107
    outer loop
      vertex 67 65 20
      vertex 78 70 9
      vertex 67 70 20
    endloop
  endfacet
  facet normal 0.707107 0 0.707107
    outer loop
      vertex 78 70 9
      vertex 67 65 20
      vertex 78 65 9
    endloop
  endfacet
  facet normal 0.707107 -0 0.707107
    outer loop
      vertex 67 0 20
      vertex 78 5 9
      vertex 67 5 20
    endloop
  endfacet
  facet normal 0.707107 0 0.707107
    outer loop
      vertex 78 5 9
      vertex 67 0 20
      vertex 78 0 9
    endloop
  endfacet
  facet normal -0.707107 0 0.707107
    outer loop
      vertex 78 65 9
      vertex 83.6569 70 14.6569
      vertex 78 70 9
    endloop
  endfacet
  facet normal -0.707107 0 0.707107
    outer loop
      vertex 83.6569 70 14.6569
      vertex 78 65 9
      vertex 83.6569 65 14.6569
    endloop
  endfacet
  facet normal -0.707107 0 0.707107
    outer loop
      vertex 78 0 9
      vertex 83.6569 5 14.6569
      vertex 78 5 9
    endloop
  endfacet
  facet normal -0.707107 0 0.707107
    outer loop
      vertex 83.6569 5 14.6569
      vertex 78 0 9
      vertex 83.6569 0 14.6569
    endloop
  endfacet
  facet normal -0.707094 0 -0.70712
    outer loop
      vertex 97.3137 65 20
      vertex 102.657 70 14.6569
      vertex 102.657 65 14.6569
    endloop
  endfacet
  facet normal -0.707094 0 -0.70712
    outer loop
      vertex 102.657 70 14.6569
      vertex 97.3137 65 20
      vertex 97.3137 70 20
    endloop
  endfacet
  facet normal -0.707094 0 -0.70712
    outer loop
      vertex 97.3137 0 20
      vertex 102.657 5 14.6569
      vertex 102.657 0 14.6569
    endloop
  endfacet
  facet normal -0.707094 0 -0.70712
    outer loop
      vertex 102.657 5 14.6569
      vertex 97.3137 0 20
      vertex 97.3137 5 20
    endloop
  endfacet
  facet normal 0.707107 -0 0.707107
    outer loop
      vertex 86 65 20
      vertex 97 70 9
      vertex 86 70 20
    endloop
  endfacet
  facet normal 0.707107 0 0.707107
    outer loop
      vertex 97 70 9
      vertex 86 65 20
      vertex 97 65 9
    endloop
  endfacet
  facet normal 0.707107 -0 0.707107
    outer loop
      vertex 86 0 20
      vertex 97 5 9
      vertex 86 5 20
    endloop
  endfacet
  facet normal 0.707107 0 0.707107
    outer loop
      vertex 97 5 9
      vertex 86 0 20
      vertex 97 0 9
    endloop
  endfacet
  facet normal -0.707101 0 0.707113
    outer loop
      vertex 97 65 9
      vertex 102.657 70 14.6569
      vertex 97 70 9
    endloop
  endfacet
  facet normal -0.707101 0 0.707113
    outer loop
      vertex 102.657 70 14.6569
      vertex 97 65 9
      vertex 102.657 65 14.6569
    endloop
  endfacet
  facet normal -0.707101 0 0.707113
    outer loop
      vertex 97 0 9
      vertex 102.657 5 14.6569
      vertex 97 5 9
    endloop
  endfacet
  facet normal -0.707101 0 0.707113
    outer loop
      vertex 102.657 5 14.6569
      vertex 97 0 9
      vertex 102.657 0 14.6569
    endloop
  endfacet
  facet normal -0.707058 0 -0.707156
    outer loop
      vertex 114.899 65 20
      vertex 119.95 70 14.9497
      vertex 119.95 65 14.9497
    endloop
  endfacet
  facet normal -0.707058 0 -0.707156
    outer loop
      vertex 119.95 70 14.9497
      vertex 114.899 65 20
      vertex 114.899 70 20
    endloop
  endfacet
  facet normal -0.707058 0 -0.707156
    outer loop
      vertex 114.899 0 20
      vertex 119.95 5 14.9497
      vertex 119.95 0 14.9497
    endloop
  endfacet
  facet normal -0.707058 0 -0.707156
    outer loop
      vertex 119.95 5 14.9497
      vertex 114.899 0 20
      vertex 114.899 5 20
    endloop
  endfacet
  facet normal 0.707107 -0 0.707107
    outer loop
      vertex 105 65 20
      vertex 115 70 10
      vertex 105 70 20
    endloop
  endfacet
  facet normal 0.707107 0 0.707107
    outer loop
      vertex 115 70 10
      vertex 105 65 20
      vertex 115 65 10
    endloop
  endfacet
  facet normal 0.707107 -0 0.707107
    outer loop
      vertex 105 0 20
      vertex 115 5 10
      vertex 105 5 20
    endloop
  endfacet
  facet normal 0.707107 0 0.707107
    outer loop
      vertex 115 5 10
      vertex 105 0 20
      vertex 115 0 10
    endloop
  endfacet
  facet normal -0.707085 0 0.707128
    outer loop
      vertex 115 65 10
      vertex 119.95 70 14.9497
      vertex 115 70 10
    endloop
  endfacet
  facet normal -0.707085 0 0.707128
    outer loop
      vertex 119.95 70 14.9497
      vertex 115 65 10
      vertex 119.95 65 14.9497
    endloop
  endfacet
  facet normal -0.707085 0 0.707128
    outer loop
      vertex 115 0 10
      vertex 119.95 5 14.9497
      vertex 115 5 10
    endloop
  endfacet
  facet normal -0.707085 0 0.707128
    outer loop
      vertex 119.95 5 14.9497
      vertex 115 0 10
      vertex 119.95 0 14.9497
    endloop
  endfacet
  facet normal 0.707107 -0 0.707107
    outer loop
      vertex 123 65 20
      vertex 132 70 11
      vertex 123 70 20
    endloop
  endfacet
  facet normal 0.707107 0 0.707107
    outer loop
      vertex 132 70 11
      vertex 123 65 20
      vertex 132 65 11
    endloop
  endfacet
  facet normal 0.707107 -0 0.707107
    outer loop
      vertex 123 0 20
      vertex 132 5 11
      vertex 123 5 20
    endloop
  endfacet
  facet normal 0.707107 0 0.707107
    outer loop
      vertex 132 5 11
      vertex 123 0 20
      vertex 132 0 11
    endloop
  endfacet
  facet normal -0.707073 0 0.70714
    outer loop
      vertex 132 70 11
      vertex 136.243 65 15.2426
      vertex 136.243 70 15.2426
    endloop
  endfacet
  facet normal -0.707073 0 0.70714
    outer loop
      vertex 136.243 65 15.2426
      vertex 132 70 11
      vertex 132 65 11
    endloop
  endfacet
  facet normal -0.707073 0 0.70714
    outer loop
      vertex 132 5 11
      vertex 136.243 0 15.2426
      vertex 136.243 5 15.2426
    endloop
  endfacet
  facet normal -0.707073 0 0.70714
    outer loop
      vertex 136.243 0 15.2426
      vertex 132 5 11
      vertex 132 0 11
    endloop
  endfacet
  facet normal -0.707062 0 -0.707151
    outer loop
      vertex 131.485 65 20
      vertex 136.243 70 15.2426
      vertex 136.243 65 15.2426
    endloop
  endfacet
  facet normal -0.707062 0 -0.707151
    outer loop
      vertex 136.243 70 15.2426
      vertex 131.485 65 20
      vertex 131.485 70 20
    endloop
  endfacet
  facet normal -0.707062 0 -0.707151
    outer loop
      vertex 131.485 0 20
      vertex 136.243 5 15.2426
      vertex 136.243 0 15.2426
    endloop
  endfacet
  facet normal -0.707062 0 -0.707151
    outer loop
      vertex 136.243 5 15.2426
      vertex 131.485 0 20
      vertex 131.485 5 20
    endloop
  endfacet
  facet normal 0.707107 -0 0.707107
    outer loop
      vertex 138 65 20
      vertex 147 70 11
      vertex 138 70 20
    endloop
  endfacet
  facet normal 0.707107 0 0.707107
    outer loop
      vertex 147 70 11
      vertex 138 65 20
      vertex 147 65 11
    endloop
  endfacet
  facet normal 0.707107 -0 0.707107
    outer loop
      vertex 138 0 20
      vertex 147 5 11
      vertex 138 5 20
    endloop
  endfacet
  facet normal 0.707107 0 0.707107
    outer loop
      vertex 147 5 11
      vertex 138 0 20
      vertex 147 0 11
    endloop
  endfacet
  facet normal -0.707116 0 0.707098
    outer loop
      vertex 147 65 11
      vertex 150.889 70 14.8891
      vertex 147 70 11
    endloop
  endfacet
  facet normal -0.707116 0 0.707098
    outer loop
      vertex 150.889 70 14.8891
      vertex 147 65 11
      vertex 150.889 65 14.8891
    endloop
  endfacet
  facet normal -0.707116 0 0.707098
    outer loop
      vertex 147 0 11
      vertex 150.889 5 14.8891
      vertex 147 5 11
    endloop
  endfacet
  facet normal -0.707116 0 0.707098
    outer loop
      vertex 150.889 5 14.8891
      vertex 147 0 11
      vertex 150.889 0 14.8891
    endloop
  endfacet
  facet normal -0.7071 0 -0.707114
    outer loop
      vertex 145.778 65 20
      vertex 150.889 70 14.8891
      vertex 150.889 65 14.8891
    endloop
  endfacet
  facet normal -0.7071 0 -0.707114
    outer loop
      vertex 150.889 70 14.8891
      vertex 145.778 65 20
      vertex 145.778 70 20
    endloop
  endfacet
  facet normal -0.7071 0 -0.707114
    outer loop
      vertex 145.778 0 20
      vertex 150.889 5 14.8891
      vertex 150.889 0 14.8891
    endloop
  endfacet
  facet normal -0.7071 0 -0.707114
    outer loop
      vertex 150.889 5 14.8891
      vertex 145.778 0 20
      vertex 145.778 5 20
    endloop
  endfacet
  facet normal -0.7071 0 -0.707114
    outer loop
      vertex 160.278 65 20
      vertex 165.389 70 14.8891
      vertex 165.389 65 14.8891
    endloop
  endfacet
  facet normal -0.7071 0 -0.707114
    outer loop
      vertex 165.389 70 14.8891
      vertex 160.278 65 20
      vertex 160.278 70 20
    endloop
  endfacet
  facet normal -0.7071 0 -0.707114
    outer loop
      vertex 160.278 0 20
      vertex 165.389 5 14.8891
      vertex 165.389 0 14.8891
    endloop
  endfacet
  facet normal -0.7071 0 -0.707114
    outer loop
      vertex 165.389 5 14.8891
      vertex 160.278 0 20
      vertex 160.278 5 20
    endloop
  endfacet
  facet normal 0.707107 -0 0.707107
    outer loop
      vertex 152.5 65 20
      vertex 161.5 70 11
      vertex 152.5 70 20
    endloop
  endfacet
  facet normal 0.707107 0 0.707107
    outer loop
      vertex 161.5 70 11
      vertex 152.5 65 20
      vertex 161.5 65 11
    endloop
  endfacet
  facet normal 0.707107 -0 0.707107
    outer loop
      vertex 152.5 0 20
      vertex 161.5 5 11
      vertex 152.5 5 20
    endloop
  endfacet
  facet normal 0.707107 0 0.707107
    outer loop
      vertex 161.5 5 11
      vertex 152.5 0 20
      vertex 161.5 0 11
    endloop
  endfacet
  facet normal -0.707116 0 0.707098
    outer loop
      vertex 161.5 65 11
      vertex 165.389 70 14.8891
      vertex 161.5 70 11
    endloop
  endfacet
  facet normal -0.707116 0 0.707098
    outer loop
      vertex 165.389 70 14.8891
      vertex 161.5 65 11
      vertex 165.389 65 14.8891
    endloop
  endfacet
  facet normal -0.707116 0 0.707098
    outer loop
      vertex 161.5 0 11
      vertex 165.389 5 14.8891
      vertex 161.5 5 11
    endloop
  endfacet
  facet normal -0.707116 0 0.707098
    outer loop
      vertex 165.389 5 14.8891
      vertex 161.5 0 11
      vertex 165.389 0 14.8891
    endloop
  endfacet
  facet normal 0.707107 -0 0.707107
    outer loop
      vertex 168 65 20
      vertex 176 70 12
      vertex 168 70 20
    endloop
  endfacet
  facet normal 0.707107 0 0.707107
    outer loop
      vertex 176 70 12
      vertex 168 65 20
      vertex 176 65 12
    endloop
  endfacet
  facet normal 0.707107 -0 0.707107
    outer loop
      vertex 168 0 20
      vertex 176 5 12
      vertex 168 5 20
    endloop
  endfacet
  facet normal 0.707107 0 0.707107
    outer loop
      vertex 176 5 12
      vertex 168 0 20
      vertex 176 0 12
    endloop
  endfacet
  facet normal -0.707057 0 0.707157
    outer loop
      vertex 176 70 12
      vertex 179.536 65 15.5355
      vertex 179.536 70 15.5355
    endloop
  endfacet
  facet normal -0.707057 0 0.707157
    outer loop
      vertex 179.536 65 15.5355
      vertex 176 70 12
      vertex 176 65 12
    endloop
  endfacet
  facet normal -0.707057 0 0.707157
    outer loop
      vertex 176 5 12
      vertex 179.536 0 15.5355
      vertex 179.536 5 15.5355
    endloop
  endfacet
  facet normal -0.707057 0 0.707157
    outer loop
      vertex 179.536 0 15.5355
      vertex 176 5 12
      vertex 176 0 12
    endloop
  endfacet
  facet normal -0.707067 0 -0.707146
    outer loop
      vertex 175.071 65 20
      vertex 179.536 70 15.5355
      vertex 179.536 65 15.5355
    endloop
  endfacet
  facet normal -0.707067 0 -0.707146
    outer loop
      vertex 179.536 70 15.5355
      vertex 175.071 65 20
      vertex 175.071 70 20
    endloop
  endfacet
  facet normal -0.707067 0 -0.707146
    outer loop
      vertex 175.071 0 20
      vertex 179.536 5 15.5355
      vertex 179.536 0 15.5355
    endloop
  endfacet
  facet normal -0.707067 0 -0.707146
    outer loop
      vertex 179.536 5 15.5355
      vertex 175.071 0 20
      vertex 175.071 5 20
    endloop
  endfacet
  facet normal 0.707107 -0 0.707107
    outer loop
      vertex 181 65 20
      vertex 189 70 12
      vertex 181 70 20
    endloop
  endfacet
  facet normal 0.707107 0 0.707107
    outer loop
      vertex 189 70 12
      vertex 181 65 20
      vertex 189 65 12
    endloop
  endfacet
  facet normal 0.707107 -0 0.707107
    outer loop
      vertex 181 0 20
      vertex 189 5 12
      vertex 181 5 20
    endloop
  endfacet
  facet normal 0.707107 0 0.707107
    outer loop
      vertex 189 5 12
      vertex 181 0 20
      vertex 189 0 12
    endloop
  endfacet
  facet normal -0.707057 0 0.707157
    outer loop
      vertex 189 70 12
      vertex 192.536 65 15.5355
      vertex 192.536 70 15.5355
    endloop
  endfacet
  facet normal -0.707057 0 0.707157
    outer loop
      vertex 192.536 65 15.5355
      vertex 189 70 12
      vertex 189 65 12
    endloop
  endfacet
  facet normal -0.707057 0 0.707157
    outer loop
      vertex 189 5 12
      vertex 192.536 0 15.5355
      vertex 192.536 5 15.5355
    endloop
  endfacet
  facet normal -0.707057 0 0.707157
    outer loop
      vertex 192.536 0 15.5355
      vertex 189 5 12
      vertex 189 0 12
    endloop
  endfacet
  facet normal -0.707067 0 -0.707146
    outer loop
      vertex 188.071 65 20
      vertex 192.536 70 15.5355
      vertex 192.536 65 15.5355
    endloop
  endfacet
  facet normal -0.707067 0 -0.707146
    outer loop
      vertex 192.536 70 15.5355
      vertex 188.071 65 20
      vertex 188.071 70 20
    endloop
  endfacet
  facet normal -0.707067 0 -0.707146
    outer loop
      vertex 188.071 0 20
      vertex 192.536 5 15.5355
      vertex 192.536 0 15.5355
    endloop
  endfacet
  facet normal -0.707067 0 -0.707146
    outer loop
      vertex 192.536 5 15.5355
      vertex 188.071 0 20
      vertex 188.071 5 20
    endloop
  endfacet
  facet normal 1 0 0
    outer loop
      vertex 195 5 20
      vertex 195 0 20
      vertex 195 5 2
    endloop
  endfacet
  facet normal 1 0 0
    outer loop
      vertex 195 65 2
      vertex 195 70 20
      vertex 195 65 20
    endloop
  endfacet
  facet normal 1 0 0
    outer loop
      vertex 195 70 20
      vertex 195 65 2
      vertex 195 70 0
    endloop
  endfacet
  facet normal 1 -0 0
    outer loop
      vertex 195 5 2
      vertex 195 70 0
      vertex 195 65 2
    endloop
  endfacet
  facet normal 1 0 0
    outer loop
      vertex 195 5 2
      vertex 195 0 0
      vertex 195 70 0
    endloop
  endfacet
  facet normal 1 0 0
    outer loop
      vertex 195 0 0
      vertex 195 5 2
      vertex 195 0 20
    endloop
  endfacet
  facet normal -0 0 1
    outer loop
      vertex 0 65 2
      vertex 195 5 2
      vertex 195 65 2
    endloop
  endfacet
  facet normal 0 0 1
    outer loop
      vertex 195 5 2
      vertex 0 65 2
      vertex 0 5 2
    endloop
  endfacet
  facet normal 0 0 -1
    outer loop
      vertex 0 0 0
      vertex 195 70 0
      vertex 195 0 0
    endloop
  endfacet
  facet normal -0 0 -1
    outer loop
      vertex 195 70 0
      vertex 0 0 0
      vertex 0 70 0
    endloop
  endfacet
  facet normal -1 0 0
    outer loop
      vertex 0 70 0
      vertex 0 65 2
      vertex 0 70 20
    endloop
  endfacet
  facet normal -1 0 0
    outer loop
      vertex 0 70 0
      vertex 0 5 2
      vertex 0 65 2
    endloop
  endfacet
  facet normal -1 0 0
    outer loop
      vertex 0 0 0
      vertex 0 5 2
      vertex 0 70 0
    endloop
  endfacet
  facet normal -1 0 0
    outer loop
      vertex 0 0 20
      vertex 0 5 2
      vertex 0 0 0
    endloop
  endfacet
  facet normal -1 0 0
    outer loop
      vertex 0 5 2
      vertex 0 0 20
      vertex 0 5 20
    endloop
  endfacet
  facet normal -1 -0 0
    outer loop
      vertex 0 70 20
      vertex 0 65 2
      vertex 0 65 20
    endloop
  endfacet
  facet normal 0 1 0
    outer loop
      vertex 195 70 20
      vertex 192.536 70 15.5355
      vertex 188.071 70 20
    endloop
  endfacet
  facet normal 0 1 0
    outer loop
      vertex 195 70 0
      vertex 176 70 12
      vertex 189 70 12
    endloop
  endfacet
  facet normal 0 1 0
    outer loop
      vertex 195 70 0
      vertex 147 70 11
      vertex 161.5 70 11
    endloop
  endfacet
  facet normal 0 1 0
    outer loop
      vertex 147 70 11
      vertex 195 70 0
      vertex 132 70 11
    endloop
  endfacet
  facet normal 0 1 0
    outer loop
      vertex 132 70 11
      vertex 195 70 0
      vertex 115 70 10
    endloop
  endfacet
  facet normal 0 1 0
    outer loop
      vertex 0 70 0
      vertex 78 70 9
      vertex 97 70 9
    endloop
  endfacet
  facet normal 0 1 0
    outer loop
      vertex 78 70 9
      vertex 0 70 0
      vertex 59 70 9
    endloop
  endfacet
  facet normal 0 1 0
    outer loop
      vertex 59 70 9
      vertex 0 70 0
      vertex 37 70 8
    endloop
  endfacet
  facet normal 0 1 0
    outer loop
      vertex 0 70 0
      vertex 97 70 9
      vertex 195 70 0
    endloop
  endfacet
  facet normal 0 1 0
    outer loop
      vertex 115 70 10
      vertex 195 70 0
      vertex 97 70 9
    endloop
  endfacet
  facet normal 0 1 0
    outer loop
      vertex 176 70 12
      vertex 195 70 0
      vertex 161.5 70 11
    endloop
  endfacet
  facet normal 0 1 0
    outer loop
      vertex 192.536 70 15.5355
      vertex 195 70 0
      vertex 189 70 12
    endloop
  endfacet
  facet normal 0 1 -0
    outer loop
      vertex 195 70 0
      vertex 192.536 70 15.5355
      vertex 195 70 20
    endloop
  endfacet
  facet normal 0 1 0
    outer loop
      vertex 181 70 20
      vertex 179.536 70 15.5355
      vertex 175.071 70 20
    endloop
  endfacet
  facet normal 0 1 0
    outer loop
      vertex 189 70 12
      vertex 179.536 70 15.5355
      vertex 181 70 20
    endloop
  endfacet
  facet normal 0 1 0
    outer loop
      vertex 179.536 70 15.5355
      vertex 189 70 12
      vertex 176 70 12
    endloop
  endfacet
  facet normal 0 1 0
    outer loop
      vertex 168 70 20
      vertex 165.389 70 14.8891
      vertex 160.278 70 20
    endloop
  endfacet
  facet normal 0 1 0
    outer loop
      vertex 176 70 12
      vertex 165.389 70 14.8891
      vertex 168 70 20
    endloop
  endfacet
  facet normal 0 1 0
    outer loop
      vertex 165.389 70 14.8891
      vertex 176 70 12
      vertex 161.5 70 11
    endloop
  endfacet
  facet normal 0 1 0
    outer loop
      vertex 152.5 70 20
      vertex 150.889 70 14.8891
      vertex 145.778 70 20
    endloop
  endfacet
  facet normal 0 1 0
    outer loop
      vertex 161.5 70 11
      vertex 150.889 70 14.8891
      vertex 152.5 70 20
    endloop
  endfacet
  facet normal 0 1 0
    outer loop
      vertex 150.889 70 14.8891
      vertex 161.5 70 11
      vertex 147 70 11
    endloop
  endfacet
  facet normal 0 1 0
    outer loop
      vertex 138 70 20
      vertex 136.243 70 15.2426
      vertex 131.485 70 20
    endloop
  endfacet
  facet normal 0 1 0
    outer loop
      vertex 147 70 11
      vertex 136.243 70 15.2426
      vertex 138 70 20
    endloop
  endfacet
  facet normal 0 1 0
    outer loop
      vertex 136.243 70 15.2426
      vertex 147 70 11
      vertex 132 70 11
    endloop
  endfacet
  facet normal 0 1 0
    outer loop
      vertex 123 70 20
      vertex 119.95 70 14.9497
      vertex 114.899 70 20
    endloop
  endfacet
  facet normal 0 1 0
    outer loop
      vertex 132 70 11
      vertex 119.95 70 14.9497
      vertex 123 70 20
    endloop
  endfacet
  facet normal 0 1 0
    outer loop
      vertex 119.95 70 14.9497
      vertex 132 70 11
      vertex 115 70 10
    endloop
  endfacet
  facet normal 0 1 0
    outer loop
      vertex 105 70 20
      vertex 102.657 70 14.6569
      vertex 97.3137 70 20
    endloop
  endfacet
  facet normal 0 1 0
    outer loop
      vertex 115 70 10
      vertex 102.657 70 14.6569
      vertex 105 70 20
    endloop
  endfacet
  facet normal 0 1 0
    outer loop
      vertex 102.657 70 14.6569
      vertex 115 70 10
      vertex 97 70 9
    endloop
  endfacet
  facet normal 0 1 0
    outer loop
      vertex 86 70 20
      vertex 83.6569 70 14.6569
      vertex 78.3137 70 20
    endloop
  endfacet
  facet normal 0 1 0
    outer loop
      vertex 97 70 9
      vertex 83.6569 70 14.6569
      vertex 86 70 20
    endloop
  endfacet
  facet normal 0 1 0
    outer loop
      vertex 83.6569 70 14.6569
      vertex 97 70 9
      vertex 78 70 9
    endloop
  endfacet
  facet normal 0 1 0
    outer loop
      vertex 67 70 20
      vertex 64.6569 70 14.6569
      vertex 59.3137 70 20
    endloop
  endfacet
  facet normal 0 1 0
    outer loop
      vertex 78 70 9
      vertex 64.6569 70 14.6569
      vertex 67 70 20
    endloop
  endfacet
  facet normal 0 1 0
    outer loop
      vertex 64.6569 70 14.6569
      vertex 78 70 9
      vertex 59 70 9
    endloop
  endfacet
  facet normal 0 1 0
    outer loop
      vertex 48 70 20
      vertex 44.0711 70 15.0711
      vertex 39.1421 70 20
    endloop
  endfacet
  facet normal 0 1 0
    outer loop
      vertex 59 70 9
      vertex 44.0711 70 15.0711
      vertex 48 70 20
    endloop
  endfacet
  facet normal 0 1 0
    outer loop
      vertex 44.0711 70 15.0711
      vertex 59 70 9
      vertex 37 70 8
    endloop
  endfacet
  facet normal 0 1 0
    outer loop
      vertex 25 70 20
      vertex 22.0711 70 15.0711
      vertex 17.1421 70 20
    endloop
  endfacet
  facet normal 0 1 0
    outer loop
      vertex 37 70 8
      vertex 22.0711 70 15.0711
      vertex 25 70 20
    endloop
  endfacet
  facet normal 0 1 0
    outer loop
      vertex 22.0711 70 15.0711
      vertex 37 70 8
      vertex 15 70 8
    endloop
  endfacet
  facet normal 0 1 0
    outer loop
      vertex 0 70 0
      vertex 3 70 20
      vertex 15 70 8
    endloop
  endfacet
  facet normal 0 1 0
    outer loop
      vertex 3 70 20
      vertex 0 70 0
      vertex 0 70 20
    endloop
  endfacet
  facet normal 0 1 0
    outer loop
      vertex 37 70 8
      vertex 0 70 0
      vertex 15 70 8
    endloop
  endfacet
  facet normal 0 -1 0
    outer loop
      vertex 0 0 0
      vertex 3 0 20
      vertex 0 0 20
    endloop
  endfacet
  facet normal 0 -1 -0
    outer loop
      vertex 15 0 8
      vertex 0 0 0
      vertex 37 0 8
    endloop
  endfacet
  facet normal 0 -1 -0
    outer loop
      vertex 3 0 20
      vertex 0 0 0
      vertex 15 0 8
    endloop
  endfacet
  facet normal 0 -1 0
    outer loop
      vertex 22.0711 0 15.0711
      vertex 25 0 20
      vertex 17.1421 0 20
    endloop
  endfacet
  facet normal 0 -1 0
    outer loop
      vertex 22.0711 0 15.0711
      vertex 37 0 8
      vertex 25 0 20
    endloop
  endfacet
  facet normal 0 -1 0
    outer loop
      vertex 37 0 8
      vertex 22.0711 0 15.0711
      vertex 15 0 8
    endloop
  endfacet
  facet normal 0 -1 0
    outer loop
      vertex 44.0711 0 15.0711
      vertex 48 0 20
      vertex 39.1421 0 20
    endloop
  endfacet
  facet normal 0 -1 0
    outer loop
      vertex 44.0711 0 15.0711
      vertex 59 0 9
      vertex 48 0 20
    endloop
  endfacet
  facet normal 0 -1 0
    outer loop
      vertex 0 0 0
      vertex 78 0 9
      vertex 59 0 9
    endloop
  endfacet
  facet normal 0 -1 0
    outer loop
      vertex 0 0 0
      vertex 59 0 9
      vertex 37 0 8
    endloop
  endfacet
  facet normal 0 -1 0
    outer loop
      vertex 37 0 8
      vertex 59 0 9
      vertex 44.0711 0 15.0711
    endloop
  endfacet
  facet normal 0 -1 0
    outer loop
      vertex 64.6569 0 14.6569
      vertex 67 0 20
      vertex 59.3137 0 20
    endloop
  endfacet
  facet normal 0 -1 0
    outer loop
      vertex 64.6569 0 14.6569
      vertex 78 0 9
      vertex 67 0 20
    endloop
  endfacet
  facet normal 0 -1 0
    outer loop
      vertex 78 0 9
      vertex 64.6569 0 14.6569
      vertex 59 0 9
    endloop
  endfacet
  facet normal 0 -1 0
    outer loop
      vertex 83.6569 0 14.6569
      vertex 86 0 20
      vertex 78.3137 0 20
    endloop
  endfacet
  facet normal 0 -1 0
    outer loop
      vertex 83.6569 0 14.6569
      vertex 97 0 9
      vertex 86 0 20
    endloop
  endfacet
  facet normal 0 -1 0
    outer loop
      vertex 97 0 9
      vertex 83.6569 0 14.6569
      vertex 78 0 9
    endloop
  endfacet
  facet normal 0 -1 0
    outer loop
      vertex 102.657 0 14.6569
      vertex 105 0 20
      vertex 97.3137 0 20
    endloop
  endfacet
  facet normal 0 -1 0
    outer loop
      vertex 102.657 0 14.6569
      vertex 115 0 10
      vertex 105 0 20
    endloop
  endfacet
  facet normal -0 -1 0
    outer loop
      vertex 115 0 10
      vertex 102.657 0 14.6569
      vertex 97 0 9
    endloop
  endfacet
  facet normal 0 -1 0
    outer loop
      vertex 119.95 0 14.9497
      vertex 123 0 20
      vertex 114.899 0 20
    endloop
  endfacet
  facet normal 0 -1 0
    outer loop
      vertex 119.95 0 14.9497
      vertex 132 0 11
      vertex 123 0 20
    endloop
  endfacet
  facet normal 0 -1 0
    outer loop
      vertex 195 0 0
      vertex 147 0 11
      vertex 132 0 11
    endloop
  endfacet
  facet normal 0 -1 0
    outer loop
      vertex 195 0 0
      vertex 132 0 11
      vertex 115 0 10
    endloop
  endfacet
  facet normal 0 -1 0
    outer loop
      vertex 115 0 10
      vertex 132 0 11
      vertex 119.95 0 14.9497
    endloop
  endfacet
  facet normal 0 -1 0
    outer loop
      vertex 136.243 0 15.2426
      vertex 138 0 20
      vertex 131.485 0 20
    endloop
  endfacet
  facet normal 0 -1 0
    outer loop
      vertex 136.243 0 15.2426
      vertex 147 0 11
      vertex 138 0 20
    endloop
  endfacet
  facet normal 0 -1 0
    outer loop
      vertex 147 0 11
      vertex 136.243 0 15.2426
      vertex 132 0 11
    endloop
  endfacet
  facet normal 0 -1 0
    outer loop
      vertex 150.889 0 14.8891
      vertex 152.5 0 20
      vertex 145.778 0 20
    endloop
  endfacet
  facet normal 0 -1 0
    outer loop
      vertex 150.889 0 14.8891
      vertex 161.5 0 11
      vertex 152.5 0 20
    endloop
  endfacet
  facet normal 0 -1 0
    outer loop
      vertex 161.5 0 11
      vertex 150.889 0 14.8891
      vertex 147 0 11
    endloop
  endfacet
  facet normal 0 -1 0
    outer loop
      vertex 165.389 0 14.8891
      vertex 168 0 20
      vertex 160.278 0 20
    endloop
  endfacet
  facet normal 0 -1 0
    outer loop
      vertex 165.389 0 14.8891
      vertex 176 0 12
      vertex 168 0 20
    endloop
  endfacet
  facet normal 0 -1 0
    outer loop
      vertex 195 0 0
      vertex 176 0 12
      vertex 161.5 0 11
    endloop
  endfacet
  facet normal 0 -1 0
    outer loop
      vertex 161.5 0 11
      vertex 176 0 12
      vertex 165.389 0 14.8891
    endloop
  endfacet
  facet normal 0 -1 0
    outer loop
      vertex 179.536 0 15.5355
      vertex 181 0 20
      vertex 175.071 0 20
    endloop
  endfacet
  facet normal 0 -1 0
    outer loop
      vertex 179.536 0 15.5355
      vertex 189 0 12
      vertex 181 0 20
    endloop
  endfacet
  facet normal 0 -1 0
    outer loop
      vertex 189 0 12
      vertex 179.536 0 15.5355
      vertex 176 0 12
    endloop
  endfacet
  facet normal 0 -1 0
    outer loop
      vertex 192.536 0 15.5355
      vertex 195 0 20
      vertex 188.071 0 20
    endloop
  endfacet
  facet normal 0 -1 0
    outer loop
      vertex 195 0 0
      vertex 115 0 10
      vertex 97 0 9
    endloop
  endfacet
  facet normal 0 -1 -0
    outer loop
      vertex 78 0 9
      vertex 0 0 0
      vertex 97 0 9
    endloop
  endfacet
  facet normal 0 -1 0
    outer loop
      vertex 195 0 0
      vertex 97 0 9
      vertex 0 0 0
    endloop
  endfacet
  facet normal 0 -1 0
    outer loop
      vertex 147 0 11
      vertex 195 0 0
      vertex 161.5 0 11
    endloop
  endfacet
  facet normal 0 -1 0
    outer loop
      vertex 192.536 0 15.5355
      vertex 195 0 0
      vertex 195 0 20
    endloop
  endfacet
  facet normal 0 -1 0
    outer loop
      vertex 189 0 12
      vertex 195 0 0
      vertex 192.536 0 15.5355
    endloop
  endfacet
  facet normal 0 -1 0
    outer loop
      vertex 176 0 12
      vertex 195 0 0
      vertex 189 0 12
    endloop
  endfacet
  facet normal -0 0 1
    outer loop
      vertex 0 5 20
      vertex 3 0 20
      vertex 3 5 20
    endloop
  endfacet
  facet normal 0 0 1
    outer loop
      vertex 3 0 20
      vertex 0 5 20
      vertex 0 0 20
    endloop
  endfacet
  facet normal -0 0 1
    outer loop
      vertex 188.071 5 20
      vertex 195 0 20
      vertex 195 5 20
    endloop
  endfacet
  facet normal 0 0 1
    outer loop
      vertex 195 0 20
      vertex 188.071 5 20
      vertex 188.071 0 20
    endloop
  endfacet
  facet normal -0 0 1
    outer loop
      vertex 17.1421 5 20
      vertex 25 0 20
      vertex 25 5 20
    endloop
  endfacet
  facet normal 0 0 1
    outer loop
      vertex 25 0 20
      vertex 17.1421 5 20
      vertex 17.1421 0 20
    endloop
  endfacet
  facet normal -0 0 1
    outer loop
      vertex 39.1421 5 20
      vertex 48 0 20
      vertex 48 5 20
    endloop
  endfacet
  facet normal 0 0 1
    outer loop
      vertex 48 0 20
      vertex 39.1421 5 20
      vertex 39.1421 0 20
    endloop
  endfacet
  facet normal -0 0 1
    outer loop
      vertex 59.3137 5 20
      vertex 67 0 20
      vertex 67 5 20
    endloop
  endfacet
  facet normal 0 0 1
    outer loop
      vertex 67 0 20
      vertex 59.3137 5 20
      vertex 59.3137 0 20
    endloop
  endfacet
  facet normal -0 0 1
    outer loop
      vertex 78.3137 5 20
      vertex 86 0 20
      vertex 86 5 20
    endloop
  endfacet
  facet normal 0 0 1
    outer loop
      vertex 86 0 20
      vertex 78.3137 5 20
      vertex 78.3137 0 20
    endloop
  endfacet
  facet normal -0 0 1
    outer loop
      vertex 97.3137 5 20
      vertex 105 0 20
      vertex 105 5 20
    endloop
  endfacet
  facet normal 0 0 1
    outer loop
      vertex 105 0 20
      vertex 97.3137 5 20
      vertex 97.3137 0 20
    endloop
  endfacet
  facet normal -0 0 1
    outer loop
      vertex 114.899 5 20
      vertex 123 0 20
      vertex 123 5 20
    endloop
  endfacet
  facet normal 0 0 1
    outer loop
      vertex 123 0 20
      vertex 114.899 5 20
      vertex 114.899 0 20
    endloop
  endfacet
  facet normal -0 0 1
    outer loop
      vertex 131.485 5 20
      vertex 138 0 20
      vertex 138 5 20
    endloop
  endfacet
  facet normal 0 0 1
    outer loop
      vertex 138 0 20
      vertex 131.485 5 20
      vertex 131.485 0 20
    endloop
  endfacet
  facet normal -0 0 1
    outer loop
      vertex 145.778 5 20
      vertex 152.5 0 20
      vertex 152.5 5 20
    endloop
  endfacet
  facet normal 0 0 1
    outer loop
      vertex 152.5 0 20
      vertex 145.778 5 20
      vertex 145.778 0 20
    endloop
  endfacet
  facet normal -0 0 1
    outer loop
      vertex 160.278 5 20
      vertex 168 0 20
      vertex 168 5 20
    endloop
  endfacet
  facet normal 0 0 1
    outer loop
      vertex 168 0 20
      vertex 160.278 5 20
      vertex 160.278 0 20
    endloop
  endfacet
  facet normal -0 0 1
    outer loop
      vertex 175.071 5 20
      vertex 181 0 20
      vertex 181 5 20
    endloop
  endfacet
  facet normal 0 0 1
    outer loop
      vertex 181 0 20
      vertex 175.071 5 20
      vertex 175.071 0 20
    endloop
  endfacet
  facet normal 0 1 0
    outer loop
      vertex 195 5 20
      vertex 192.536 5 15.5355
      vertex 188.071 5 20
    endloop
  endfacet
  facet normal 0 1 0
    outer loop
      vertex 195 5 2
      vertex 176 5 12
      vertex 189 5 12
    endloop
  endfacet
  facet normal 0 1 0
    outer loop
      vertex 195 5 2
      vertex 147 5 11
      vertex 161.5 5 11
    endloop
  endfacet
  facet normal 0 1 0
    outer loop
      vertex 147 5 11
      vertex 195 5 2
      vertex 132 5 11
    endloop
  endfacet
  facet normal 0 1 0
    outer loop
      vertex 132 5 11
      vertex 195 5 2
      vertex 115 5 10
    endloop
  endfacet
  facet normal 0 1 0
    outer loop
      vertex 0 5 2
      vertex 78 5 9
      vertex 97 5 9
    endloop
  endfacet
  facet normal 0 1 0
    outer loop
      vertex 78 5 9
      vertex 0 5 2
      vertex 59 5 9
    endloop
  endfacet
  facet normal 0 1 0
    outer loop
      vertex 59 5 9
      vertex 0 5 2
      vertex 37 5 8
    endloop
  endfacet
  facet normal 0 1 0
    outer loop
      vertex 0 5 2
      vertex 97 5 9
      vertex 195 5 2
    endloop
  endfacet
  facet normal 0 1 0
    outer loop
      vertex 115 5 10
      vertex 195 5 2
      vertex 97 5 9
    endloop
  endfacet
  facet normal 0 1 0
    outer loop
      vertex 176 5 12
      vertex 195 5 2
      vertex 161.5 5 11
    endloop
  endfacet
  facet normal 0 1 0
    outer loop
      vertex 192.536 5 15.5355
      vertex 195 5 2
      vertex 189 5 12
    endloop
  endfacet
  facet normal 0 1 -0
    outer loop
      vertex 195 5 2
      vertex 192.536 5 15.5355
      vertex 195 5 20
    endloop
  endfacet
  facet normal 0 1 0
    outer loop
      vertex 181 5 20
      vertex 179.536 5 15.5355
      vertex 175.071 5 20
    endloop
  endfacet
  facet normal 0 1 0
    outer loop
      vertex 189 5 12
      vertex 179.536 5 15.5355
      vertex 181 5 20
    endloop
  endfacet
  facet normal 0 1 0
    outer loop
      vertex 179.536 5 15.5355
      vertex 189 5 12
      vertex 176 5 12
    endloop
  endfacet
  facet normal 0 1 0
    outer loop
      vertex 168 5 20
      vertex 165.389 5 14.8891
      vertex 160.278 5 20
    endloop
  endfacet
  facet normal 0 1 0
    outer loop
      vertex 176 5 12
      vertex 165.389 5 14.8891
      vertex 168 5 20
    endloop
  endfacet
  facet normal 0 1 0
    outer loop
      vertex 165.389 5 14.8891
      vertex 176 5 12
      vertex 161.5 5 11
    endloop
  endfacet
  facet normal 0 1 0
    outer loop
      vertex 152.5 5 20
      vertex 150.889 5 14.8891
      vertex 145.778 5 20
    endloop
  endfacet
  facet normal 0 1 0
    outer loop
      vertex 161.5 5 11
      vertex 150.889 5 14.8891
      vertex 152.5 5 20
    endloop
  endfacet
  facet normal 0 1 0
    outer loop
      vertex 150.889 5 14.8891
      vertex 161.5 5 11
      vertex 147 5 11
    endloop
  endfacet
  facet normal 0 1 0
    outer loop
      vertex 138 5 20
      vertex 136.243 5 15.2426
      vertex 131.485 5 20
    endloop
  endfacet
  facet normal 0 1 0
    outer loop
      vertex 147 5 11
      vertex 136.243 5 15.2426
      vertex 138 5 20
    endloop
  endfacet
  facet normal 0 1 0
    outer loop
      vertex 136.243 5 15.2426
      vertex 147 5 11
      vertex 132 5 11
    endloop
  endfacet
  facet normal 0 1 0
    outer loop
      vertex 123 5 20
      vertex 119.95 5 14.9497
      vertex 114.899 5 20
    endloop
  endfacet
  facet normal 0 1 0
    outer loop
      vertex 132 5 11
      vertex 119.95 5 14.9497
      vertex 123 5 20
    endloop
  endfacet
  facet normal 0 1 0
    outer loop
      vertex 119.95 5 14.9497
      vertex 132 5 11
      vertex 115 5 10
    endloop
  endfacet
  facet normal 0 1 0
    outer loop
      vertex 105 5 20
      vertex 102.657 5 14.6569
      vertex 97.3137 5 20
    endloop
  endfacet
  facet normal 0 1 0
    outer loop
      vertex 115 5 10
      vertex 102.657 5 14.6569
      vertex 105 5 20
    endloop
  endfacet
  facet normal 0 1 0
    outer loop
      vertex 102.657 5 14.6569
      vertex 115 5 10
      vertex 97 5 9
    endloop
  endfacet
  facet normal 0 1 0
    outer loop
      vertex 86 5 20
      vertex 83.6569 5 14.6569
      vertex 78.3137 5 20
    endloop
  endfacet
  facet normal 0 1 0
    outer loop
      vertex 97 5 9
      vertex 83.6569 5 14.6569
      vertex 86 5 20
    endloop
  endfacet
  facet normal 0 1 0
    outer loop
      vertex 83.6569 5 14.6569
      vertex 97 5 9
      vertex 78 5 9
    endloop
  endfacet
  facet normal 0 1 0
    outer loop
      vertex 67 5 20
      vertex 64.6569 5 14.6569
      vertex 59.3137 5 20
    endloop
  endfacet
  facet normal 0 1 0
    outer loop
      vertex 78 5 9
      vertex 64.6569 5 14.6569
      vertex 67 5 20
    endloop
  endfacet
  facet normal 0 1 0
    outer loop
      vertex 64.6569 5 14.6569
      vertex 78 5 9
      vertex 59 5 9
    endloop
  endfacet
  facet normal 0 1 0
    outer loop
      vertex 48 5 20
      vertex 44.0711 5 15.0711
      vertex 39.1421 5 20
    endloop
  endfacet
  facet normal 0 1 0
    outer loop
      vertex 59 5 9
      vertex 44.0711 5 15.0711
      vertex 48 5 20
    endloop
  endfacet
  facet normal 0 1 0
    outer loop
      vertex 44.0711 5 15.0711
      vertex 59 5 9
      vertex 37 5 8
    endloop
  endfacet
  facet normal 0 1 0
    outer loop
      vertex 25 5 20
      vertex 22.0711 5 15.0711
      vertex 17.1421 5 20
    endloop
  endfacet
  facet normal 0 1 0
    outer loop
      vertex 37 5 8
      vertex 22.0711 5 15.0711
      vertex 25 5 20
    endloop
  endfacet
  facet normal 0 1 0
    outer loop
      vertex 22.0711 5 15.0711
      vertex 37 5 8
      vertex 15 5 8
    endloop
  endfacet
  facet normal 0 1 0
    outer loop
      vertex 0 5 2
      vertex 3 5 20
      vertex 15 5 8
    endloop
  endfacet
  facet normal 0 1 0
    outer loop
      vertex 3 5 20
      vertex 0 5 2
      vertex 0 5 20
    endloop
  endfacet
  facet normal 0 1 0
    outer loop
      vertex 37 5 8
      vertex 0 5 2
      vertex 15 5 8
    endloop
  endfacet
  facet normal -0 0 1
    outer loop
      vertex 0 70 20
      vertex 3 65 20
      vertex 3 70 20
    endloop
  endfacet
  facet normal 0 0 1
    outer loop
      vertex 3 65 20
      vertex 0 70 20
      vertex 0 65 20
    endloop
  endfacet
  facet normal -0 0 1
    outer loop
      vertex 188.071 70 20
      vertex 195 65 20
      vertex 195 70 20
    endloop
  endfacet
  facet normal 0 0 1
    outer loop
      vertex 195 65 20
      vertex 188.071 70 20
      vertex 188.071 65 20
    endloop
  endfacet
  facet normal -0 0 1
    outer loop
      vertex 17.1421 70 20
      vertex 25 65 20
      vertex 25 70 20
    endloop
  endfacet
  facet normal 0 0 1
    outer loop
      vertex 25 65 20
      vertex 17.1421 70 20
      vertex 17.1421 65 20
    endloop
  endfacet
  facet normal -0 0 1
    outer loop
      vertex 39.1421 70 20
      vertex 48 65 20
      vertex 48 70 20
    endloop
  endfacet
  facet normal 0 0 1
    outer loop
      vertex 48 65 20
      vertex 39.1421 70 20
      vertex 39.1421 65 20
    endloop
  endfacet
  facet normal -0 0 1
    outer loop
      vertex 59.3137 70 20
      vertex 67 65 20
      vertex 67 70 20
    endloop
  endfacet
  facet normal 0 0 1
    outer loop
      vertex 67 65 20
      vertex 59.3137 70 20
      vertex 59.3137 65 20
    endloop
  endfacet
  facet normal -0 0 1
    outer loop
      vertex 78.3137 70 20
      vertex 86 65 20
      vertex 86 70 20
    endloop
  endfacet
  facet normal 0 0 1
    outer loop
      vertex 86 65 20
      vertex 78.3137 70 20
      vertex 78.3137 65 20
    endloop
  endfacet
  facet normal -0 0 1
    outer loop
      vertex 97.3137 70 20
      vertex 105 65 20
      vertex 105 70 20
    endloop
  endfacet
  facet normal 0 0 1
    outer loop
      vertex 105 65 20
      vertex 97.3137 70 20
      vertex 97.3137 65 20
    endloop
  endfacet
  facet normal -0 0 1
    outer loop
      vertex 114.899 70 20
      vertex 123 65 20
      vertex 123 70 20
    endloop
  endfacet
  facet normal 0 0 1
    outer loop
      vertex 123 65 20
      vertex 114.899 70 20
      vertex 114.899 65 20
    endloop
  endfacet
  facet normal -0 0 1
    outer loop
      vertex 131.485 70 20
      vertex 138 65 20
      vertex 138 70 20
    endloop
  endfacet
  facet normal 0 0 1
    outer loop
      vertex 138 65 20
      vertex 131.485 70 20
      vertex 131.485 65 20
    endloop
  endfacet
  facet normal -0 0 1
    outer loop
      vertex 145.778 70 20
      vertex 152.5 65 20
      vertex 152.5 70 20
    endloop
  endfacet
  facet normal 0 0 1
    outer loop
      vertex 152.5 65 20
      vertex 145.778 70 20
      vertex 145.778 65 20
    endloop
  endfacet
  facet normal -0 0 1
    outer loop
      vertex 160.278 70 20
      vertex 168 65 20
      vertex 168 70 20
    endloop
  endfacet
  facet normal 0 0 1
    outer loop
      vertex 168 65 20
      vertex 160.278 70 20
      vertex 160.278 65 20
    endloop
  endfacet
  facet normal -0 0 1
    outer loop
      vertex 175.071 70 20
      vertex 181 65 20
      vertex 181 70 20
    endloop
  endfacet
  facet normal 0 0 1
    outer loop
      vertex 181 65 20
      vertex 175.071 70 20
      vertex 175.071 65 20
    endloop
  endfacet
  facet normal 0 -1 0
    outer loop
      vertex 0 65 2
      vertex 3 65 20
      vertex 0 65 20
    endloop
  endfacet
  facet normal 0 -1 -0
    outer loop
      vertex 15 65 8
      vertex 0 65 2
      vertex 37 65 8
    endloop
  endfacet
  facet normal 0 -1 -0
    outer loop
      vertex 3 65 20
      vertex 0 65 2
      vertex 15 65 8
    endloop
  endfacet
  facet normal 0 -1 0
    outer loop
      vertex 22.0711 65 15.0711
      vertex 25 65 20
      vertex 17.1421 65 20
    endloop
  endfacet
  facet normal 0 -1 0
    outer loop
      vertex 22.0711 65 15.0711
      vertex 37 65 8
      vertex 25 65 20
    endloop
  endfacet
  facet normal 0 -1 0
    outer loop
      vertex 37 65 8
      vertex 22.0711 65 15.0711
      vertex 15 65 8
    endloop
  endfacet
  facet normal 0 -1 0
    outer loop
      vertex 44.0711 65 15.0711
      vertex 48 65 20
      vertex 39.1421 65 20
    endloop
  endfacet
  facet normal 0 -1 0
    outer loop
      vertex 44.0711 65 15.0711
      vertex 59 65 9
      vertex 48 65 20
    endloop
  endfacet
  facet normal 0 -1 0
    outer loop
      vertex 0 65 2
      vertex 78 65 9
      vertex 59 65 9
    endloop
  endfacet
  facet normal 0 -1 0
    outer loop
      vertex 0 65 2
      vertex 59 65 9
      vertex 37 65 8
    endloop
  endfacet
  facet normal 0 -1 0
    outer loop
      vertex 37 65 8
      vertex 59 65 9
      vertex 44.0711 65 15.0711
    endloop
  endfacet
  facet normal 0 -1 0
    outer loop
      vertex 64.6569 65 14.6569
      vertex 67 65 20
      vertex 59.3137 65 20
    endloop
  endfacet
  facet normal 0 -1 0
    outer loop
      vertex 64.6569 65 14.6569
      vertex 78 65 9
      vertex 67 65 20
    endloop
  endfacet
  facet normal 0 -1 0
    outer loop
      vertex 78 65 9
      vertex 64.6569 65 14.6569
      vertex 59 65 9
    endloop
  endfacet
  facet normal 0 -1 0
    outer loop
      vertex 83.6569 65 14.6569
      vertex 86 65 20
      vertex 78.3137 65 20
    endloop
  endfacet
  facet normal 0 -1 0
    outer loop
      vertex 83.6569 65 14.6569
      vertex 97 65 9
      vertex 86 65 20
    endloop
  endfacet
  facet normal 0 -1 0
    outer loop
      vertex 97 65 9
      vertex 83.6569 65 14.6569
      vertex 78 65 9
    endloop
  endfacet
  facet normal 0 -1 0
    outer loop
      vertex 102.657 65 14.6569
      vertex 105 65 20
      vertex 97.3137 65 20
    endloop
  endfacet
  facet normal 0 -1 0
    outer loop
      vertex 102.657 65 14.6569
      vertex 115 65 10
      vertex 105 65 20
    endloop
  endfacet
  facet normal -0 -1 0
    outer loop
      vertex 115 65 10
      vertex 102.657 65 14.6569
      vertex 97 65 9
    endloop
  endfacet
  facet normal 0 -1 0
    outer loop
      vertex 119.95 65 14.9497
      vertex 123 65 20
      vertex 114.899 65 20
    endloop
  endfacet
  facet normal 0 -1 0
    outer loop
      vertex 119.95 65 14.9497
      vertex 132 65 11
      vertex 123 65 20
    endloop
  endfacet
  facet normal 0 -1 0
    outer loop
      vertex 195 65 2
      vertex 147 65 11
      vertex 132 65 11
    endloop
  endfacet
  facet normal 0 -1 0
    outer loop
      vertex 195 65 2
      vertex 132 65 11
      vertex 115 65 10
    endloop
  endfacet
  facet normal 0 -1 0
    outer loop
      vertex 115 65 10
      vertex 132 65 11
      vertex 119.95 65 14.9497
    endloop
  endfacet
  facet normal 0 -1 0
    outer loop
      vertex 136.243 65 15.2426
      vertex 138 65 20
      vertex 131.485 65 20
    endloop
  endfacet
  facet normal 0 -1 0
    outer loop
      vertex 136.243 65 15.2426
      vertex 147 65 11
      vertex 138 65 20
    endloop
  endfacet
  facet normal 0 -1 0
    outer loop
      vertex 147 65 11
      vertex 136.243 65 15.2426
      vertex 132 65 11
    endloop
  endfacet
  facet normal 0 -1 0
    outer loop
      vertex 150.889 65 14.8891
      vertex 152.5 65 20
      vertex 145.778 65 20
    endloop
  endfacet
  facet normal 0 -1 0
    outer loop
      vertex 150.889 65 14.8891
      vertex 161.5 65 11
      vertex 152.5 65 20
    endloop
  endfacet
  facet normal 0 -1 0
    outer loop
      vertex 161.5 65 11
      vertex 150.889 65 14.8891
      vertex 147 65 11
    endloop
  endfacet
  facet normal 0 -1 0
    outer loop
      vertex 165.389 65 14.8891
      vertex 168 65 20
      vertex 160.278 65 20
    endloop
  endfacet
  facet normal 0 -1 0
    outer loop
      vertex 165.389 65 14.8891
      vertex 176 65 12
      vertex 168 65 20
    endloop
  endfacet
  facet normal 0 -1 0
    outer loop
      vertex 195 65 2
      vertex 176 65 12
      vertex 161.5 65 11
    endloop
  endfacet
  facet normal 0 -1 0
    outer loop
      vertex 161.5 65 11
      vertex 176 65 12
      vertex 165.389 65 14.8891
    endloop
  endfacet
  facet normal 0 -1 0
    outer loop
      vertex 179.536 65 15.5355
      vertex 181 65 20
      vertex 175.071 65 20
    endloop
  endfacet
  facet normal 0 -1 0
    outer loop
      vertex 179.536 65 15.5355
      vertex 189 65 12
      vertex 181 65 20
    endloop
  endfacet
  facet normal 0 -1 0
    outer loop
      vertex 189 65 12
      vertex 179.536 65 15.5355
      vertex 176 65 12
    endloop
  endfacet
  facet normal 0 -1 0
    outer loop
      vertex 192.536 65 15.5355
      vertex 195 65 20
      vertex 188.071 65 20
    endloop
  endfacet
  facet normal 0 -1 0
    outer loop
      vertex 195 65 2
      vertex 115 65 10
      vertex 97 65 9
    endloop
  endfacet
  facet normal 0 -1 -0
    outer loop
      vertex 78 65 9
      vertex 0 65 2
      vertex 97 65 9
    endloop
  endfacet
  facet normal 0 -1 0
    outer loop
      vertex 195 65 2
      vertex 97 65 9
      vertex 0 65 2
    endloop
  endfacet
  facet normal 0 -1 0
    outer loop
      vertex 147 65 11
      vertex 195 65 2
      vertex 161.5 65 11
    endloop
  endfacet
  facet normal 0 -1 0
    outer loop
      vertex 192.536 65 15.5355
      vertex 195 65 2
      vertex 195 65 20
    endloop
  endfacet
  facet normal 0 -1 0
    outer loop
      vertex 189 65 12
      vertex 195 65 2
      vertex 192.536 65 15.5355
    endloop
  endfacet
  facet normal 0 -1 0
    outer loop
      vertex 176 65 12
      vertex 195 65 2
      vertex 189 65 12
    endloop
  endfacet
endsolid OpenSCAD_Model
