solid OpenSCAD_Model
  facet normal -1 0 0
    outer loop
      vertex 1 4 0
      vertex 1 1 0.599999
      vertex 1 4 0.599999
    endloop
  endfacet
  facet normal -1 0 0
    outer loop
      vertex 1 0 0
      vertex 1 1 0.599999
      vertex 1 4 0
    endloop
  endfacet
  facet normal -1 0 0
    outer loop
      vertex 1 0 1.3
      vertex 1 1 0.599999
      vertex 1 0 0
    endloop
  endfacet
  facet normal -1 0 0
    outer loop
      vertex 1 1 0.599999
      vertex 1 0 1.3
      vertex 1 1 1.3
    endloop
  endfacet
  facet normal -0 0 1
    outer loop
      vertex 1 1 1.3
      vertex 3 0 1.3
      vertex 3 1 1.3
    endloop
  endfacet
  facet normal 0 0 1
    outer loop
      vertex 3 0 1.3
      vertex 1 1 1.3
      vertex 1 0 1.3
    endloop
  endfacet
  facet normal 1 0 0
    outer loop
      vertex 3 1 1.3
      vertex 3 0 1.3
      vertex 3 1 0.599999
    endloop
  endfacet
  facet normal 1 -0 0
    outer loop
      vertex 3 1 0.599999
      vertex 3 4 0
      vertex 3 4 0.599999
    endloop
  endfacet
  facet normal 1 0 0
    outer loop
      vertex 3 1 0.599999
      vertex 3 0 0
      vertex 3 4 0
    endloop
  endfacet
  facet normal 1 0 0
    outer loop
      vertex 3 0 0
      vertex 3 1 0.599999
      vertex 3 0 1.3
    endloop
  endfacet
  facet normal 0 0 -1
    outer loop
      vertex 0 4 0
      vertex 1 56 0
      vertex 1 4 0
    endloop
  endfacet
  facet normal -0 0 -1
    outer loop
      vertex 1 56 0
      vertex 0 4 0
      vertex 0 56 0
    endloop
  endfacet
  facet normal 0 0 -1
    outer loop
      vertex 1 4 0
      vertex 3 4 0
      vertex 3 0 0
    endloop
  endfacet
  facet normal 0 0 -1
    outer loop
      vertex 3 4 0
      vertex 1 4 0
      vertex 3 56 0
    endloop
  endfacet
  facet normal 0 0 -1
    outer loop
      vertex 1 4 0
      vertex 3 0 0
      vertex 1 0 0
    endloop
  endfacet
  facet normal 0 0 -1
    outer loop
      vertex 1 56 0
      vertex 3 56 0
      vertex 1 4 0
    endloop
  endfacet
  facet normal 0 0 -1
    outer loop
      vertex 3 56 0
      vertex 1 56 0
      vertex 3 60 0
    endloop
  endfacet
  facet normal -0 0 -1
    outer loop
      vertex 3 60 0
      vertex 1 56 0
      vertex 1 60 0
    endloop
  endfacet
  facet normal 0 0 -1
    outer loop
      vertex 3 4 0
      vertex 4 15 0
      vertex 4 4 0
    endloop
  endfacet
  facet normal -0 0 -1
    outer loop
      vertex 4 15 0
      vertex 3 4 0
      vertex 4 19 0
    endloop
  endfacet
  facet normal 0 0 -1
    outer loop
      vertex 3 56 0
      vertex 4 19 0
      vertex 3 4 0
    endloop
  endfacet
  facet normal 0 0 -1
    outer loop
      vertex 4 19 0
      vertex 3 56 0
      vertex 4 45 0
    endloop
  endfacet
  facet normal 0 0 -1
    outer loop
      vertex 4 45 0
      vertex 3 56 0
      vertex 4 49 0
    endloop
  endfacet
  facet normal 0 0 -1
    outer loop
      vertex 4 49 0
      vertex 3 56 0
      vertex 4 56 0
    endloop
  endfacet
  facet normal 0 0 -1
    outer loop
      vertex 4 45 0
      vertex 110 49 0
      vertex 110 45 0
    endloop
  endfacet
  facet normal -0 0 -1
    outer loop
      vertex 110 49 0
      vertex 4 45 0
      vertex 4 49 0
    endloop
  endfacet
  facet normal 0 0 -1
    outer loop
      vertex 4 15 0
      vertex 110 19 0
      vertex 110 15 0
    endloop
  endfacet
  facet normal -0 0 -1
    outer loop
      vertex 110 19 0
      vertex 4 15 0
      vertex 4 19 0
    endloop
  endfacet
  facet normal 0 0 -1
    outer loop
      vertex 110 15 0
      vertex 111 4 0
      vertex 110 4 0
    endloop
  endfacet
  facet normal 0 0 -1
    outer loop
      vertex 110 19 0
      vertex 111 4 0
      vertex 110 15 0
    endloop
  endfacet
  facet normal 0 0 -1
    outer loop
      vertex 111 4 0
      vertex 110 19 0
      vertex 111 56 0
    endloop
  endfacet
  facet normal 0 0 -1
    outer loop
      vertex 110 45 0
      vertex 111 56 0
      vertex 110 19 0
    endloop
  endfacet
  facet normal 0 0 -1
    outer loop
      vertex 110 49 0
      vertex 111 56 0
      vertex 110 45 0
    endloop
  endfacet
  facet normal -0 0 -1
    outer loop
      vertex 111 56 0
      vertex 110 49 0
      vertex 110 56 0
    endloop
  endfacet
  facet normal 0 0 -1
    outer loop
      vertex 111 4 0
      vertex 113 4 0
      vertex 113 0 0
    endloop
  endfacet
  facet normal 0 0 -1
    outer loop
      vertex 113 4 0
      vertex 111 4 0
      vertex 113 56 0
    endloop
  endfacet
  facet normal 0 0 -1
    outer loop
      vertex 111 4 0
      vertex 113 0 0
      vertex 111 0 0
    endloop
  endfacet
  facet normal 0 0 -1
    outer loop
      vertex 111 56 0
      vertex 113 56 0
      vertex 111 4 0
    endloop
  endfacet
  facet normal 0 0 -1
    outer loop
      vertex 113 56 0
      vertex 111 56 0
      vertex 113 60 0
    endloop
  endfacet
  facet normal -0 0 -1
    outer loop
      vertex 113 60 0
      vertex 111 56 0
      vertex 111 60 0
    endloop
  endfacet
  facet normal 0 0 -1
    outer loop
      vertex 113 4 0
      vertex 114 56 0
      vertex 114 4 0
    endloop
  endfacet
  facet normal -0 0 -1
    outer loop
      vertex 114 56 0
      vertex 113 4 0
      vertex 113 56 0
    endloop
  endfacet
  facet normal 0 -1 0
    outer loop
      vertex 1 0 0
      vertex 3 0 1.3
      vertex 1 0 1.3
    endloop
  endfacet
  facet normal 0 -1 -0
    outer loop
      vertex 3 0 1.3
      vertex 1 0 0
      vertex 3 0 0
    endloop
  endfacet
  facet normal 0 1 -0
    outer loop
      vertex 3 1 0.599999
      vertex 1 1 1.3
      vertex 3 1 1.3
    endloop
  endfacet
  facet normal 0 1 0
    outer loop
      vertex 1 1 1.3
      vertex 3 1 0.599999
      vertex 1 1 0.599999
    endloop
  endfacet
  facet normal -0 0 1
    outer loop
      vertex 0 56 0.599999
      vertex 1 4 0.599999
      vertex 1 56 0.599999
    endloop
  endfacet
  facet normal 0 0 1
    outer loop
      vertex 1 4 0.599999
      vertex 0 56 0.599999
      vertex 0 4 0.599999
    endloop
  endfacet
  facet normal 0 0 1
    outer loop
      vertex 1 56 0.599999
      vertex 3 56 0.599999
      vertex 3 59 0.599999
    endloop
  endfacet
  facet normal 0 0 1
    outer loop
      vertex 3 56 0.599999
      vertex 1 56 0.599999
      vertex 3 4 0.599999
    endloop
  endfacet
  facet normal 0 0 1
    outer loop
      vertex 1 56 0.599999
      vertex 3 59 0.599999
      vertex 1 59 0.599999
    endloop
  endfacet
  facet normal 0 0 1
    outer loop
      vertex 1 4 0.599999
      vertex 3 4 0.599999
      vertex 1 56 0.599999
    endloop
  endfacet
  facet normal 0 0 1
    outer loop
      vertex 3 4 0.599999
      vertex 1 4 0.599999
      vertex 3 1 0.599999
    endloop
  endfacet
  facet normal 0 0 1
    outer loop
      vertex 3 1 0.599999
      vertex 1 4 0.599999
      vertex 1 1 0.599999
    endloop
  endfacet
  facet normal -0 0 1
    outer loop
      vertex 3 56 0.599999
      vertex 4 49 0.599999
      vertex 4 56 0.599999
    endloop
  endfacet
  facet normal 0 0 1
    outer loop
      vertex 4 49 0.599999
      vertex 3 56 0.599999
      vertex 4 45 0.599999
    endloop
  endfacet
  facet normal 0 0 1
    outer loop
      vertex 4 45 0.599999
      vertex 3 56 0.599999
      vertex 4 19 0.599999
    endloop
  endfacet
  facet normal 0 0 1
    outer loop
      vertex 3 4 0.599999
      vertex 4 19 0.599999
      vertex 3 56 0.599999
    endloop
  endfacet
  facet normal 0 0 1
    outer loop
      vertex 4 19 0.599999
      vertex 3 4 0.599999
      vertex 4 15 0.599999
    endloop
  endfacet
  facet normal 0 0 1
    outer loop
      vertex 4 15 0.599999
      vertex 3 4 0.599999
      vertex 4 4 0.599999
    endloop
  endfacet
  facet normal -0 0 1
    outer loop
      vertex 4 19 0.599999
      vertex 110 15 0.599999
      vertex 110 19 0.599999
    endloop
  endfacet
  facet normal 0 0 1
    outer loop
      vertex 110 15 0.599999
      vertex 4 19 0.599999
      vertex 4 15 0.599999
    endloop
  endfacet
  facet normal -0 0 1
    outer loop
      vertex 4 49 0.599999
      vertex 110 45 0.599999
      vertex 110 49 0.599999
    endloop
  endfacet
  facet normal 0 0 1
    outer loop
      vertex 110 45 0.599999
      vertex 4 49 0.599999
      vertex 4 45 0.599999
    endloop
  endfacet
  facet normal 0 0 1
    outer loop
      vertex 110 49 0.599999
      vertex 111 56 0.599999
      vertex 110 56 0.599999
    endloop
  endfacet
  facet normal 0 0 1
    outer loop
      vertex 110 45 0.599999
      vertex 111 56 0.599999
      vertex 110 49 0.599999
    endloop
  endfacet
  facet normal 0 0 1
    outer loop
      vertex 110 19 0.599999
      vertex 111 56 0.599999
      vertex 110 45 0.599999
    endloop
  endfacet
  facet normal 0 0 1
    outer loop
      vertex 111 56 0.599999
      vertex 110 19 0.599999
      vertex 111 4 0.599999
    endloop
  endfacet
  facet normal -0 0 1
    outer loop
      vertex 110 15 0.599999
      vertex 111 4 0.599999
      vertex 110 19 0.599999
    endloop
  endfacet
  facet normal 0 0 1
    outer loop
      vertex 111 4 0.599999
      vertex 110 15 0.599999
      vertex 110 4 0.599999
    endloop
  endfacet
  facet normal 0 0 1
    outer loop
      vertex 111 56 0.599999
      vertex 113 56 0.599999
      vertex 113 59 0.599999
    endloop
  endfacet
  facet normal 0 0 1
    outer loop
      vertex 113 56 0.599999
      vertex 111 56 0.599999
      vertex 113 4 0.599999
    endloop
  endfacet
  facet normal 0 0 1
    outer loop
      vertex 111 56 0.599999
      vertex 113 59 0.599999
      vertex 111 59 0.599999
    endloop
  endfacet
  facet normal 0 0 1
    outer loop
      vertex 111 4 0.599999
      vertex 113 4 0.599999
      vertex 111 56 0.599999
    endloop
  endfacet
  facet normal 0 0 1
    outer loop
      vertex 113 4 0.599999
      vertex 111 4 0.599999
      vertex 113 1 0.599999
    endloop
  endfacet
  facet normal 0 0 1
    outer loop
      vertex 113 1 0.599999
      vertex 111 4 0.599999
      vertex 111 1 0.599999
    endloop
  endfacet
  facet normal -0 0 1
    outer loop
      vertex 113 56 0.599999
      vertex 114 4 0.599999
      vertex 114 56 0.599999
    endloop
  endfacet
  facet normal 0 0 1
    outer loop
      vertex 114 4 0.599999
      vertex 113 56 0.599999
      vertex 113 4 0.599999
    endloop
  endfacet
  facet normal 0 -1 0
    outer loop
      vertex 3 4 0
      vertex 4 4 0.599999
      vertex 3 4 0.599999
    endloop
  endfacet
  facet normal 0 -1 -0
    outer loop
      vertex 4 4 0.599999
      vertex 3 4 0
      vertex 4 4 0
    endloop
  endfacet
  facet normal 0 -1 0
    outer loop
      vertex 0 4 0
      vertex 1 4 0.599999
      vertex 0 4 0.599999
    endloop
  endfacet
  facet normal 0 -1 -0
    outer loop
      vertex 1 4 0.599999
      vertex 0 4 0
      vertex 1 4 0
    endloop
  endfacet
  facet normal -1 0 0
    outer loop
      vertex 0 4 0
      vertex 0 56 0.599999
      vertex 0 56 0
    endloop
  endfacet
  facet normal -1 -0 0
    outer loop
      vertex 0 56 0.599999
      vertex 0 4 0
      vertex 0 4 0.599999
    endloop
  endfacet
  facet normal 1 -0 0
    outer loop
      vertex 4 19 0.599999
      vertex 4 45 0
      vertex 4 45 0.599999
    endloop
  endfacet
  facet normal 1 0 0
    outer loop
      vertex 4 45 0
      vertex 4 19 0.599999
      vertex 4 19 0
    endloop
  endfacet
  facet normal 1 -0 0
    outer loop
      vertex 4 49 0.599999
      vertex 4 56 0
      vertex 4 56 0.599999
    endloop
  endfacet
  facet normal 1 0 0
    outer loop
      vertex 4 56 0
      vertex 4 49 0.599999
      vertex 4 49 0
    endloop
  endfacet
  facet normal 1 -0 0
    outer loop
      vertex 4 4 0.599999
      vertex 4 15 0
      vertex 4 15 0.599999
    endloop
  endfacet
  facet normal 1 0 0
    outer loop
      vertex 4 15 0
      vertex 4 4 0.599999
      vertex 4 4 0
    endloop
  endfacet
  facet normal 0 1 -0
    outer loop
      vertex 4 56 0
      vertex 3 56 0.599999
      vertex 4 56 0.599999
    endloop
  endfacet
  facet normal 0 1 0
    outer loop
      vertex 3 56 0.599999
      vertex 4 56 0
      vertex 3 56 0
    endloop
  endfacet
  facet normal 0 1 -0
    outer loop
      vertex 1 56 0
      vertex 0 56 0.599999
      vertex 1 56 0.599999
    endloop
  endfacet
  facet normal 0 1 0
    outer loop
      vertex 0 56 0.599999
      vertex 1 56 0
      vertex 0 56 0
    endloop
  endfacet
  facet normal -1 0 0
    outer loop
      vertex 1 60 0
      vertex 1 59 0.599999
      vertex 1 60 1.3
    endloop
  endfacet
  facet normal -1 0 0
    outer loop
      vertex 1 56 0
      vertex 1 59 0.599999
      vertex 1 60 0
    endloop
  endfacet
  facet normal -1 -0 0
    outer loop
      vertex 1 59 0.599999
      vertex 1 56 0
      vertex 1 56 0.599999
    endloop
  endfacet
  facet normal -1 -0 0
    outer loop
      vertex 1 60 1.3
      vertex 1 59 0.599999
      vertex 1 59 1.3
    endloop
  endfacet
  facet normal 1 0 0
    outer loop
      vertex 3 59 0.599999
      vertex 3 60 1.3
      vertex 3 59 1.3
    endloop
  endfacet
  facet normal 1 0 0
    outer loop
      vertex 3 60 1.3
      vertex 3 59 0.599999
      vertex 3 60 0
    endloop
  endfacet
  facet normal 1 0 0
    outer loop
      vertex 3 56 0
      vertex 3 59 0.599999
      vertex 3 56 0.599999
    endloop
  endfacet
  facet normal 1 0 0
    outer loop
      vertex 3 59 0.599999
      vertex 3 56 0
      vertex 3 60 0
    endloop
  endfacet
  facet normal 0 -1 0
    outer loop
      vertex 1 59 0.599999
      vertex 3 59 1.3
      vertex 1 59 1.3
    endloop
  endfacet
  facet normal 0 -1 -0
    outer loop
      vertex 3 59 1.3
      vertex 1 59 0.599999
      vertex 3 59 0.599999
    endloop
  endfacet
  facet normal -0 0 1
    outer loop
      vertex 1 60 1.3
      vertex 3 59 1.3
      vertex 3 60 1.3
    endloop
  endfacet
  facet normal 0 0 1
    outer loop
      vertex 3 59 1.3
      vertex 1 60 1.3
      vertex 1 59 1.3
    endloop
  endfacet
  facet normal 0 1 -0
    outer loop
      vertex 3 60 0
      vertex 1 60 1.3
      vertex 3 60 1.3
    endloop
  endfacet
  facet normal 0 1 0
    outer loop
      vertex 1 60 1.3
      vertex 3 60 0
      vertex 1 60 0
    endloop
  endfacet
  facet normal -1 0 0
    outer loop
      vertex 111 4 0
      vertex 111 1 0.599999
      vertex 111 4 0.599999
    endloop
  endfacet
  facet normal -1 0 0
    outer loop
      vertex 111 0 0
      vertex 111 1 0.599999
      vertex 111 4 0
    endloop
  endfacet
  facet normal -1 0 0
    outer loop
      vertex 111 0 1.3
      vertex 111 1 0.599999
      vertex 111 0 0
    endloop
  endfacet
  facet normal -1 0 0
    outer loop
      vertex 111 1 0.599999
      vertex 111 0 1.3
      vertex 111 1 1.3
    endloop
  endfacet
  facet normal -0 0 1
    outer loop
      vertex 111 1 1.3
      vertex 113 0 1.3
      vertex 113 1 1.3
    endloop
  endfacet
  facet normal 0 0 1
    outer loop
      vertex 113 0 1.3
      vertex 111 1 1.3
      vertex 111 0 1.3
    endloop
  endfacet
  facet normal 1 0 0
    outer loop
      vertex 113 1 1.3
      vertex 113 0 1.3
      vertex 113 1 0.599999
    endloop
  endfacet
  facet normal 1 -0 0
    outer loop
      vertex 113 1 0.599999
      vertex 113 4 0
      vertex 113 4 0.599999
    endloop
  endfacet
  facet normal 1 0 0
    outer loop
      vertex 113 1 0.599999
      vertex 113 0 0
      vertex 113 4 0
    endloop
  endfacet
  facet normal 1 0 0
    outer loop
      vertex 113 0 0
      vertex 113 1 0.599999
      vertex 113 0 1.3
    endloop
  endfacet
  facet normal 0 1 -0
    outer loop
      vertex 113 1 0.599999
      vertex 111 1 1.3
      vertex 113 1 1.3
    endloop
  endfacet
  facet normal 0 1 0
    outer loop
      vertex 111 1 1.3
      vertex 113 1 0.599999
      vertex 111 1 0.599999
    endloop
  endfacet
  facet normal 0 -1 0
    outer loop
      vertex 111 0 0
      vertex 113 0 1.3
      vertex 111 0 1.3
    endloop
  endfacet
  facet normal 0 -1 -0
    outer loop
      vertex 113 0 1.3
      vertex 111 0 0
      vertex 113 0 0
    endloop
  endfacet
  facet normal 0 -1 0
    outer loop
      vertex 113 4 0
      vertex 114 4 0.599999
      vertex 113 4 0.599999
    endloop
  endfacet
  facet normal 0 -1 -0
    outer loop
      vertex 114 4 0.599999
      vertex 113 4 0
      vertex 114 4 0
    endloop
  endfacet
  facet normal 0 -1 0
    outer loop
      vertex 110 4 0
      vertex 111 4 0.599999
      vertex 110 4 0.599999
    endloop
  endfacet
  facet normal 0 -1 -0
    outer loop
      vertex 111 4 0.599999
      vertex 110 4 0
      vertex 111 4 0
    endloop
  endfacet
  facet normal -1 0 0
    outer loop
      vertex 110 4 0
      vertex 110 15 0.599999
      vertex 110 15 0
    endloop
  endfacet
  facet normal -1 -0 0
    outer loop
      vertex 110 15 0.599999
      vertex 110 4 0
      vertex 110 4 0.599999
    endloop
  endfacet
  facet normal -1 0 0
    outer loop
      vertex 110 49 0
      vertex 110 56 0.599999
      vertex 110 56 0
    endloop
  endfacet
  facet normal -1 -0 0
    outer loop
      vertex 110 56 0.599999
      vertex 110 49 0
      vertex 110 49 0.599999
    endloop
  endfacet
  facet normal -1 0 0
    outer loop
      vertex 110 19 0
      vertex 110 45 0.599999
      vertex 110 45 0
    endloop
  endfacet
  facet normal -1 -0 0
    outer loop
      vertex 110 45 0.599999
      vertex 110 19 0
      vertex 110 19 0.599999
    endloop
  endfacet
  facet normal 1 -0 0
    outer loop
      vertex 114 4 0.599999
      vertex 114 56 0
      vertex 114 56 0.599999
    endloop
  endfacet
  facet normal 1 0 0
    outer loop
      vertex 114 56 0
      vertex 114 4 0.599999
      vertex 114 4 0
    endloop
  endfacet
  facet normal 0 1 -0
    outer loop
      vertex 114 56 0
      vertex 113 56 0.599999
      vertex 114 56 0.599999
    endloop
  endfacet
  facet normal 0 1 0
    outer loop
      vertex 113 56 0.599999
      vertex 114 56 0
      vertex 113 56 0
    endloop
  endfacet
  facet normal 0 1 -0
    outer loop
      vertex 111 56 0
      vertex 110 56 0.599999
      vertex 111 56 0.599999
    endloop
  endfacet
  facet normal 0 1 0
    outer loop
      vertex 110 56 0.599999
      vertex 111 56 0
      vertex 110 56 0
    endloop
  endfacet
  facet normal -1 0 0
    outer loop
      vertex 111 60 0
      vertex 111 59 0.599999
      vertex 111 60 1.3
    endloop
  endfacet
  facet normal -1 0 0
    outer loop
      vertex 111 56 0
      vertex 111 59 0.599999
      vertex 111 60 0
    endloop
  endfacet
  facet normal -1 -0 0
    outer loop
      vertex 111 59 0.599999
      vertex 111 56 0
      vertex 111 56 0.599999
    endloop
  endfacet
  facet normal -1 -0 0
    outer loop
      vertex 111 60 1.3
      vertex 111 59 0.599999
      vertex 111 59 1.3
    endloop
  endfacet
  facet normal 1 0 0
    outer loop
      vertex 113 59 0.599999
      vertex 113 60 1.3
      vertex 113 59 1.3
    endloop
  endfacet
  facet normal 1 0 0
    outer loop
      vertex 113 60 1.3
      vertex 113 59 0.599999
      vertex 113 60 0
    endloop
  endfacet
  facet normal 1 0 0
    outer loop
      vertex 113 56 0
      vertex 113 59 0.599999
      vertex 113 56 0.599999
    endloop
  endfacet
  facet normal 1 0 0
    outer loop
      vertex 113 59 0.599999
      vertex 113 56 0
      vertex 113 60 0
    endloop
  endfacet
  facet normal 0 -1 0
    outer loop
      vertex 111 59 0.599999
      vertex 113 59 1.3
      vertex 111 59 1.3
    endloop
  endfacet
  facet normal 0 -1 -0
    outer loop
      vertex 113 59 1.3
      vertex 111 59 0.599999
      vertex 113 59 0.599999
    endloop
  endfacet
  facet normal -0 0 1
    outer loop
      vertex 111 60 1.3
      vertex 113 59 1.3
      vertex 113 60 1.3
    endloop
  endfacet
  facet normal 0 0 1
    outer loop
      vertex 113 59 1.3
      vertex 111 60 1.3
      vertex 111 59 1.3
    endloop
  endfacet
  facet normal 0 1 -0
    outer loop
      vertex 113 60 0
      vertex 111 60 1.3
      vertex 113 60 1.3
    endloop
  endfacet
  facet normal 0 1 0
    outer loop
      vertex 111 60 1.3
      vertex 113 60 0
      vertex 111 60 0
    endloop
  endfacet
  facet normal 0 1 -0
    outer loop
      vertex 110 19 0
      vertex 4 19 0.599999
      vertex 110 19 0.599999
    endloop
  endfacet
  facet normal 0 1 0
    outer loop
      vertex 4 19 0.599999
      vertex 110 19 0
      vertex 4 19 0
    endloop
  endfacet
  facet normal 0 -1 0
    outer loop
      vertex 4 15 0
      vertex 110 15 0.599999
      vertex 4 15 0.599999
    endloop
  endfacet
  facet normal 0 -1 -0
    outer loop
      vertex 110 15 0.599999
      vertex 4 15 0
      vertex 110 15 0
    endloop
  endfacet
  facet normal 0 1 -0
    outer loop
      vertex 110 49 0
      vertex 4 49 0.599999
      vertex 110 49 0.599999
    endloop
  endfacet
  facet normal 0 1 0
    outer loop
      vertex 4 49 0.599999
      vertex 110 49 0
      vertex 4 49 0
    endloop
  endfacet
  facet normal 0 -1 0
    outer loop
      vertex 4 45 0
      vertex 110 45 0.599999
      vertex 4 45 0.599999
    endloop
  endfacet
  facet normal 0 -1 -0
    outer loop
      vertex 110 45 0.599999
      vertex 4 45 0
      vertex 110 45 0
    endloop
  endfacet
endsolid OpenSCAD_Model
