solid OpenSCAD_Model
  facet normal -0.980785 -0.195091 0
    outer loop
      vertex -11.5 10 0
      vertex -11.6522 10.7654 2.75
      vertex -11.6522 10.7654 0
    endloop
  endfacet
  facet normal -0.980785 -0.195091 0
    outer loop
      vertex -11.6522 10.7654 2.75
      vertex -11.5 10 0
      vertex -11.5 10 2.75
    endloop
  endfacet
  facet normal 0.195091 -0.980785 0
    outer loop
      vertex -14.2654 11.8478 0
      vertex -13.5 12 2.75
      vertex -14.2654 11.8478 2.75
    endloop
  endfacet
  facet normal 0.195091 -0.980785 0
    outer loop
      vertex -13.5 12 2.75
      vertex -14.2654 11.8478 0
      vertex -13.5 12 0
    endloop
  endfacet
  facet normal -0.55557 0.83147 0
    outer loop
      vertex -12.0858 8.58579 0
      vertex -12.7346 8.15224 2.75
      vertex -12.0858 8.58579 2.75
    endloop
  endfacet
  facet normal -0.55557 0.83147 0
    outer loop
      vertex -12.7346 8.15224 2.75
      vertex -12.0858 8.58579 0
      vertex -12.7346 8.15224 0
    endloop
  endfacet
  facet normal -0.55557 -0.83147 0
    outer loop
      vertex -12.7346 11.8478 0
      vertex -12.0858 11.4142 2.75
      vertex -12.7346 11.8478 2.75
    endloop
  endfacet
  facet normal -0.55557 -0.83147 -0
    outer loop
      vertex -12.0858 11.4142 2.75
      vertex -12.7346 11.8478 0
      vertex -12.0858 11.4142 0
    endloop
  endfacet
  facet normal -0.83147 -0.55557 0
    outer loop
      vertex -11.6522 10.7654 0
      vertex -12.0858 11.4142 2.75
      vertex -12.0858 11.4142 0
    endloop
  endfacet
  facet normal -0.83147 -0.55557 0
    outer loop
      vertex -12.0858 11.4142 2.75
      vertex -11.6522 10.7654 0
      vertex -11.6522 10.7654 2.75
    endloop
  endfacet
  facet normal -0.195091 -0.980785 0
    outer loop
      vertex -13.5 12 0
      vertex -12.7346 11.8478 2.75
      vertex -13.5 12 2.75
    endloop
  endfacet
  facet normal -0.195091 -0.980785 -0
    outer loop
      vertex -12.7346 11.8478 2.75
      vertex -13.5 12 0
      vertex -12.7346 11.8478 0
    endloop
  endfacet
  facet normal 0.83147 -0.55557 0
    outer loop
      vertex -15.3478 10.7654 2.75
      vertex -14.9142 11.4142 0
      vertex -14.9142 11.4142 2.75
    endloop
  endfacet
  facet normal 0.83147 -0.55557 0
    outer loop
      vertex -14.9142 11.4142 0
      vertex -15.3478 10.7654 2.75
      vertex -15.3478 10.7654 0
    endloop
  endfacet
  facet normal 0.980785 -0.19509 0
    outer loop
      vertex -15.5 10 2.75
      vertex -15.3478 10.7654 0
      vertex -15.3478 10.7654 2.75
    endloop
  endfacet
  facet normal 0.980785 -0.19509 0
    outer loop
      vertex -15.3478 10.7654 0
      vertex -15.5 10 2.75
      vertex -15.5 10 0
    endloop
  endfacet
  facet normal 0.55557 -0.83147 0
    outer loop
      vertex -14.9142 11.4142 0
      vertex -14.2654 11.8478 2.75
      vertex -14.9142 11.4142 2.75
    endloop
  endfacet
  facet normal 0.55557 -0.83147 0
    outer loop
      vertex -14.2654 11.8478 2.75
      vertex -14.9142 11.4142 0
      vertex -14.2654 11.8478 0
    endloop
  endfacet
  facet normal 0.19509 0.980785 -0
    outer loop
      vertex -13.5 8 0
      vertex -14.2654 8.15224 2.75
      vertex -13.5 8 2.75
    endloop
  endfacet
  facet normal 0.19509 0.980785 0
    outer loop
      vertex -14.2654 8.15224 2.75
      vertex -13.5 8 0
      vertex -14.2654 8.15224 0
    endloop
  endfacet
  facet normal 0.83147 0.55557 0
    outer loop
      vertex -14.9142 8.58579 2.75
      vertex -15.3478 9.23463 0
      vertex -15.3478 9.23463 2.75
    endloop
  endfacet
  facet normal 0.83147 0.55557 0
    outer loop
      vertex -15.3478 9.23463 0
      vertex -14.9142 8.58579 2.75
      vertex -14.9142 8.58579 0
    endloop
  endfacet
  facet normal 0.980785 0.19509 0
    outer loop
      vertex -15.3478 9.23463 2.75
      vertex -15.5 10 0
      vertex -15.5 10 2.75
    endloop
  endfacet
  facet normal 0.980785 0.19509 0
    outer loop
      vertex -15.5 10 0
      vertex -15.3478 9.23463 2.75
      vertex -15.3478 9.23463 0
    endloop
  endfacet
  facet normal -0.83147 0.55557 0
    outer loop
      vertex -12.0858 8.58579 0
      vertex -11.6522 9.23463 2.75
      vertex -11.6522 9.23463 0
    endloop
  endfacet
  facet normal -0.83147 0.55557 0
    outer loop
      vertex -11.6522 9.23463 2.75
      vertex -12.0858 8.58579 0
      vertex -12.0858 8.58579 2.75
    endloop
  endfacet
  facet normal -0.980785 0.195091 0
    outer loop
      vertex -11.6522 9.23463 0
      vertex -11.5 10 2.75
      vertex -11.5 10 0
    endloop
  endfacet
  facet normal -0.980785 0.195091 0
    outer loop
      vertex -11.5 10 2.75
      vertex -11.6522 9.23463 0
      vertex -11.6522 9.23463 2.75
    endloop
  endfacet
  facet normal -0.19509 0.980785 0
    outer loop
      vertex -12.7346 8.15224 0
      vertex -13.5 8 2.75
      vertex -12.7346 8.15224 2.75
    endloop
  endfacet
  facet normal -0.19509 0.980785 0
    outer loop
      vertex -13.5 8 2.75
      vertex -12.7346 8.15224 0
      vertex -13.5 8 0
    endloop
  endfacet
  facet normal 0.55557 0.83147 -0
    outer loop
      vertex -14.2654 8.15224 0
      vertex -14.9142 8.58579 2.75
      vertex -14.2654 8.15224 2.75
    endloop
  endfacet
  facet normal 0.55557 0.83147 0
    outer loop
      vertex -14.9142 8.58579 2.75
      vertex -14.2654 8.15224 0
      vertex -14.9142 8.58579 0
    endloop
  endfacet
  facet normal -0.980785 -0.19509 0
    outer loop
      vertex -9.9 10 2.75
      vertex -10.174 11.3777 5
      vertex -10.174 11.3777 2.75
    endloop
  endfacet
  facet normal -0.980785 -0.19509 0
    outer loop
      vertex -10.174 11.3777 5
      vertex -9.9 10 2.75
      vertex -9.9 10 5
    endloop
  endfacet
  facet normal -0.19509 -0.980785 0
    outer loop
      vertex -13.5 13.6 2.75
      vertex -12.1223 13.326 5
      vertex -13.5 13.6 5
    endloop
  endfacet
  facet normal -0.19509 -0.980785 -0
    outer loop
      vertex -12.1223 13.326 5
      vertex -13.5 13.6 2.75
      vertex -12.1223 13.326 2.75
    endloop
  endfacet
  facet normal 0.980785 0.195091 0
    outer loop
      vertex -16.826 8.62234 5
      vertex -17.1 10 2.75
      vertex -17.1 10 5
    endloop
  endfacet
  facet normal 0.980785 0.195091 0
    outer loop
      vertex -17.1 10 2.75
      vertex -16.826 8.62234 5
      vertex -16.826 8.62234 2.75
    endloop
  endfacet
  facet normal -0.19509 0.980785 0
    outer loop
      vertex -12.1223 6.67403 2.75
      vertex -13.5 6.4 5
      vertex -12.1223 6.67403 5
    endloop
  endfacet
  facet normal -0.19509 0.980785 0
    outer loop
      vertex -13.5 6.4 5
      vertex -12.1223 6.67403 2.75
      vertex -13.5 6.4 2.75
    endloop
  endfacet
  facet normal -0.55557 -0.83147 0
    outer loop
      vertex -12.1223 13.326 2.75
      vertex -10.9544 12.5456 5
      vertex -12.1223 13.326 5
    endloop
  endfacet
  facet normal -0.55557 -0.83147 -0
    outer loop
      vertex -10.9544 12.5456 5
      vertex -12.1223 13.326 2.75
      vertex -10.9544 12.5456 2.75
    endloop
  endfacet
  facet normal -0.83147 -0.55557 0
    outer loop
      vertex -10.174 11.3777 2.75
      vertex -10.9544 12.5456 5
      vertex -10.9544 12.5456 2.75
    endloop
  endfacet
  facet normal -0.83147 -0.55557 0
    outer loop
      vertex -10.9544 12.5456 5
      vertex -10.174 11.3777 2.75
      vertex -10.174 11.3777 5
    endloop
  endfacet
  facet normal 0.19509 -0.980785 0
    outer loop
      vertex -14.8777 13.326 2.75
      vertex -13.5 13.6 5
      vertex -14.8777 13.326 5
    endloop
  endfacet
  facet normal 0.19509 -0.980785 0
    outer loop
      vertex -13.5 13.6 5
      vertex -14.8777 13.326 2.75
      vertex -13.5 13.6 2.75
    endloop
  endfacet
  facet normal 0 0 1
    outer loop
      vertex -11.5 10 2.75
      vertex -9.9 10 2.75
      vertex -10.174 11.3777 2.75
    endloop
  endfacet
  facet normal 0 0 1
    outer loop
      vertex -11.6522 10.7654 2.75
      vertex -10.174 11.3777 2.75
      vertex -10.9544 12.5456 2.75
    endloop
  endfacet
  facet normal 0 0 1
    outer loop
      vertex -9.9 10 2.75
      vertex -11.5 10 2.75
      vertex -10.174 8.62234 2.75
    endloop
  endfacet
  facet normal -0 0 1
    outer loop
      vertex -11.6522 9.23463 2.75
      vertex -10.174 8.62234 2.75
      vertex -11.5 10 2.75
    endloop
  endfacet
  facet normal 0 0 1
    outer loop
      vertex -10.174 11.3777 2.75
      vertex -11.6522 10.7654 2.75
      vertex -11.5 10 2.75
    endloop
  endfacet
  facet normal 0 0 1
    outer loop
      vertex -10.9544 12.5456 2.75
      vertex -12.0858 11.4142 2.75
      vertex -11.6522 10.7654 2.75
    endloop
  endfacet
  facet normal 0 0 1
    outer loop
      vertex -12.1223 13.326 2.75
      vertex -12.0858 11.4142 2.75
      vertex -10.9544 12.5456 2.75
    endloop
  endfacet
  facet normal 0 0 1
    outer loop
      vertex -12.1223 13.326 2.75
      vertex -12.7346 11.8478 2.75
      vertex -12.0858 11.4142 2.75
    endloop
  endfacet
  facet normal 0 0 1
    outer loop
      vertex -13.5 13.6 2.75
      vertex -12.7346 11.8478 2.75
      vertex -12.1223 13.326 2.75
    endloop
  endfacet
  facet normal 0 0 1
    outer loop
      vertex -13.5 13.6 2.75
      vertex -13.5 12 2.75
      vertex -12.7346 11.8478 2.75
    endloop
  endfacet
  facet normal 0 0 1
    outer loop
      vertex -13.5 13.6 2.75
      vertex -14.2654 11.8478 2.75
      vertex -13.5 12 2.75
    endloop
  endfacet
  facet normal -0 0 1
    outer loop
      vertex -14.8777 13.326 2.75
      vertex -14.2654 11.8478 2.75
      vertex -13.5 13.6 2.75
    endloop
  endfacet
  facet normal 0 0 1
    outer loop
      vertex -14.8777 13.326 2.75
      vertex -14.9142 11.4142 2.75
      vertex -14.2654 11.8478 2.75
    endloop
  endfacet
  facet normal -0 0 1
    outer loop
      vertex -16.0456 12.5456 2.75
      vertex -14.9142 11.4142 2.75
      vertex -14.8777 13.326 2.75
    endloop
  endfacet
  facet normal 0 0 1
    outer loop
      vertex -14.9142 11.4142 2.75
      vertex -16.0456 12.5456 2.75
      vertex -15.3478 10.7654 2.75
    endloop
  endfacet
  facet normal -0 0 1
    outer loop
      vertex -16.826 11.3777 2.75
      vertex -15.3478 10.7654 2.75
      vertex -16.0456 12.5456 2.75
    endloop
  endfacet
  facet normal 0 0 1
    outer loop
      vertex -10.174 8.62234 2.75
      vertex -11.6522 9.23463 2.75
      vertex -10.9544 7.45442 2.75
    endloop
  endfacet
  facet normal -0 0 1
    outer loop
      vertex -12.0858 8.58579 2.75
      vertex -10.9544 7.45442 2.75
      vertex -11.6522 9.23463 2.75
    endloop
  endfacet
  facet normal 0 0 1
    outer loop
      vertex -12.0858 8.58579 2.75
      vertex -12.1223 6.67403 2.75
      vertex -10.9544 7.45442 2.75
    endloop
  endfacet
  facet normal -0 0 1
    outer loop
      vertex -12.7346 8.15224 2.75
      vertex -12.1223 6.67403 2.75
      vertex -12.0858 8.58579 2.75
    endloop
  endfacet
  facet normal -0 0 1
    outer loop
      vertex -13.5 8 2.75
      vertex -12.1223 6.67403 2.75
      vertex -12.7346 8.15224 2.75
    endloop
  endfacet
  facet normal 0 0 1
    outer loop
      vertex -13.5 8 2.75
      vertex -13.5 6.4 2.75
      vertex -12.1223 6.67403 2.75
    endloop
  endfacet
  facet normal 0 0 1
    outer loop
      vertex -14.2654 8.15224 2.75
      vertex -13.5 6.4 2.75
      vertex -13.5 8 2.75
    endloop
  endfacet
  facet normal 0 0 1
    outer loop
      vertex -14.2654 8.15224 2.75
      vertex -14.8777 6.67403 2.75
      vertex -13.5 6.4 2.75
    endloop
  endfacet
  facet normal 0 0 1
    outer loop
      vertex -14.9142 8.58579 2.75
      vertex -14.8777 6.67403 2.75
      vertex -14.2654 8.15224 2.75
    endloop
  endfacet
  facet normal 0 0 1
    outer loop
      vertex -16.0456 7.45442 2.75
      vertex -14.9142 8.58579 2.75
      vertex -15.3478 9.23463 2.75
    endloop
  endfacet
  facet normal 0 0 1
    outer loop
      vertex -16.826 8.62234 2.75
      vertex -15.3478 9.23463 2.75
      vertex -15.5 10 2.75
    endloop
  endfacet
  facet normal 0 0 1
    outer loop
      vertex -15.3478 10.7654 2.75
      vertex -16.826 11.3777 2.75
      vertex -15.5 10 2.75
    endloop
  endfacet
  facet normal 0 0 1
    outer loop
      vertex -14.9142 8.58579 2.75
      vertex -16.0456 7.45442 2.75
      vertex -14.8777 6.67403 2.75
    endloop
  endfacet
  facet normal 0 0 1
    outer loop
      vertex -17.1 10 2.75
      vertex -15.5 10 2.75
      vertex -16.826 11.3777 2.75
    endloop
  endfacet
  facet normal 0 0 1
    outer loop
      vertex -15.3478 9.23463 2.75
      vertex -16.826 8.62234 2.75
      vertex -16.0456 7.45442 2.75
    endloop
  endfacet
  facet normal 0 0 1
    outer loop
      vertex -15.5 10 2.75
      vertex -17.1 10 2.75
      vertex -16.826 8.62234 2.75
    endloop
  endfacet
  facet normal 0.55557 -0.83147 0
    outer loop
      vertex -16.0456 12.5456 2.75
      vertex -14.8777 13.326 5
      vertex -16.0456 12.5456 5
    endloop
  endfacet
  facet normal 0.55557 -0.83147 0
    outer loop
      vertex -14.8777 13.326 5
      vertex -16.0456 12.5456 2.75
      vertex -14.8777 13.326 2.75
    endloop
  endfacet
  facet normal 0.83147 -0.555569 0
    outer loop
      vertex -16.826 11.3777 5
      vertex -16.0456 12.5456 2.75
      vertex -16.0456 12.5456 5
    endloop
  endfacet
  facet normal 0.83147 -0.555569 0
    outer loop
      vertex -16.0456 12.5456 2.75
      vertex -16.826 11.3777 5
      vertex -16.826 11.3777 2.75
    endloop
  endfacet
  facet normal -0.980785 0.19509 0
    outer loop
      vertex -10.174 8.62234 2.75
      vertex -9.9 10 5
      vertex -9.9 10 2.75
    endloop
  endfacet
  facet normal -0.980785 0.19509 0
    outer loop
      vertex -9.9 10 5
      vertex -10.174 8.62234 2.75
      vertex -10.174 8.62234 5
    endloop
  endfacet
  facet normal -0.55557 0.83147 0
    outer loop
      vertex -10.9544 7.45442 2.75
      vertex -12.1223 6.67403 5
      vertex -10.9544 7.45442 5
    endloop
  endfacet
  facet normal -0.55557 0.83147 0
    outer loop
      vertex -12.1223 6.67403 5
      vertex -10.9544 7.45442 2.75
      vertex -12.1223 6.67403 2.75
    endloop
  endfacet
  facet normal -0.83147 0.55557 0
    outer loop
      vertex -10.9544 7.45442 2.75
      vertex -10.174 8.62234 5
      vertex -10.174 8.62234 2.75
    endloop
  endfacet
  facet normal -0.83147 0.55557 0
    outer loop
      vertex -10.174 8.62234 5
      vertex -10.9544 7.45442 2.75
      vertex -10.9544 7.45442 5
    endloop
  endfacet
  facet normal 0.83147 0.555569 0
    outer loop
      vertex -16.0456 7.45442 5
      vertex -16.826 8.62234 2.75
      vertex -16.826 8.62234 5
    endloop
  endfacet
  facet normal 0.83147 0.555569 0
    outer loop
      vertex -16.826 8.62234 2.75
      vertex -16.0456 7.45442 5
      vertex -16.0456 7.45442 2.75
    endloop
  endfacet
  facet normal 0.19509 0.980785 -0
    outer loop
      vertex -13.5 6.4 2.75
      vertex -14.8777 6.67403 5
      vertex -13.5 6.4 5
    endloop
  endfacet
  facet normal 0.19509 0.980785 0
    outer loop
      vertex -14.8777 6.67403 5
      vertex -13.5 6.4 2.75
      vertex -14.8777 6.67403 2.75
    endloop
  endfacet
  facet normal 0.980785 -0.195091 0
    outer loop
      vertex -17.1 10 5
      vertex -16.826 11.3777 2.75
      vertex -16.826 11.3777 5
    endloop
  endfacet
  facet normal 0.980785 -0.195091 0
    outer loop
      vertex -16.826 11.3777 2.75
      vertex -17.1 10 5
      vertex -17.1 10 2.75
    endloop
  endfacet
  facet normal 0.55557 0.83147 -0
    outer loop
      vertex -14.8777 6.67403 2.75
      vertex -16.0456 7.45442 5
      vertex -14.8777 6.67403 5
    endloop
  endfacet
  facet normal 0.55557 0.83147 0
    outer loop
      vertex -16.0456 7.45442 5
      vertex -14.8777 6.67403 2.75
      vertex -16.0456 7.45442 2.75
    endloop
  endfacet
  facet normal -0.980785 -0.195091 0
    outer loop
      vertex 15.5 10 0
      vertex 15.3478 10.7654 2.75
      vertex 15.3478 10.7654 0
    endloop
  endfacet
  facet normal -0.980785 -0.195091 0
    outer loop
      vertex 15.3478 10.7654 2.75
      vertex 15.5 10 0
      vertex 15.5 10 2.75
    endloop
  endfacet
  facet normal 0.195091 -0.980785 0
    outer loop
      vertex 12.7346 11.8478 0
      vertex 13.5 12 2.75
      vertex 12.7346 11.8478 2.75
    endloop
  endfacet
  facet normal 0.195091 -0.980785 0
    outer loop
      vertex 13.5 12 2.75
      vertex 12.7346 11.8478 0
      vertex 13.5 12 0
    endloop
  endfacet
  facet normal -0.19509 0.980785 0
    outer loop
      vertex 14.2654 8.15224 0
      vertex 13.5 8 2.75
      vertex 14.2654 8.15224 2.75
    endloop
  endfacet
  facet normal -0.19509 0.980785 0
    outer loop
      vertex 13.5 8 2.75
      vertex 14.2654 8.15224 0
      vertex 13.5 8 0
    endloop
  endfacet
  facet normal -0.55557 -0.83147 0
    outer loop
      vertex 14.2654 11.8478 0
      vertex 14.9142 11.4142 2.75
      vertex 14.2654 11.8478 2.75
    endloop
  endfacet
  facet normal -0.55557 -0.83147 -0
    outer loop
      vertex 14.9142 11.4142 2.75
      vertex 14.2654 11.8478 0
      vertex 14.9142 11.4142 0
    endloop
  endfacet
  facet normal -0.83147 -0.55557 0
    outer loop
      vertex 15.3478 10.7654 0
      vertex 14.9142 11.4142 2.75
      vertex 14.9142 11.4142 0
    endloop
  endfacet
  facet normal -0.83147 -0.55557 0
    outer loop
      vertex 14.9142 11.4142 2.75
      vertex 15.3478 10.7654 0
      vertex 15.3478 10.7654 2.75
    endloop
  endfacet
  facet normal -0.195091 -0.980785 0
    outer loop
      vertex 13.5 12 0
      vertex 14.2654 11.8478 2.75
      vertex 13.5 12 2.75
    endloop
  endfacet
  facet normal -0.195091 -0.980785 -0
    outer loop
      vertex 14.2654 11.8478 2.75
      vertex 13.5 12 0
      vertex 14.2654 11.8478 0
    endloop
  endfacet
  facet normal 0.83147 -0.55557 0
    outer loop
      vertex 11.6522 10.7654 2.75
      vertex 12.0858 11.4142 0
      vertex 12.0858 11.4142 2.75
    endloop
  endfacet
  facet normal 0.83147 -0.55557 0
    outer loop
      vertex 12.0858 11.4142 0
      vertex 11.6522 10.7654 2.75
      vertex 11.6522 10.7654 0
    endloop
  endfacet
  facet normal 0.980785 -0.19509 0
    outer loop
      vertex 11.5 10 2.75
      vertex 11.6522 10.7654 0
      vertex 11.6522 10.7654 2.75
    endloop
  endfacet
  facet normal 0.980785 -0.19509 0
    outer loop
      vertex 11.6522 10.7654 0
      vertex 11.5 10 2.75
      vertex 11.5 10 0
    endloop
  endfacet
  facet normal 0.55557 -0.83147 0
    outer loop
      vertex 12.0858 11.4142 0
      vertex 12.7346 11.8478 2.75
      vertex 12.0858 11.4142 2.75
    endloop
  endfacet
  facet normal 0.55557 -0.83147 0
    outer loop
      vertex 12.7346 11.8478 2.75
      vertex 12.0858 11.4142 0
      vertex 12.7346 11.8478 0
    endloop
  endfacet
  facet normal -0.980785 0.195091 0
    outer loop
      vertex 15.3478 9.23463 0
      vertex 15.5 10 2.75
      vertex 15.5 10 0
    endloop
  endfacet
  facet normal -0.980785 0.195091 0
    outer loop
      vertex 15.5 10 2.75
      vertex 15.3478 9.23463 0
      vertex 15.3478 9.23463 2.75
    endloop
  endfacet
  facet normal 0.19509 0.980785 -0
    outer loop
      vertex 13.5 8 0
      vertex 12.7346 8.15224 2.75
      vertex 13.5 8 2.75
    endloop
  endfacet
  facet normal 0.19509 0.980785 0
    outer loop
      vertex 12.7346 8.15224 2.75
      vertex 13.5 8 0
      vertex 12.7346 8.15224 0
    endloop
  endfacet
  facet normal 0.83147 0.55557 0
    outer loop
      vertex 12.0858 8.58579 2.75
      vertex 11.6522 9.23463 0
      vertex 11.6522 9.23463 2.75
    endloop
  endfacet
  facet normal 0.83147 0.55557 0
    outer loop
      vertex 11.6522 9.23463 0
      vertex 12.0858 8.58579 2.75
      vertex 12.0858 8.58579 0
    endloop
  endfacet
  facet normal 0.980785 0.19509 0
    outer loop
      vertex 11.6522 9.23463 2.75
      vertex 11.5 10 0
      vertex 11.5 10 2.75
    endloop
  endfacet
  facet normal 0.980785 0.19509 0
    outer loop
      vertex 11.5 10 0
      vertex 11.6522 9.23463 2.75
      vertex 11.6522 9.23463 0
    endloop
  endfacet
  facet normal -0.83147 0.55557 0
    outer loop
      vertex 14.9142 8.58579 0
      vertex 15.3478 9.23463 2.75
      vertex 15.3478 9.23463 0
    endloop
  endfacet
  facet normal -0.83147 0.55557 0
    outer loop
      vertex 15.3478 9.23463 2.75
      vertex 14.9142 8.58579 0
      vertex 14.9142 8.58579 2.75
    endloop
  endfacet
  facet normal -0.55557 0.83147 0
    outer loop
      vertex 14.9142 8.58579 0
      vertex 14.2654 8.15224 2.75
      vertex 14.9142 8.58579 2.75
    endloop
  endfacet
  facet normal -0.55557 0.83147 0
    outer loop
      vertex 14.2654 8.15224 2.75
      vertex 14.9142 8.58579 0
      vertex 14.2654 8.15224 0
    endloop
  endfacet
  facet normal 0.55557 0.83147 -0
    outer loop
      vertex 12.7346 8.15224 0
      vertex 12.0858 8.58579 2.75
      vertex 12.7346 8.15224 2.75
    endloop
  endfacet
  facet normal 0.55557 0.83147 0
    outer loop
      vertex 12.0858 8.58579 2.75
      vertex 12.7346 8.15224 0
      vertex 12.0858 8.58579 0
    endloop
  endfacet
  facet normal -0.980785 -0.19509 0
    outer loop
      vertex 17.1 10 2.75
      vertex 16.826 11.3777 5
      vertex 16.826 11.3777 2.75
    endloop
  endfacet
  facet normal -0.980785 -0.19509 0
    outer loop
      vertex 16.826 11.3777 5
      vertex 17.1 10 2.75
      vertex 17.1 10 5
    endloop
  endfacet
  facet normal 0.19509 -0.980785 0
    outer loop
      vertex 12.1223 13.326 2.75
      vertex 13.5 13.6 5
      vertex 12.1223 13.326 5
    endloop
  endfacet
  facet normal 0.19509 -0.980785 0
    outer loop
      vertex 13.5 13.6 5
      vertex 12.1223 13.326 2.75
      vertex 13.5 13.6 2.75
    endloop
  endfacet
  facet normal -0.19509 0.980785 0
    outer loop
      vertex 14.8777 6.67403 2.75
      vertex 13.5 6.4 5
      vertex 14.8777 6.67403 5
    endloop
  endfacet
  facet normal -0.19509 0.980785 0
    outer loop
      vertex 13.5 6.4 5
      vertex 14.8777 6.67403 2.75
      vertex 13.5 6.4 2.75
    endloop
  endfacet
  facet normal -0.55557 -0.83147 0
    outer loop
      vertex 14.8777 13.326 2.75
      vertex 16.0456 12.5456 5
      vertex 14.8777 13.326 5
    endloop
  endfacet
  facet normal -0.55557 -0.83147 -0
    outer loop
      vertex 16.0456 12.5456 5
      vertex 14.8777 13.326 2.75
      vertex 16.0456 12.5456 2.75
    endloop
  endfacet
  facet normal -0.83147 -0.55557 0
    outer loop
      vertex 16.826 11.3777 2.75
      vertex 16.0456 12.5456 5
      vertex 16.0456 12.5456 2.75
    endloop
  endfacet
  facet normal -0.83147 -0.55557 0
    outer loop
      vertex 16.0456 12.5456 5
      vertex 16.826 11.3777 2.75
      vertex 16.826 11.3777 5
    endloop
  endfacet
  facet normal -0.19509 -0.980785 0
    outer loop
      vertex 13.5 13.6 2.75
      vertex 14.8777 13.326 5
      vertex 13.5 13.6 5
    endloop
  endfacet
  facet normal -0.19509 -0.980785 -0
    outer loop
      vertex 14.8777 13.326 5
      vertex 13.5 13.6 2.75
      vertex 14.8777 13.326 2.75
    endloop
  endfacet
  facet normal 0.83147 -0.55557 0
    outer loop
      vertex 10.174 11.3777 5
      vertex 10.9544 12.5456 2.75
      vertex 10.9544 12.5456 5
    endloop
  endfacet
  facet normal 0.83147 -0.55557 0
    outer loop
      vertex 10.9544 12.5456 2.75
      vertex 10.174 11.3777 5
      vertex 10.174 11.3777 2.75
    endloop
  endfacet
  facet normal 0 0 1
    outer loop
      vertex 15.5 10 2.75
      vertex 17.1 10 2.75
      vertex 16.826 11.3777 2.75
    endloop
  endfacet
  facet normal 0 0 1
    outer loop
      vertex 15.3478 10.7654 2.75
      vertex 16.826 11.3777 2.75
      vertex 16.0456 12.5456 2.75
    endloop
  endfacet
  facet normal 0 0 1
    outer loop
      vertex 17.1 10 2.75
      vertex 15.5 10 2.75
      vertex 16.826 8.62234 2.75
    endloop
  endfacet
  facet normal -0 0 1
    outer loop
      vertex 15.3478 9.23463 2.75
      vertex 16.826 8.62234 2.75
      vertex 15.5 10 2.75
    endloop
  endfacet
  facet normal 0 0 1
    outer loop
      vertex 16.826 11.3777 2.75
      vertex 15.3478 10.7654 2.75
      vertex 15.5 10 2.75
    endloop
  endfacet
  facet normal 0 0 1
    outer loop
      vertex 16.0456 12.5456 2.75
      vertex 14.9142 11.4142 2.75
      vertex 15.3478 10.7654 2.75
    endloop
  endfacet
  facet normal 0 0 1
    outer loop
      vertex 14.8777 13.326 2.75
      vertex 14.9142 11.4142 2.75
      vertex 16.0456 12.5456 2.75
    endloop
  endfacet
  facet normal 0 0 1
    outer loop
      vertex 14.8777 13.326 2.75
      vertex 14.2654 11.8478 2.75
      vertex 14.9142 11.4142 2.75
    endloop
  endfacet
  facet normal 0 0 1
    outer loop
      vertex 13.5 13.6 2.75
      vertex 14.2654 11.8478 2.75
      vertex 14.8777 13.326 2.75
    endloop
  endfacet
  facet normal 0 0 1
    outer loop
      vertex 13.5 13.6 2.75
      vertex 13.5 12 2.75
      vertex 14.2654 11.8478 2.75
    endloop
  endfacet
  facet normal 0 0 1
    outer loop
      vertex 13.5 13.6 2.75
      vertex 12.7346 11.8478 2.75
      vertex 13.5 12 2.75
    endloop
  endfacet
  facet normal -0 0 1
    outer loop
      vertex 12.1223 13.326 2.75
      vertex 12.7346 11.8478 2.75
      vertex 13.5 13.6 2.75
    endloop
  endfacet
  facet normal 0 0 1
    outer loop
      vertex 12.1223 13.326 2.75
      vertex 12.0858 11.4142 2.75
      vertex 12.7346 11.8478 2.75
    endloop
  endfacet
  facet normal -0 0 1
    outer loop
      vertex 10.9544 12.5456 2.75
      vertex 12.0858 11.4142 2.75
      vertex 12.1223 13.326 2.75
    endloop
  endfacet
  facet normal 0 0 1
    outer loop
      vertex 12.0858 11.4142 2.75
      vertex 10.9544 12.5456 2.75
      vertex 11.6522 10.7654 2.75
    endloop
  endfacet
  facet normal -0 0 1
    outer loop
      vertex 10.174 11.3777 2.75
      vertex 11.6522 10.7654 2.75
      vertex 10.9544 12.5456 2.75
    endloop
  endfacet
  facet normal 0 0 1
    outer loop
      vertex 16.826 8.62234 2.75
      vertex 15.3478 9.23463 2.75
      vertex 16.0456 7.45442 2.75
    endloop
  endfacet
  facet normal -0 0 1
    outer loop
      vertex 14.9142 8.58579 2.75
      vertex 16.0456 7.45442 2.75
      vertex 15.3478 9.23463 2.75
    endloop
  endfacet
  facet normal 0 0 1
    outer loop
      vertex 14.9142 8.58579 2.75
      vertex 14.8777 6.67403 2.75
      vertex 16.0456 7.45442 2.75
    endloop
  endfacet
  facet normal -0 0 1
    outer loop
      vertex 14.2654 8.15224 2.75
      vertex 14.8777 6.67403 2.75
      vertex 14.9142 8.58579 2.75
    endloop
  endfacet
  facet normal -0 0 1
    outer loop
      vertex 13.5 8 2.75
      vertex 14.8777 6.67403 2.75
      vertex 14.2654 8.15224 2.75
    endloop
  endfacet
  facet normal 0 0 1
    outer loop
      vertex 13.5 8 2.75
      vertex 13.5 6.4 2.75
      vertex 14.8777 6.67403 2.75
    endloop
  endfacet
  facet normal 0 0 1
    outer loop
      vertex 12.7346 8.15224 2.75
      vertex 13.5 6.4 2.75
      vertex 13.5 8 2.75
    endloop
  endfacet
  facet normal 0 0 1
    outer loop
      vertex 12.7346 8.15224 2.75
      vertex 12.1223 6.67403 2.75
      vertex 13.5 6.4 2.75
    endloop
  endfacet
  facet normal 0 0 1
    outer loop
      vertex 12.0858 8.58579 2.75
      vertex 12.1223 6.67403 2.75
      vertex 12.7346 8.15224 2.75
    endloop
  endfacet
  facet normal 0 0 1
    outer loop
      vertex 10.9544 7.45442 2.75
      vertex 12.0858 8.58579 2.75
      vertex 11.6522 9.23463 2.75
    endloop
  endfacet
  facet normal 0 0 1
    outer loop
      vertex 10.174 8.62234 2.75
      vertex 11.6522 9.23463 2.75
      vertex 11.5 10 2.75
    endloop
  endfacet
  facet normal 0 0 1
    outer loop
      vertex 11.6522 10.7654 2.75
      vertex 10.174 11.3777 2.75
      vertex 11.5 10 2.75
    endloop
  endfacet
  facet normal 0 0 1
    outer loop
      vertex 12.0858 8.58579 2.75
      vertex 10.9544 7.45442 2.75
      vertex 12.1223 6.67403 2.75
    endloop
  endfacet
  facet normal 0 0 1
    outer loop
      vertex 9.9 10 2.75
      vertex 11.5 10 2.75
      vertex 10.174 11.3777 2.75
    endloop
  endfacet
  facet normal 0 0 1
    outer loop
      vertex 11.6522 9.23463 2.75
      vertex 10.174 8.62234 2.75
      vertex 10.9544 7.45442 2.75
    endloop
  endfacet
  facet normal 0 0 1
    outer loop
      vertex 11.5 10 2.75
      vertex 9.9 10 2.75
      vertex 10.174 8.62234 2.75
    endloop
  endfacet
  facet normal 0.980785 -0.19509 0
    outer loop
      vertex 9.9 10 5
      vertex 10.174 11.3777 2.75
      vertex 10.174 11.3777 5
    endloop
  endfacet
  facet normal 0.980785 -0.19509 0
    outer loop
      vertex 10.174 11.3777 2.75
      vertex 9.9 10 5
      vertex 9.9 10 2.75
    endloop
  endfacet
  facet normal 0.55557 -0.83147 0
    outer loop
      vertex 10.9544 12.5456 2.75
      vertex 12.1223 13.326 5
      vertex 10.9544 12.5456 5
    endloop
  endfacet
  facet normal 0.55557 -0.83147 0
    outer loop
      vertex 12.1223 13.326 5
      vertex 10.9544 12.5456 2.75
      vertex 12.1223 13.326 2.75
    endloop
  endfacet
  facet normal -0.980785 0.19509 0
    outer loop
      vertex 16.826 8.62234 2.75
      vertex 17.1 10 5
      vertex 17.1 10 2.75
    endloop
  endfacet
  facet normal -0.980785 0.19509 0
    outer loop
      vertex 17.1 10 5
      vertex 16.826 8.62234 2.75
      vertex 16.826 8.62234 5
    endloop
  endfacet
  facet normal -0.55557 0.83147 0
    outer loop
      vertex 16.0456 7.45442 2.75
      vertex 14.8777 6.67403 5
      vertex 16.0456 7.45442 5
    endloop
  endfacet
  facet normal -0.55557 0.83147 0
    outer loop
      vertex 14.8777 6.67403 5
      vertex 16.0456 7.45442 2.75
      vertex 14.8777 6.67403 2.75
    endloop
  endfacet
  facet normal 0.19509 0.980785 -0
    outer loop
      vertex 13.5 6.4 2.75
      vertex 12.1223 6.67403 5
      vertex 13.5 6.4 5
    endloop
  endfacet
  facet normal 0.19509 0.980785 0
    outer loop
      vertex 12.1223 6.67403 5
      vertex 13.5 6.4 2.75
      vertex 12.1223 6.67403 2.75
    endloop
  endfacet
  facet normal 0.83147 0.55557 0
    outer loop
      vertex 10.9544 7.45442 5
      vertex 10.174 8.62234 2.75
      vertex 10.174 8.62234 5
    endloop
  endfacet
  facet normal 0.83147 0.55557 0
    outer loop
      vertex 10.174 8.62234 2.75
      vertex 10.9544 7.45442 5
      vertex 10.9544 7.45442 2.75
    endloop
  endfacet
  facet normal 0.980785 0.19509 0
    outer loop
      vertex 10.174 8.62234 5
      vertex 9.9 10 2.75
      vertex 9.9 10 5
    endloop
  endfacet
  facet normal 0.980785 0.19509 0
    outer loop
      vertex 9.9 10 2.75
      vertex 10.174 8.62234 5
      vertex 10.174 8.62234 2.75
    endloop
  endfacet
  facet normal -0.83147 0.55557 0
    outer loop
      vertex 16.0456 7.45442 2.75
      vertex 16.826 8.62234 5
      vertex 16.826 8.62234 2.75
    endloop
  endfacet
  facet normal -0.83147 0.55557 0
    outer loop
      vertex 16.826 8.62234 5
      vertex 16.0456 7.45442 2.75
      vertex 16.0456 7.45442 5
    endloop
  endfacet
  facet normal 0.55557 0.83147 -0
    outer loop
      vertex 12.1223 6.67403 2.75
      vertex 10.9544 7.45442 5
      vertex 12.1223 6.67403 5
    endloop
  endfacet
  facet normal 0.55557 0.83147 0
    outer loop
      vertex 10.9544 7.45442 5
      vertex 12.1223 6.67403 2.75
      vertex 10.9544 7.45442 2.75
    endloop
  endfacet
  facet normal -1 0 0
    outer loop
      vertex -24.5 2 0
      vertex -24.5 -5 0
      vertex -24.5 2 1.8
    endloop
  endfacet
  facet normal -1 0 0
    outer loop
      vertex -24.5 6.7 1.8
      vertex -24.5 20 0
      vertex -24.5 6.7 0
    endloop
  endfacet
  facet normal -1 0 0
    outer loop
      vertex -24.5 20 0
      vertex -24.5 6.7 1.8
      vertex -24.5 20 9
    endloop
  endfacet
  facet normal -1 0 0
    outer loop
      vertex -24.5 -5 9
      vertex -24.5 6.7 1.8
      vertex -24.5 2 1.8
    endloop
  endfacet
  facet normal -1 0 0
    outer loop
      vertex -24.5 -5 9
      vertex -24.5 2 1.8
      vertex -24.5 -5 0
    endloop
  endfacet
  facet normal -1 0 0
    outer loop
      vertex -24.5 6.7 1.8
      vertex -24.5 -5 9
      vertex -24.5 20 9
    endloop
  endfacet
  facet normal 0 0 1
    outer loop
      vertex 19.5 0 9
      vertex 24.5 20 9
      vertex 19.5 20 9
    endloop
  endfacet
  facet normal 0 0 1
    outer loop
      vertex 24.5 20 9
      vertex 19.5 0 9
      vertex 24.5 -5 9
    endloop
  endfacet
  facet normal 0 0 1
    outer loop
      vertex 17 -5 9
      vertex 19.5 0 9
      vertex 17 0 9
    endloop
  endfacet
  facet normal 0 0 1
    outer loop
      vertex 19.5 0 9
      vertex 17 -5 9
      vertex 24.5 -5 9
    endloop
  endfacet
  facet normal 0 0 1
    outer loop
      vertex -19.5 20 9
      vertex -24.5 20 9
      vertex -19.5 0 9
    endloop
  endfacet
  facet normal -0 0 1
    outer loop
      vertex -19.5 0 9
      vertex 4 -5 9
      vertex 4 0 9
    endloop
  endfacet
  facet normal 0 0 1
    outer loop
      vertex -19.5 0 9
      vertex -24.5 -5 9
      vertex 4 -5 9
    endloop
  endfacet
  facet normal 0 0 1
    outer loop
      vertex -24.5 -5 9
      vertex -19.5 0 9
      vertex -24.5 20 9
    endloop
  endfacet
  facet normal 1 0 0
    outer loop
      vertex 24.5 20 9
      vertex 24.5 6.7 1.8
      vertex 24.5 20 0
    endloop
  endfacet
  facet normal 1 -0 0
    outer loop
      vertex 24.5 -5 9
      vertex 24.5 6.7 1.8
      vertex 24.5 20 9
    endloop
  endfacet
  facet normal 1 0 0
    outer loop
      vertex 24.5 6.7 1.8
      vertex 24.5 -5 9
      vertex 24.5 2 1.8
    endloop
  endfacet
  facet normal 1 0 0
    outer loop
      vertex 24.5 -5 0
      vertex 24.5 2 1.8
      vertex 24.5 -5 9
    endloop
  endfacet
  facet normal 1 0 0
    outer loop
      vertex 24.5 2 1.8
      vertex 24.5 -5 0
      vertex 24.5 2 0
    endloop
  endfacet
  facet normal 1 0 0
    outer loop
      vertex 24.5 20 0
      vertex 24.5 6.7 1.8
      vertex 24.5 6.7 0
    endloop
  endfacet
  facet normal 0 1 0
    outer loop
      vertex 24.5 20 9
      vertex 19.5 20 5
      vertex 19.5 20 9
    endloop
  endfacet
  facet normal 0 1 0
    outer loop
      vertex 19.5 20 5
      vertex 24.5 20 0
      vertex -19.5 20 5
    endloop
  endfacet
  facet normal 0 1 -0
    outer loop
      vertex 24.5 20 0
      vertex 19.5 20 5
      vertex 24.5 20 9
    endloop
  endfacet
  facet normal 0 1 -0
    outer loop
      vertex -19.5 20 5
      vertex -24.5 20 9
      vertex -19.5 20 9
    endloop
  endfacet
  facet normal 0 1 0
    outer loop
      vertex -19.5 20 5
      vertex -24.5 20 0
      vertex -24.5 20 9
    endloop
  endfacet
  facet normal 0 1 0
    outer loop
      vertex -24.5 20 0
      vertex -19.5 20 5
      vertex 24.5 20 0
    endloop
  endfacet
  facet normal 0 0 -1
    outer loop
      vertex -24.5 -5 0
      vertex 24.5 2 0
      vertex 24.5 -5 0
    endloop
  endfacet
  facet normal -0 0 -1
    outer loop
      vertex 24.5 2 0
      vertex -24.5 -5 0
      vertex -24.5 2 0
    endloop
  endfacet
  facet normal 0 0 -1
    outer loop
      vertex 15.3478 10.7654 0
      vertex 24.5 6.7 0
      vertex 15.5 10 0
    endloop
  endfacet
  facet normal 0 0 -1
    outer loop
      vertex 24.5 6.7 0
      vertex 15.3478 9.23463 0
      vertex 15.5 10 0
    endloop
  endfacet
  facet normal 0 0 -1
    outer loop
      vertex 24.5 6.7 0
      vertex 14.9142 8.58579 0
      vertex 15.3478 9.23463 0
    endloop
  endfacet
  facet normal 0 0 -1
    outer loop
      vertex 24.5 6.7 0
      vertex 14.2654 8.15224 0
      vertex 14.9142 8.58579 0
    endloop
  endfacet
  facet normal 0 0 -1
    outer loop
      vertex 24.5 6.7 0
      vertex 13.5 8 0
      vertex 14.2654 8.15224 0
    endloop
  endfacet
  facet normal 0 0 -1
    outer loop
      vertex 11.6522 9.23463 0
      vertex -11.5 10 0
      vertex 11.5 10 0
    endloop
  endfacet
  facet normal 0 0 -1
    outer loop
      vertex -11.6522 9.23463 0
      vertex 11.6522 9.23463 0
      vertex 12.0858 8.58579 0
    endloop
  endfacet
  facet normal 0 0 -1
    outer loop
      vertex -12.0858 8.58579 0
      vertex 12.0858 8.58579 0
      vertex 12.7346 8.15224 0
    endloop
  endfacet
  facet normal 0 0 -1
    outer loop
      vertex -12.7346 8.15224 0
      vertex 12.7346 8.15224 0
      vertex 13.5 8 0
    endloop
  endfacet
  facet normal 0 0 -1
    outer loop
      vertex -13.5 8 0
      vertex 13.5 8 0
      vertex 24.5 6.7 0
    endloop
  endfacet
  facet normal 0 0 -1
    outer loop
      vertex 11.6522 9.23463 0
      vertex -11.6522 9.23463 0
      vertex -11.5 10 0
    endloop
  endfacet
  facet normal 0 0 -1
    outer loop
      vertex 12.0858 8.58579 0
      vertex -12.0858 8.58579 0
      vertex -11.6522 9.23463 0
    endloop
  endfacet
  facet normal 0 0 -1
    outer loop
      vertex 12.7346 8.15224 0
      vertex -12.7346 8.15224 0
      vertex -12.0858 8.58579 0
    endloop
  endfacet
  facet normal 0 0 -1
    outer loop
      vertex 13.5 8 0
      vertex -13.5 8 0
      vertex -12.7346 8.15224 0
    endloop
  endfacet
  facet normal -0 0 -1
    outer loop
      vertex -15.3478 9.23463 0
      vertex -24.5 6.7 0
      vertex -15.5 10 0
    endloop
  endfacet
  facet normal -0 0 -1
    outer loop
      vertex -14.9142 8.58579 0
      vertex -24.5 6.7 0
      vertex -15.3478 9.23463 0
    endloop
  endfacet
  facet normal -0 0 -1
    outer loop
      vertex -14.2654 8.15224 0
      vertex -24.5 6.7 0
      vertex -14.9142 8.58579 0
    endloop
  endfacet
  facet normal -0 0 -1
    outer loop
      vertex -13.5 8 0
      vertex -24.5 6.7 0
      vertex -14.2654 8.15224 0
    endloop
  endfacet
  facet normal 0 0 -1
    outer loop
      vertex -24.5 6.7 0
      vertex -13.5 8 0
      vertex 24.5 6.7 0
    endloop
  endfacet
  facet normal 0 0 -1
    outer loop
      vertex 24.5 6.7 0
      vertex 15.3478 10.7654 0
      vertex 24.5 20 0
    endloop
  endfacet
  facet normal 0 0 -1
    outer loop
      vertex 14.9142 11.4142 0
      vertex 24.5 20 0
      vertex 15.3478 10.7654 0
    endloop
  endfacet
  facet normal 0 0 -1
    outer loop
      vertex 14.2654 11.8478 0
      vertex 24.5 20 0
      vertex 14.9142 11.4142 0
    endloop
  endfacet
  facet normal 0 0 -1
    outer loop
      vertex 13.5 12 0
      vertex 24.5 20 0
      vertex 14.2654 11.8478 0
    endloop
  endfacet
  facet normal 0 0 -1
    outer loop
      vertex 12.7346 11.8478 0
      vertex 24.5 20 0
      vertex 13.5 12 0
    endloop
  endfacet
  facet normal 0 0 -1
    outer loop
      vertex -12.7346 11.8478 0
      vertex 12.7346 11.8478 0
      vertex 12.0858 11.4142 0
    endloop
  endfacet
  facet normal 0 0 -1
    outer loop
      vertex -11.5 10 0
      vertex 11.6522 10.7654 0
      vertex 11.5 10 0
    endloop
  endfacet
  facet normal 0 0 -1
    outer loop
      vertex -11.6522 10.7654 0
      vertex 11.6522 10.7654 0
      vertex -11.5 10 0
    endloop
  endfacet
  facet normal 0 0 -1
    outer loop
      vertex 11.6522 10.7654 0
      vertex -11.6522 10.7654 0
      vertex 12.0858 11.4142 0
    endloop
  endfacet
  facet normal 0 0 -1
    outer loop
      vertex -12.0858 11.4142 0
      vertex 12.0858 11.4142 0
      vertex -11.6522 10.7654 0
    endloop
  endfacet
  facet normal 0 0 -1
    outer loop
      vertex -12.7346 11.8478 0
      vertex 12.0858 11.4142 0
      vertex -12.0858 11.4142 0
    endloop
  endfacet
  facet normal 0 0 -1
    outer loop
      vertex 12.7346 11.8478 0
      vertex -12.7346 11.8478 0
      vertex 24.5 20 0
    endloop
  endfacet
  facet normal 0 0 -1
    outer loop
      vertex -24.5 20 0
      vertex -12.7346 11.8478 0
      vertex -13.5 12 0
    endloop
  endfacet
  facet normal 0 0 -1
    outer loop
      vertex -24.5 20 0
      vertex -13.5 12 0
      vertex -14.2654 11.8478 0
    endloop
  endfacet
  facet normal 0 0 -1
    outer loop
      vertex -24.5 6.7 0
      vertex -15.3478 10.7654 0
      vertex -15.5 10 0
    endloop
  endfacet
  facet normal 0 0 -1
    outer loop
      vertex -24.5 20 0
      vertex -15.3478 10.7654 0
      vertex -24.5 6.7 0
    endloop
  endfacet
  facet normal 0 0 -1
    outer loop
      vertex -15.3478 10.7654 0
      vertex -24.5 20 0
      vertex -14.9142 11.4142 0
    endloop
  endfacet
  facet normal 0 0 -1
    outer loop
      vertex -12.7346 11.8478 0
      vertex -24.5 20 0
      vertex 24.5 20 0
    endloop
  endfacet
  facet normal 0 0 -1
    outer loop
      vertex -14.9142 11.4142 0
      vertex -24.5 20 0
      vertex -14.2654 11.8478 0
    endloop
  endfacet
  facet normal 0 -1 0
    outer loop
      vertex -24.5 -5 9
      vertex 4 -5 5
      vertex 4 -5 9
    endloop
  endfacet
  facet normal 0 -1 0
    outer loop
      vertex 24.5 -5 0
      vertex 4 -5 5
      vertex -24.5 -5 0
    endloop
  endfacet
  facet normal 0 -1 0
    outer loop
      vertex -24.5 -5 0
      vertex 4 -5 5
      vertex -24.5 -5 9
    endloop
  endfacet
  facet normal 0 -1 0
    outer loop
      vertex 17 -5 5
      vertex 24.5 -5 9
      vertex 17 -5 9
    endloop
  endfacet
  facet normal 0 -1 0
    outer loop
      vertex 17 -5 5
      vertex 24.5 -5 0
      vertex 24.5 -5 9
    endloop
  endfacet
  facet normal 0 -1 0
    outer loop
      vertex 4 -5 5
      vertex 24.5 -5 0
      vertex 17 -5 5
    endloop
  endfacet
  facet normal 1 -0 0
    outer loop
      vertex -19.5 0 9
      vertex -19.5 20 5
      vertex -19.5 20 9
    endloop
  endfacet
  facet normal 1 0 0
    outer loop
      vertex -19.5 20 5
      vertex -19.5 0 9
      vertex -19.5 0 5
    endloop
  endfacet
  facet normal -1 0 0
    outer loop
      vertex 19.5 0 5
      vertex 19.5 20 9
      vertex 19.5 20 5
    endloop
  endfacet
  facet normal -1 -0 0
    outer loop
      vertex 19.5 20 9
      vertex 19.5 0 5
      vertex 19.5 0 9
    endloop
  endfacet
  facet normal 0 0 1
    outer loop
      vertex 19.5 20 5
      vertex 17.1 10 5
      vertex 19.5 0 5
    endloop
  endfacet
  facet normal 0 0 1
    outer loop
      vertex 19.5 20 5
      vertex 16.826 11.3777 5
      vertex 17.1 10 5
    endloop
  endfacet
  facet normal 0 0 1
    outer loop
      vertex 19.5 20 5
      vertex 16.0456 12.5456 5
      vertex 16.826 11.3777 5
    endloop
  endfacet
  facet normal 0 0 1
    outer loop
      vertex 19.5 20 5
      vertex 14.8777 13.326 5
      vertex 16.0456 12.5456 5
    endloop
  endfacet
  facet normal 0 0 1
    outer loop
      vertex 19.5 20 5
      vertex 13.5 13.6 5
      vertex 14.8777 13.326 5
    endloop
  endfacet
  facet normal 0 0 1
    outer loop
      vertex 19.5 20 5
      vertex 12.1223 13.326 5
      vertex 13.5 13.6 5
    endloop
  endfacet
  facet normal 0 0 1
    outer loop
      vertex -12.1223 13.326 5
      vertex 12.1223 13.326 5
      vertex 19.5 20 5
    endloop
  endfacet
  facet normal 0 0 1
    outer loop
      vertex -9.9 10 5
      vertex 9.9 10 5
      vertex 10.174 11.3777 5
    endloop
  endfacet
  facet normal 0 0 1
    outer loop
      vertex 9.9 10 5
      vertex -9.9 10 5
      vertex 4 0 5
    endloop
  endfacet
  facet normal 0 0 1
    outer loop
      vertex -10.174 11.3777 5
      vertex 10.174 11.3777 5
      vertex 10.9544 12.5456 5
    endloop
  endfacet
  facet normal 0 0 1
    outer loop
      vertex 12.1223 13.326 5
      vertex -12.1223 13.326 5
      vertex 10.9544 12.5456 5
    endloop
  endfacet
  facet normal 0 0 1
    outer loop
      vertex 10.174 11.3777 5
      vertex -10.174 11.3777 5
      vertex -9.9 10 5
    endloop
  endfacet
  facet normal 0 0 1
    outer loop
      vertex 10.9544 12.5456 5
      vertex -10.9544 12.5456 5
      vertex -10.174 11.3777 5
    endloop
  endfacet
  facet normal 0 0 1
    outer loop
      vertex 10.9544 12.5456 5
      vertex -12.1223 13.326 5
      vertex -10.9544 12.5456 5
    endloop
  endfacet
  facet normal -0 0 1
    outer loop
      vertex -19.5 20 5
      vertex -12.1223 13.326 5
      vertex 19.5 20 5
    endloop
  endfacet
  facet normal 0 0 1
    outer loop
      vertex -16.826 11.3777 5
      vertex -19.5 20 5
      vertex -17.1 10 5
    endloop
  endfacet
  facet normal 0 0 1
    outer loop
      vertex -16.0456 12.5456 5
      vertex -19.5 20 5
      vertex -16.826 11.3777 5
    endloop
  endfacet
  facet normal 0 0 1
    outer loop
      vertex -14.8777 13.326 5
      vertex -19.5 20 5
      vertex -16.0456 12.5456 5
    endloop
  endfacet
  facet normal 0 0 1
    outer loop
      vertex -13.5 13.6 5
      vertex -19.5 20 5
      vertex -14.8777 13.326 5
    endloop
  endfacet
  facet normal 0 0 1
    outer loop
      vertex -12.1223 13.326 5
      vertex -19.5 20 5
      vertex -13.5 13.6 5
    endloop
  endfacet
  facet normal -0 0 1
    outer loop
      vertex 16.826 8.62234 5
      vertex 19.5 0 5
      vertex 17.1 10 5
    endloop
  endfacet
  facet normal -0 0 1
    outer loop
      vertex 16.0456 7.45442 5
      vertex 19.5 0 5
      vertex 16.826 8.62234 5
    endloop
  endfacet
  facet normal 0 0 1
    outer loop
      vertex 19.5 0 5
      vertex 16.0456 7.45442 5
      vertex 17 0 5
    endloop
  endfacet
  facet normal -0 0 1
    outer loop
      vertex 14.8777 6.67403 5
      vertex 17 0 5
      vertex 16.0456 7.45442 5
    endloop
  endfacet
  facet normal -0 0 1
    outer loop
      vertex 13.5 6.4 5
      vertex 17 0 5
      vertex 14.8777 6.67403 5
    endloop
  endfacet
  facet normal 0 0 1
    outer loop
      vertex 12.1223 6.67403 5
      vertex 17 0 5
      vertex 13.5 6.4 5
    endloop
  endfacet
  facet normal 0 0 1
    outer loop
      vertex 4 0 5
      vertex 17 0 5
      vertex 12.1223 6.67403 5
    endloop
  endfacet
  facet normal 0 0 1
    outer loop
      vertex 4 0 5
      vertex 12.1223 6.67403 5
      vertex 10.9544 7.45442 5
    endloop
  endfacet
  facet normal 0 0 1
    outer loop
      vertex 4 0 5
      vertex 10.9544 7.45442 5
      vertex 10.174 8.62234 5
    endloop
  endfacet
  facet normal 0 0 1
    outer loop
      vertex 4 0 5
      vertex 10.174 8.62234 5
      vertex 9.9 10 5
    endloop
  endfacet
  facet normal 0 0 1
    outer loop
      vertex 17 0 5
      vertex 4 0 5
      vertex 17 -5 5
    endloop
  endfacet
  facet normal 0 0 1
    outer loop
      vertex 17 -5 5
      vertex 4 0 5
      vertex 4 -5 5
    endloop
  endfacet
  facet normal -0 0 1
    outer loop
      vertex -10.174 8.62234 5
      vertex 4 0 5
      vertex -9.9 10 5
    endloop
  endfacet
  facet normal -0 0 1
    outer loop
      vertex -10.9544 7.45442 5
      vertex 4 0 5
      vertex -10.174 8.62234 5
    endloop
  endfacet
  facet normal -0 0 1
    outer loop
      vertex -12.1223 6.67403 5
      vertex 4 0 5
      vertex -10.9544 7.45442 5
    endloop
  endfacet
  facet normal 0 0 1
    outer loop
      vertex -19.5 0 5
      vertex -12.1223 6.67403 5
      vertex -13.5 6.4 5
    endloop
  endfacet
  facet normal 0 0 1
    outer loop
      vertex -19.5 0 5
      vertex -13.5 6.4 5
      vertex -14.8777 6.67403 5
    endloop
  endfacet
  facet normal 0 0 1
    outer loop
      vertex -19.5 0 5
      vertex -17.1 10 5
      vertex -19.5 20 5
    endloop
  endfacet
  facet normal 0 0 1
    outer loop
      vertex -12.1223 6.67403 5
      vertex -19.5 0 5
      vertex 4 0 5
    endloop
  endfacet
  facet normal 0 0 1
    outer loop
      vertex -16.0456 7.45442 5
      vertex -19.5 0 5
      vertex -14.8777 6.67403 5
    endloop
  endfacet
  facet normal 0 0 1
    outer loop
      vertex -16.826 8.62234 5
      vertex -19.5 0 5
      vertex -16.0456 7.45442 5
    endloop
  endfacet
  facet normal 0 0 1
    outer loop
      vertex -17.1 10 5
      vertex -19.5 0 5
      vertex -16.826 8.62234 5
    endloop
  endfacet
  facet normal 0 1 -0
    outer loop
      vertex 19.5 0 5
      vertex 17 0 9
      vertex 19.5 0 9
    endloop
  endfacet
  facet normal 0 1 0
    outer loop
      vertex 17 0 9
      vertex 19.5 0 5
      vertex 17 0 5
    endloop
  endfacet
  facet normal 0 1 -0
    outer loop
      vertex 4 0 5
      vertex -19.5 0 9
      vertex 4 0 9
    endloop
  endfacet
  facet normal 0 1 0
    outer loop
      vertex -19.5 0 9
      vertex 4 0 5
      vertex -19.5 0 5
    endloop
  endfacet
  facet normal 1 -0 0
    outer loop
      vertex 4 -5 9
      vertex 4 0 5
      vertex 4 0 9
    endloop
  endfacet
  facet normal 1 0 0
    outer loop
      vertex 4 0 5
      vertex 4 -5 9
      vertex 4 -5 5
    endloop
  endfacet
  facet normal -1 0 0
    outer loop
      vertex 17 -5 5
      vertex 17 0 9
      vertex 17 0 5
    endloop
  endfacet
  facet normal -1 -0 0
    outer loop
      vertex 17 0 9
      vertex 17 -5 5
      vertex 17 -5 9
    endloop
  endfacet
  facet normal 0 0 -1
    outer loop
      vertex -24.5 2 1.8
      vertex 24.5 6.7 1.8
      vertex 24.5 2 1.8
    endloop
  endfacet
  facet normal -0 0 -1
    outer loop
      vertex 24.5 6.7 1.8
      vertex -24.5 2 1.8
      vertex -24.5 6.7 1.8
    endloop
  endfacet
  facet normal 0 -1 0
    outer loop
      vertex -24.5 6.7 0
      vertex 24.5 6.7 1.8
      vertex -24.5 6.7 1.8
    endloop
  endfacet
  facet normal 0 -1 -0
    outer loop
      vertex 24.5 6.7 1.8
      vertex -24.5 6.7 0
      vertex 24.5 6.7 0
    endloop
  endfacet
  facet normal 0 1 -0
    outer loop
      vertex 24.5 2 0
      vertex -24.5 2 1.8
      vertex 24.5 2 1.8
    endloop
  endfacet
  facet normal 0 1 0
    outer loop
      vertex -24.5 2 1.8
      vertex 24.5 2 0
      vertex -24.5 2 0
    endloop
  endfacet
endsolid OpenSCAD_Model
